<mxfile modified="2024-07-08T09:45:42.801Z" host="app.diagrams.net" agent="Mozilla/5.0 (X11; Ubuntu; Linux x86_64; rv:127.0) Gecko/20100101 Firefox/127.0" etag="Vp6tG2Q0uQyB2b2sgSyZ" version="24.4.8" type="device">
  <diagram id="l8hXMBHkgcEJcSW0mbfh" name="Page-1">
    <mxGraphModel dx="1363" dy="760" grid="1" gridSize="10" guides="1" tooltips="1" connect="1" arrows="1" fold="1" page="1" pageScale="1" pageWidth="1600" pageHeight="1200" math="0" shadow="0">
      <root>
        <mxCell id="0" />
        <mxCell id="1" parent="0" />
        <mxCell id="Dko0VYpapwrdr9Fq0hTY-12" style="rounded=0;orthogonalLoop=1;jettySize=auto;html=1;exitX=0.5;exitY=0;exitDx=0;exitDy=0;entryX=0;entryY=0.5;entryDx=0;entryDy=0;strokeWidth=2;startArrow=classic;startFill=1;" edge="1" parent="1" source="Dko0VYpapwrdr9Fq0hTY-1" target="Dko0VYpapwrdr9Fq0hTY-2">
          <mxGeometry relative="1" as="geometry" />
        </mxCell>
        <mxCell id="Dko0VYpapwrdr9Fq0hTY-13" style="rounded=0;orthogonalLoop=1;jettySize=auto;html=1;exitX=0.5;exitY=0;exitDx=0;exitDy=0;entryX=0;entryY=0.75;entryDx=0;entryDy=0;startArrow=none;startFill=0;strokeWidth=2;" edge="1" parent="1" source="Dko0VYpapwrdr9Fq0hTY-1" target="Dko0VYpapwrdr9Fq0hTY-3">
          <mxGeometry relative="1" as="geometry" />
        </mxCell>
        <mxCell id="Dko0VYpapwrdr9Fq0hTY-15" style="rounded=0;orthogonalLoop=1;jettySize=auto;html=1;exitX=0.5;exitY=1;exitDx=0;exitDy=0;entryX=0.5;entryY=0;entryDx=0;entryDy=0;strokeWidth=2;" edge="1" parent="1" source="Dko0VYpapwrdr9Fq0hTY-1" target="Dko0VYpapwrdr9Fq0hTY-10">
          <mxGeometry relative="1" as="geometry" />
        </mxCell>
        <mxCell id="Dko0VYpapwrdr9Fq0hTY-17" style="rounded=0;orthogonalLoop=1;jettySize=auto;html=1;exitX=0.5;exitY=1;exitDx=0;exitDy=0;strokeWidth=2;" edge="1" parent="1" source="Dko0VYpapwrdr9Fq0hTY-1" target="Dko0VYpapwrdr9Fq0hTY-6">
          <mxGeometry relative="1" as="geometry" />
        </mxCell>
        <mxCell id="Dko0VYpapwrdr9Fq0hTY-20" style="rounded=0;orthogonalLoop=1;jettySize=auto;html=1;exitX=0.5;exitY=0;exitDx=0;exitDy=0;strokeWidth=2;" edge="1" parent="1" source="Dko0VYpapwrdr9Fq0hTY-1" target="Dko0VYpapwrdr9Fq0hTY-4">
          <mxGeometry relative="1" as="geometry" />
        </mxCell>
        <mxCell id="Dko0VYpapwrdr9Fq0hTY-1" value="" style="shape=image;imageAspect=0;aspect=fixed;verticalLabelPosition=bottom;verticalAlign=top;image=data:image/svg+xml,PHN2ZyB4bWxucz0iaHR0cDovL3d3dy53My5vcmcvMjAwMC9zdmciIGZpbGw9Im5vbmUiIHZpZXdCb3g9IjAgMCAxNzcgNTYiIGhlaWdodD0iNTYiIHdpZHRoPSIxNzciPiYjeGE7PHJlY3Qgc3Ryb2tlLWxpbmVqb2luPSJyb3VuZCIgc3Ryb2tlLWxpbmVjYXA9InJvdW5kIiBzdHJva2Utd2lkdGg9IjIiIHN0cm9rZT0iIzQzNDE5MCIgZmlsbD0iIzQzNDE5MCIgaGVpZ2h0PSI1NCIgd2lkdGg9IjU1IiB5PSIxIiB4PSIxIi8+JiN4YTs8cmVjdCBzdHJva2UtbGluZWpvaW49InJvdW5kIiBzdHJva2UtbGluZWNhcD0icm91bmQiIHN0cm9rZS13aWR0aD0iMiIgc3Ryb2tlPSIjNDM0MTkwIiBmaWxsPSIjNDM0MTkwIiBoZWlnaHQ9IjU0IiB3aWR0aD0iNTUiIHk9IjEiIHg9IjEyMSIvPiYjeGE7PGVsbGlwc2UgZmlsbD0id2hpdGUiIHJ5PSI4IiByeD0iMjcuNSIgY3k9IjQ1IiBjeD0iMTQ4LjUiLz4mI3hhOzxyZWN0IGZpbGw9IndoaXRlIiBoZWlnaHQ9IjQ0IiB3aWR0aD0iNTUiIHk9IjEiIHg9IjEyMSIvPiYjeGE7PHJlY3Qgc3Ryb2tlLWxpbmVqb2luPSJyb3VuZCIgc3Ryb2tlLWxpbmVjYXA9InJvdW5kIiBzdHJva2Utd2lkdGg9IjIiIHN0cm9rZT0iIzQzNDE5MCIgZmlsbD0iIzQzNDE5MCIgaGVpZ2h0PSI1NCIgd2lkdGg9IjU1IiB5PSIxIiB4PSI2MSIvPiYjeGE7PGVsbGlwc2UgZmlsbD0id2hpdGUiIHJ5PSI4IiByeD0iMjcuNSIgY3k9IjQ1IiBjeD0iODguNSIvPiYjeGE7PHJlY3QgZmlsbD0id2hpdGUiIGhlaWdodD0iNDQiIHdpZHRoPSI1NSIgeT0iMSIgeD0iNjEiLz4mI3hhOzxlbGxpcHNlIGZpbGw9IndoaXRlIiByeT0iOCIgcng9IjI3LjUiIGN5PSI0NSIgY3g9IjI4LjUiLz4mI3hhOzxyZWN0IGZpbGw9IndoaXRlIiBoZWlnaHQ9IjQ0IiB3aWR0aD0iNTUiIHk9IjEiIHg9IjEiLz4mI3hhOzxwYXRoIGZpbGw9IiM0MzQxOTAiIGQ9Ik0xOC41OTE2IDQySDI0Ljg5NlYzMi4zMzI0SDMwLjE5NTdDMzcuMDUzMyAzMi4zMzI0IDQxLjA0MjYgMjguMjQxMSA0MS4wNDI2IDIyLjI4NjJDNDEuMDQyNiAxNi4zNjA0IDM3LjEyNjEgMTIuMTgxOCAzMC4zNTU4IDEyLjE4MThIMTguNTkxNlY0MlpNMjQuODk2IDI3LjI4MDJWMTcuMzM1OUgyOS4xNDc0QzMyLjc4NzMgMTcuMzM1OSAzNC41NDkgMTkuMzE2MSAzNC41NDkgMjIuMjg2MkMzNC41NDkgMjUuMjQxOCAzMi43ODczIDI3LjI4MDIgMjkuMTc2NSAyNy4yODAySDI0Ljg5NloiLz4mI3hhOzxwYXRoIGZpbGw9IiM0MzQxOTAiIGQ9Ik03NS40NTYgMTcuMzc5Nkg4NC41ODQ5VjQySDkwLjgxNjRWMTcuMzc5Nkg5OS45NDUzVjEyLjE4MThINzUuNDU2VjE3LjM3OTZaIi8+JiN4YTs8cGF0aCBmaWxsPSIjNDM0MTkwIiBkPSJNMTQxLjczMSA0MkwxNDMuOTQ0IDM1LjIwMDZIMTU0LjcwNEwxNTYuOTE3IDQySDE2My42NzNMMTUzLjM5MyAxMi4xODE4SDE0NS4yNjlMMTM0Ljk3NSA0MkgxNDEuNzMxWk0xNDUuNTQ2IDMwLjI3OTVMMTQ5LjIxNSAxOC45OTU3SDE0OS40NDhMMTUzLjExNyAzMC4yNzk1SDE0NS41NDZaIi8+JiN4YTs8L3N2Zz4=;" vertex="1" parent="1">
          <mxGeometry x="524.78" y="420" width="177" height="56" as="geometry" />
        </mxCell>
        <mxCell id="Dko0VYpapwrdr9Fq0hTY-2" value="Clavis Clavium" style="shape=image;imageAspect=0;aspect=fixed;verticalLabelPosition=bottom;verticalAlign=top;image=data:image/jpeg,/9j/4Qd+RXhpZgAATU0AKgAAAAgADAEAAAMAAAABADIAAAEBAAMAAAABADIAAAECAAMAAAAEAAAAngEGAAMAAAABAAUAAAESAAMAAAABAAEAAAEVAAMAAAABAAQAAAEaAAUAAAABAAAApgEbAAUAAAABAAAArgEoAAMAAAABAAIAAAExAAIAAAAkAAAAtgEyAAIAAAAUAAAA2odpAAQAAAABAAAA8AAAASgACAAIAAgACAAK/IAAACcQAAr8gAAAJxBBZG9iZSBQaG90b3Nob3AgQ0MgMjAxOSAoTWFjaW50b3NoKQAyMDE5OjA3OjEyIDE2OjA0OjE1AAAAAASQAAAHAAAABDAyMzGgAQADAAAAAf//AACgAgAEAAAAAQAAADKgAwAEAAAAAQAAADIAAAAAAAAABgEDAAMAAAABAAYAAAEaAAUAAAABAAABdgEbAAUAAAABAAABfgEoAAMAAAABAAIAAAIBAAQAAAABAAABhgICAAQAAAABAAAF8AAAAAAAAABIAAAAAQAAAEgAAAAB/9j/7QAMQWRvYmVfQ00AAf/uAA5BZG9iZQBkgAAAAAH/2wCEAAwICAgJCAwJCQwRCwoLERUPDAwPFRgTExUTExgRDAwMDAwMEQwMDAwMDAwMDAwMDAwMDAwMDAwMDAwMDAwMDAwBDQsLDQ4NEA4OEBQODg4UFA4ODg4UEQwMDAwMEREMDAwMDAwRDAwMDAwMDAwMDAwMDAwMDAwMDAwMDAwMDAwMDP/AABEIADIAMgMBIgACEQEDEQH/3QAEAAT/xAE/AAABBQEBAQEBAQAAAAAAAAADAAECBAUGBwgJCgsBAAEFAQEBAQEBAAAAAAAAAAEAAgMEBQYHCAkKCxAAAQQBAwIEAgUHBggFAwwzAQACEQMEIRIxBUFRYRMicYEyBhSRobFCIyQVUsFiMzRygtFDByWSU/Dh8WNzNRaisoMmRJNUZEXCo3Q2F9JV4mXys4TD03Xj80YnlKSFtJXE1OT0pbXF1eX1VmZ2hpamtsbW5vY3R1dnd4eXp7fH1+f3EQACAgECBAQDBAUGBwcGBTUBAAIRAyExEgRBUWFxIhMFMoGRFKGxQiPBUtHwMyRi4XKCkkNTFWNzNPElBhaisoMHJjXC0kSTVKMXZEVVNnRl4vKzhMPTdePzRpSkhbSVxNTk9KW1xdXl9VZmdoaWprbG1ub2JzdHV2d3h5ent8f/2gAMAwEAAhEDEQA/AOJJMo+PiXXlsAw+dgALnOI/0TPz1GhlbnF9380wjd5kn2t0938p/wDIWl6jMes5D3wHj0n+g/25Gw7q3U7h+hZX/hLP8F/gfTsWmb2DmAACz9B1k1nYlbBSRtcLnNEuc5zmtdxc+qsM/R/S+h/o9ikcNm5jCGgvdYJcXMgM+g7l/wDP/wCCQX9TyyNtLhj1/uVDb/nP/nH/AOcrOBX9Ysyu23CqvzKaR+mhnqsGk7Xbg7/NZ70jQGsioGROkI/af+8a93T7WE+mHEgwWHmS1tu1j2+2z2P/AK6qSVr1WfaGCg1voc0iy3EEtD6wfUe7G3+9v+k9L/rrP5tUs0Y9r7LMZ+8MPueRt3NP0bGtd7vb/N7n++z+dehqPHxSQDsKI3iWtJ8Twkl/cknLH//Q48tLmU0t5tcSfi4+kz/qVPqNgdlurZpVR+hrHgGaf9J+5RDxW/FuPDDr/YfuP/RcrA6ZlZnV7MHGDTa97nAvc1jQ0/pd7rLC1rW7CtTQRJ8dXKonIB/V0/Dic9d79V8So9O6X1HqZPT8Xozr7v0oht4uI9HPprb+lc/FyLKarLLKvR9P0PesjPxMb6pWtosxTm9VIJbk5LCMWv8AN3YeO/8Apb2P/wAPkfov+AWTV17qbOoWdQut+13XsdVkNyPey2p308e1kt/Q6fQr2en/AINRSuY027s8Kxn1b9R2ek+udrqcWvJdmt6hbkZz8np1zCLPRpa39ZwnXtfYzY26zH9Olj/+21zN7GM6j7BFWS0OA8rW8f8Abij1Lql2f6TDVXjY2M0sx8WgEVsDjusc0PdY91lz/dbY9+96nktjqFFPeiutr/iweo9PhGoEFjyS4s0SOxH/AEWjr+EfNJPu/wDJJJyx/9Hjqh6rXY/5xO6rzdw5n/XG/wDTVvFufc7HtpLW9Rwi01B8Ra1h3Mb7vb6tX7j/AOcrWeeUU2V3ibTsu/0sSHf8aB7t/wDwrFp9+oLl1dUalHYp+q9U6l1LLdb1K177gTFbpArn8yuo/wA03RUluCym0BrnC6sfQNrW3AAFvt9XS3e5m9/+j9T9GnrNFMODWVPDjJqrAO1rnN/nbC51Tn1fpqn/AEP8GgDEDQ14UkjITqL8eLT/AL7/AJjnUUjEDcvKbBHux6HaOe78x7m/m0s+l/LQi5za332GbciQ094J/S2f2v5tild6Lbn2PtOW6Tt5gj811r//AEVX/wBuID3vseXvMuPf4dh/Jajd6DZAFEk/Ntp+ir+5JL+5JFD/AP/S4o89kvuXPpLUcp3+/b5cp3fL+0ufSSU9B9yX3Ln0klPQ/wCbwkueSSS//9n/7Q9+UGhvdG9zaG9wIDMuMAA4QklNBAQAAAAAAC4cAVoAAxslRxwCAAACAAAcAgUAGmxvZ29fQ2xhQ2xhXzJBX2NvbnRvdXJfREVGOEJJTQQlAAAAAAAQKqwKRcAI3PQ+yUY2sCg3wDhCSU0EOgAAAAABDwAAABAAAAABAAAAAAALcHJpbnRPdXRwdXQAAAAFAAAAAFBzdFNib29sAQAAAABJbnRlZW51bQAAAABJbnRlAAAAAENscm0AAAAPcHJpbnRTaXh0ZWVuQml0Ym9vbAAAAAALcHJpbnRlck5hbWVURVhUAAAAEgBDAGEAbgBvAG4AIABNAEYANgAzADMAQwAvADYAMwA1AEMAAAAAAA9wcmludFByb29mU2V0dXBPYmpjAAAAEABJAG4AcwB0AGUAbABsAGUAbgAgAHAAcgBvAGUAZgAAAAAACnByb29mU2V0dXAAAAABAAAAAEJsdG5lbnVtAAAADGJ1aWx0aW5Qcm9vZgAAAAlwcm9vZkNNWUsAOEJJTQQ7AAAAAAItAAAAEAAAAAEAAAAAABJwcmludE91dHB1dE9wdGlvbnMAAAAXAAAAAENwdG5ib29sAAAAAABDbGJyYm9vbAAAAAAAUmdzTWJvb2wAAAAAAENybkNib29sAAAAAABDbnRDYm9vbAAAAAAATGJsc2Jvb2wAAAAAAE5ndHZib29sAAAAAABFbWxEYm9vbAAAAAAASW50cmJvb2wAAAAAAEJja2dPYmpjAAAAAQAAAAAAAFJHQkMAAAADAAAAAFJkICBkb3ViQG/gAAAAAAAAAAAAR3JuIGRvdWJAb+AAAAAAAAAAAABCbCAgZG91YkBv4AAAAAAAAAAAAEJyZFRVbnRGI1JsdAAAAAAAAAAAAAAAAEJsZCBVbnRGI1JsdAAAAAAAAAAAAAAAAFJzbHRVbnRGI1B4bEBSAAAAAAAAAAAACnZlY3RvckRhdGFib29sAQAAAABQZ1BzZW51bQAAAABQZ1BzAAAAAFBnUEMAAAAATGVmdFVudEYjUmx0AAAAAAAAAAAAAAAAVG9wIFVudEYjUmx0AAAAAAAAAAAAAAAAU2NsIFVudEYjUHJjQFkAAAAAAAAAAAAQY3JvcFdoZW5QcmludGluZ2Jvb2wAAAAADmNyb3BSZWN0Qm90dG9tbG9uZwAAAAAAAAAMY3JvcFJlY3RMZWZ0bG9uZwAAAAAAAAANY3JvcFJlY3RSaWdodGxvbmcAAAAAAAAAC2Nyb3BSZWN0VG9wbG9uZwAAAAAAOEJJTQPtAAAAAAAQAEgAAAABAAIASAAAAAEAAjhCSU0EJgAAAAAADgAAAAAAAAAAAAA/gAAAOEJJTQPyAAAAAAAKAAD///////8AADhCSU0EDQAAAAAABAAAAB44QklNBBkAAAAAAAQAAAAeOEJJTQPzAAAAAAAJAAAAAAAAAAABADhCSU0nEAAAAAAACgABAAAAAAAAAAI4QklNA/UAAAAAAEgAL2ZmAAEAbGZmAAYAAAAAAAEAL2ZmAAEAoZmaAAYAAAAAAAEAMgAAAAEAWgAAAAYAAAAAAAEANQAAAAEALQAAAAYAAAAAAAE4QklNA/gAAAAAAHAAAP////////////////////////////8D6AAAAAD/////////////////////////////A+gAAAAA/////////////////////////////wPoAAAAAP////////////////////////////8D6AAAOEJJTQQIAAAAAAAQAAAAAQAAAkAAAAJAAAAAADhCSU0EHgAAAAAABAAAAAA4QklNBBoAAAAAA2MAAAAGAAAAAAAAAAAAAAAyAAAAMgAAABcAbABvAGcAbwBfAEMAbABhAEMAbABhAF8ANwAyAGQAcABpAF8ANQAwAHgANQAwAAAAAQAAAAAAAAAAAAAAAAAAAAAAAAABAAAAAAAAAAAAAAAyAAAAMgAAAAAAAAAAAAAAAAAAAAABAAAAAAAAAAAAAAAAAAAAAAAAABAAAAABAAAAAAAAbnVsbAAAAAIAAAAGYm91bmRzT2JqYwAAAAEAAAAAAABSY3QxAAAABAAAAABUb3AgbG9uZwAAAAAAAAAATGVmdGxvbmcAAAAAAAAAAEJ0b21sb25nAAAAMgAAAABSZ2h0bG9uZwAAADIAAAAGc2xpY2VzVmxMcwAAAAFPYmpjAAAAAQAAAAAABXNsaWNlAAAAEgAAAAdzbGljZUlEbG9uZwAAAAAAAAAHZ3JvdXBJRGxvbmcAAAAAAAAABm9yaWdpbmVudW0AAAAMRVNsaWNlT3JpZ2luAAAADWF1dG9HZW5lcmF0ZWQAAAAAVHlwZWVudW0AAAAKRVNsaWNlVHlwZQAAAABJbWcgAAAABmJvdW5kc09iamMAAAABAAAAAAAAUmN0MQAAAAQAAAAAVG9wIGxvbmcAAAAAAAAAAExlZnRsb25nAAAAAAAAAABCdG9tbG9uZwAAADIAAAAAUmdodGxvbmcAAAAyAAAAA3VybFRFWFQAAAABAAAAAAAAbnVsbFRFWFQAAAABAAAAAAAATXNnZVRFWFQAAAABAAAAAAAGYWx0VGFnVEVYVAAAAAEAAAAAAA5jZWxsVGV4dElzSFRNTGJvb2wBAAAACGNlbGxUZXh0VEVYVAAAAAEAAAAAAAlob3J6QWxpZ25lbnVtAAAAD0VTbGljZUhvcnpBbGlnbgAAAAdkZWZhdWx0AAAACXZlcnRBbGlnbmVudW0AAAAPRVNsaWNlVmVydEFsaWduAAAAB2RlZmF1bHQAAAALYmdDb2xvclR5cGVlbnVtAAAAEUVTbGljZUJHQ29sb3JUeXBlAAAAAE5vbmUAAAAJdG9wT3V0c2V0bG9uZwAAAAAAAAAKbGVmdE91dHNldGxvbmcAAAAAAAAADGJvdHRvbU91dHNldGxvbmcAAAAAAAAAC3JpZ2h0T3V0c2V0bG9uZwAAAAAAOEJJTQQoAAAAAAAMAAAAAj/wAAAAAAAAOEJJTQQUAAAAAAAEAAAAAjhCSU0EDAAAAAAGDAAAAAEAAAAyAAAAMgAAAJgAAB2wAAAF8AAYAAH/2P/tAAxBZG9iZV9DTQAB/+4ADkFkb2JlAGSAAAAAAf/bAIQADAgICAkIDAkJDBELCgsRFQ8MDA8VGBMTFRMTGBEMDAwMDAwRDAwMDAwMDAwMDAwMDAwMDAwMDAwMDAwMDAwMDAENCwsNDg0QDg4QFA4ODhQUDg4ODhQRDAwMDAwREQwMDAwMDBEMDAwMDAwMDAwMDAwMDAwMDAwMDAwMDAwMDAwM/8AAEQgAMgAyAwEiAAIRAQMRAf/dAAQABP/EAT8AAAEFAQEBAQEBAAAAAAAAAAMAAQIEBQYHCAkKCwEAAQUBAQEBAQEAAAAAAAAAAQACAwQFBgcICQoLEAABBAEDAgQCBQcGCAUDDDMBAAIRAwQhEjEFQVFhEyJxgTIGFJGhsUIjJBVSwWIzNHKC0UMHJZJT8OHxY3M1FqKygyZEk1RkRcKjdDYX0lXiZfKzhMPTdePzRieUpIW0lcTU5PSltcXV5fVWZnaGlqa2xtbm9jdHV2d3h5ent8fX5/cRAAICAQIEBAMEBQYHBwYFNQEAAhEDITESBEFRYXEiEwUygZEUobFCI8FS0fAzJGLhcoKSQ1MVY3M08SUGFqKygwcmNcLSRJNUoxdkRVU2dGXi8rOEw9N14/NGlKSFtJXE1OT0pbXF1eX1VmZ2hpamtsbW5vYnN0dXZ3eHl6e3x//aAAwDAQACEQMRAD8A4kkyj4+JdeWwDD52AAuc4j/RM/PUaGVucX3fzTCN3mSfa3T3fyn/AMhaXqMx6zkPfAePSf6D/bkbDurdTuH6Flf+Es/wX+B9OxaZvYOYAALP0HWTWdiVsFJG1wuc0S5znOa13Fz6qwz9H9L6H+j2KRw2bmMIaC91glxcyAz6DuX/AM//AIJBf1PLI20uGPX+5UNv+c/+cf8A5ys4Ff1izK7bcKq/MppH6aGeqwaTtduDv81nvSNAayKgZE6Qj9p/7xr3dPtYT6YcSDBYeZLW27WPb7bPY/8ArqpJWvVZ9oYKDW+hzSLLcQS0PrB9R7sbf72/6T0v+us/m1SzRj2vssxn7ww+55G3c0/Rsa13u9v83uf77P516Go8fFJAOwojeJa0nxPCSX9yScsf/9Djy0uZTS3m1xJ+Lj6TP+pU+o2B2W6tmlVH6GseAZp/0n7lEPFb8W48MOv9h+4/9FysDpmVmdXswcYNNr3ucC9zWNDT+l3ussLWtbsK1NBEnx1cqicgH9XT8OJz13v1XxKj07pfUepk9PxejOvu/SiG3i4j0c+mtv6Vz8XIspqsssq9H0/Q96yM/Exvqla2izFOb1UgluTksIxa/wA3dh47/wClvY//AA+R+i/4BZNXXups6hZ1C637Xdex1WQ3I97LanfTx7WS39Dp9CvZ6f8Ag1FK5jTbuzwrGfVv1HZ6T652upxa8l2a3qFuRnPyenXMIs9Glrf1nCde19jNjbrMf06WP/7bXM3sYzqPsEVZLQ4Dytbx/wBuKPUuqXZ/pMNVeNjYzSzHxaARWwOO6xzQ91j3WXP91tj373qeS2OoUU96K62v+LB6j0+EagQWPJLizRI7Ef8ARaOv4R80k+7/AMkknLH/0eOqHqtdj/nE7qvN3Dmf9cb/ANNW8W59zse2ktb1HCLTUHxFrWHcxvu9vq1fuP8A5ytZ55RTZXeJtOy7/SxId/xoHu3/APCsWn36guXV1RqUdin6r1TqXUst1vUrXvuBMVukCufzK6j/ADTdFSW4LKbQGucLqx9A2tbcAAW+31dLd7mb3/6P1P0aes0Uw4NZU8OMmqsA7Wuc3+dsLnVOfV+mqf8AQ/waAMQNDXhSSMhOovx4tP8Avv8AmOdRSMQNy8psEe7Hodo57vzHub+bSz6X8tCLnNrffYZtyJDT3gn9LZ/a/m2KV3otufY+05bpO3mCPzXWv/8ARVf/AG4gPe+x5e8y49/h2H8lqN3oNkAUST822n6Kv7kkv7kkUP8A/9Lijz2S+5c+ktRynf79vlynd8v7S59JJT0H3JfcufSSU9D/AJvCS55JJL//2ThCSU0EIQAAAAAAXQAAAAEBAAAADwBBAGQAbwBiAGUAIABQAGgAbwB0AG8AcwBoAG8AcAAAABcAQQBkAG8AYgBlACAAUABoAG8AdABvAHMAaABvAHAAIABDAEMAIAAyADAAMQA5AAAAAQA4QklNBAYAAAAAAAcACAABAAEBAP/hQPpodHRwOi8vbnMuYWRvYmUuY29tL3hhcC8xLjAvADw/eHBhY2tldCBiZWdpbj0i77u/IiBpZD0iVzVNME1wQ2VoaUh6cmVTek5UY3prYzlkIj8+IDx4OnhtcG1ldGEgeG1sbnM6eD0iYWRvYmU6bnM6bWV0YS8iIHg6eG1wdGs9IkFkb2JlIFhNUCBDb3JlIDUuNi1jMTQ1IDc5LjE2MzQ5OSwgMjAxOC8wOC8xMy0xNjo0MDoyMiAgICAgICAgIj4gPHJkZjpSREYgeG1sbnM6cmRmPSJodHRwOi8vd3d3LnczLm9yZy8xOTk5LzAyLzIyLXJkZi1zeW50YXgtbnMjIj4gPHJkZjpEZXNjcmlwdGlvbiByZGY6YWJvdXQ9IiIgeG1sbnM6ZGM9Imh0dHA6Ly9wdXJsLm9yZy9kYy9lbGVtZW50cy8xLjEvIiB4bWxuczp4bXA9Imh0dHA6Ly9ucy5hZG9iZS5jb20veGFwLzEuMC8iIHhtbG5zOnhtcE1NPSJodHRwOi8vbnMuYWRvYmUuY29tL3hhcC8xLjAvbW0vIiB4bWxuczpzdFJlZj0iaHR0cDovL25zLmFkb2JlLmNvbS94YXAvMS4wL3NUeXBlL1Jlc291cmNlUmVmIyIgeG1sbnM6c3RFdnQ9Imh0dHA6Ly9ucy5hZG9iZS5jb20veGFwLzEuMC9zVHlwZS9SZXNvdXJjZUV2ZW50IyIgeG1sbnM6aWxsdXN0cmF0b3I9Imh0dHA6Ly9ucy5hZG9iZS5jb20vaWxsdXN0cmF0b3IvMS4wLyIgeG1sbnM6eG1wVFBnPSJodHRwOi8vbnMuYWRvYmUuY29tL3hhcC8xLjAvdC9wZy8iIHhtbG5zOnN0RGltPSJodHRwOi8vbnMuYWRvYmUuY29tL3hhcC8xLjAvc1R5cGUvRGltZW5zaW9ucyMiIHhtbG5zOnhtcEc9Imh0dHA6Ly9ucy5hZG9iZS5jb20veGFwLzEuMC9nLyIgeG1sbnM6cGRmPSJodHRwOi8vbnMuYWRvYmUuY29tL3BkZi8xLjMvIiB4bWxuczpwaG90b3Nob3A9Imh0dHA6Ly9ucy5hZG9iZS5jb20vcGhvdG9zaG9wLzEuMC8iIGRjOmZvcm1hdD0iaW1hZ2UvanBlZyIgeG1wOk1ldGFkYXRhRGF0ZT0iMjAxOS0wNy0xMlQxNjowNDoxNSswMjowMCIgeG1wOk1vZGlmeURhdGU9IjIwMTktMDctMTJUMTY6MDQ6MTUrMDI6MDAiIHhtcDpDcmVhdGVEYXRlPSIyMDE5LTA3LTEyVDE1OjU2OjAwKzAyOjAwIiB4bXA6Q3JlYXRvclRvb2w9IkFkb2JlIFBob3Rvc2hvcCBDQyAyMDE5IChNYWNpbnRvc2gpIiB4bXBNTTpJbnN0YW5jZUlEPSJ4bXAuaWlkOmQzYzdjMmIyLTE4YzUtNGM0MS04Y2I5LTIwYWIwYjU3ODU3ZiIgeG1wTU06RG9jdW1lbnRJRD0iYWRvYmU6ZG9jaWQ6cGhvdG9zaG9wOmVkNmU1MDE2LTgxY2ItZjM0Zi1hYmYyLTQ1YmM0OWYxMTdmMSIgeG1wTU06T3JpZ2luYWxEb2N1bWVudElEPSJ1dWlkOjVEMjA4OTI0OTNCRkRCMTE5MTRBODU5MEQzMTUwOEM4IiB4bXBNTTpSZW5kaXRpb25DbGFzcz0icHJvb2Y6cGRmIiBpbGx1c3RyYXRvcjpTdGFydHVwUHJvZmlsZT0iUHJpbnQiIHhtcFRQZzpIYXNWaXNpYmxlT3ZlcnByaW50PSJGYWxzZSIgeG1wVFBnOkhhc1Zpc2libGVUcmFuc3BhcmVuY3k9IkZhbHNlIiB4bXBUUGc6TlBhZ2VzPSIxIiBwZGY6UHJvZHVjZXI9IkFkb2JlIFBERiBsaWJyYXJ5IDE1LjAwIiBwaG90b3Nob3A6TGVnYWN5SVBUQ0RpZ2VzdD0iMDA5MTE5NkREMkQzNEQ5NDAxNkNGRkFFMjk5MjNDNUUiIHBob3Rvc2hvcDpDb2xvck1vZGU9IjMiIHBob3Rvc2hvcDpJQ0NQcm9maWxlPSJBZG9iZSBSR0IgKDE5OTgpIj4gPGRjOnRpdGxlPiA8cmRmOkFsdD4gPHJkZjpsaSB4bWw6bGFuZz0ieC1kZWZhdWx0Ij5sb2dvX0NsYUNsYV8yQV9jb250b3VyX0RFRjwvcmRmOmxpPiA8L3JkZjpBbHQ+IDwvZGM6dGl0bGU+IDx4bXBNTTpEZXJpdmVkRnJvbSBzdFJlZjppbnN0YW5jZUlEPSJ4bXAuaWlkOmRkZjYzMTgxLTU4NDMtNGQwMS04NjkzLWU5ODM5OWY5MDE5ZiIgc3RSZWY6ZG9jdW1lbnRJRD0ieG1wLmRpZDpkZGY2MzE4MS01ODQzLTRkMDEtODY5My1lOTgzOTlmOTAxOWYiIHN0UmVmOm9yaWdpbmFsRG9jdW1lbnRJRD0idXVpZDo1RDIwODkyNDkzQkZEQjExOTE0QTg1OTBEMzE1MDhDOCIgc3RSZWY6cmVuZGl0aW9uQ2xhc3M9InByb29mOnBkZiIvPiA8eG1wTU06SGlzdG9yeT4gPHJkZjpTZXE+IDxyZGY6bGkgc3RFdnQ6YWN0aW9uPSJzYXZlZCIgc3RFdnQ6aW5zdGFuY2VJRD0ieG1wLmlpZDpmOWFkMDllZS1iOGFkLTQyY2QtODVmOS03YWI3NTczZDA1NmMiIHN0RXZ0OndoZW49IjIwMTktMDYtMjZUMjA6MTA6MDcrMDI6MDAiIHN0RXZ0OnNvZnR3YXJlQWdlbnQ9IkFkb2JlIElsbHVzdHJhdG9yIENDIDIzLjAgKE1hY2ludG9zaCkiIHN0RXZ0OmNoYW5nZWQ9Ii8iLz4gPHJkZjpsaSBzdEV2dDphY3Rpb249InNhdmVkIiBzdEV2dDppbnN0YW5jZUlEPSJ4bXAuaWlkOmMyNThmMTQ1LTBlMzgtNDMwMy1iMDRkLWM3MGQ5NzYwNWNlYyIgc3RFdnQ6d2hlbj0iMjAxOS0wNy0xMlQxNTo1NiswMjowMCIgc3RFdnQ6c29mdHdhcmVBZ2VudD0iQWRvYmUgSWxsdXN0cmF0b3IgQ0MgMjMuMCAoTWFjaW50b3NoKSIgc3RFdnQ6Y2hhbmdlZD0iLyIvPiA8cmRmOmxpIHN0RXZ0OmFjdGlvbj0iY29udmVydGVkIiBzdEV2dDpwYXJhbWV0ZXJzPSJmcm9tIGFwcGxpY2F0aW9uL3Bvc3RzY3JpcHQgdG8gaW1hZ2UvZXBzZiIvPiA8cmRmOmxpIHN0RXZ0OmFjdGlvbj0ic2F2ZWQiIHN0RXZ0Omluc3RhbmNlSUQ9InhtcC5paWQ6ZGRmNjMxODEtNTg0My00ZDAxLTg2OTMtZTk4Mzk5ZjkwMTlmIiBzdEV2dDp3aGVuPSIyMDE5LTA3LTEyVDE1OjU5OjUwKzAyOjAwIiBzdEV2dDpzb2Z0d2FyZUFnZW50PSJBZG9iZSBQaG90b3Nob3AgQ0MgMjAxOSAoTWFjaW50b3NoKSIgc3RFdnQ6Y2hhbmdlZD0iLyIvPiA8cmRmOmxpIHN0RXZ0OmFjdGlvbj0iY29udmVydGVkIiBzdEV2dDpwYXJhbWV0ZXJzPSJmcm9tIGFwcGxpY2F0aW9uL3Bvc3RzY3JpcHQgdG8gaW1hZ2UvanBlZyIvPiA8cmRmOmxpIHN0RXZ0OmFjdGlvbj0iZGVyaXZlZCIgc3RFdnQ6cGFyYW1ldGVycz0iY29udmVydGVkIGZyb20gaW1hZ2UvZXBzZiB0byBpbWFnZS9qcGVnIi8+IDxyZGY6bGkgc3RFdnQ6YWN0aW9uPSJzYXZlZCIgc3RFdnQ6aW5zdGFuY2VJRD0ieG1wLmlpZDphNzI5Njk5Ni00NjFhLTQ4MzItOTliZC01MTZkN2Y3YmNmNzEiIHN0RXZ0OndoZW49IjIwMTktMDctMTJUMTU6NTk6NTArMDI6MDAiIHN0RXZ0OnNvZnR3YXJlQWdlbnQ9IkFkb2JlIFBob3Rvc2hvcCBDQyAyMDE5IChNYWNpbnRvc2gpIiBzdEV2dDpjaGFuZ2VkPSIvIi8+IDxyZGY6bGkgc3RFdnQ6YWN0aW9uPSJzYXZlZCIgc3RFdnQ6aW5zdGFuY2VJRD0ieG1wLmlpZDpkM2M3YzJiMi0xOGM1LTRjNDEtOGNiOS0yMGFiMGI1Nzg1N2YiIHN0RXZ0OndoZW49IjIwMTktMDctMTJUMTY6MDQ6MTUrMDI6MDAiIHN0RXZ0OnNvZnR3YXJlQWdlbnQ9IkFkb2JlIFBob3Rvc2hvcCBDQyAyMDE5IChNYWNpbnRvc2gpIiBzdEV2dDpjaGFuZ2VkPSIvIi8+IDwvcmRmOlNlcT4gPC94bXBNTTpIaXN0b3J5PiA8eG1wVFBnOk1heFBhZ2VTaXplIHN0RGltOnc9IjIxMC4wMDAwMDAiIHN0RGltOmg9IjI5Ny4wMDAwMDAiIHN0RGltOnVuaXQ9Ik1pbGxpbWV0ZXJzIi8+IDx4bXBUUGc6UGxhdGVOYW1lcz4gPHJkZjpTZXE+IDxyZGY6bGk+Q3lhbjwvcmRmOmxpPiA8cmRmOmxpPk1hZ2VudGE8L3JkZjpsaT4gPHJkZjpsaT5ZZWxsb3c8L3JkZjpsaT4gPHJkZjpsaT5CbGFjazwvcmRmOmxpPiA8L3JkZjpTZXE+IDwveG1wVFBnOlBsYXRlTmFtZXM+IDx4bXBUUGc6U3dhdGNoR3JvdXBzPiA8cmRmOlNlcT4gPHJkZjpsaT4gPHJkZjpEZXNjcmlwdGlvbiB4bXBHOmdyb3VwTmFtZT0iU3RhbmRhYXJkc3RhYWxncm9lcCIgeG1wRzpncm91cFR5cGU9IjAiPiA8eG1wRzpDb2xvcmFudHM+IDxyZGY6U2VxPiA8cmRmOmxpIHhtcEc6c3dhdGNoTmFtZT0iV2l0IiB4bXBHOm1vZGU9IkNNWUsiIHhtcEc6dHlwZT0iUFJPQ0VTUyIgeG1wRzpjeWFuPSIwLjAwMDAwMCIgeG1wRzptYWdlbnRhPSIwLjAwMDAwMCIgeG1wRzp5ZWxsb3c9IjAuMDAwMDAwIiB4bXBHOmJsYWNrPSIwLjAwMDAwMCIvPiA8cmRmOmxpIHhtcEc6c3dhdGNoTmFtZT0iWndhcnQiIHhtcEc6bW9kZT0iQ01ZSyIgeG1wRzp0eXBlPSJQUk9DRVNTIiB4bXBHOmN5YW49IjAuMDAwMDAwIiB4bXBHOm1hZ2VudGE9IjAuMDAwMDAwIiB4bXBHOnllbGxvdz0iMC4wMDAwMDAiIHhtcEc6YmxhY2s9IjEwMC4wMDAwMDAiLz4gPHJkZjpsaSB4bXBHOnN3YXRjaE5hbWU9IkNNWUstcm9vZCIgeG1wRzptb2RlPSJDTVlLIiB4bXBHOnR5cGU9IlBST0NFU1MiIHhtcEc6Y3lhbj0iMC4wMDAwMDAiIHhtcEc6bWFnZW50YT0iMTAwLjAwMDAwMCIgeG1wRzp5ZWxsb3c9IjEwMC4wMDAwMDAiIHhtcEc6YmxhY2s9IjAuMDAwMDAwIi8+IDxyZGY6bGkgeG1wRzpzd2F0Y2hOYW1lPSJDTVlLLWdlZWwiIHhtcEc6bW9kZT0iQ01ZSyIgeG1wRzp0eXBlPSJQUk9DRVNTIiB4bXBHOmN5YW49IjAuMDAwMDAwIiB4bXBHOm1hZ2VudGE9IjAuMDAwMDAwIiB4bXBHOnllbGxvdz0iMTAwLjAwMDAwMCIgeG1wRzpibGFjaz0iMC4wMDAwMDAiLz4gPHJkZjpsaSB4bXBHOnN3YXRjaE5hbWU9IkNNWUstZ3JvZW4iIHhtcEc6bW9kZT0iQ01ZSyIgeG1wRzp0eXBlPSJQUk9DRVNTIiB4bXBHOmN5YW49IjEwMC4wMDAwMDAiIHhtcEc6bWFnZW50YT0iMC4wMDAwMDAiIHhtcEc6eWVsbG93PSIxMDAuMDAwMDAwIiB4bXBHOmJsYWNrPSIwLjAwMDAwMCIvPiA8cmRmOmxpIHhtcEc6c3dhdGNoTmFtZT0iQ01ZSy1jeWFhbiIgeG1wRzptb2RlPSJDTVlLIiB4bXBHOnR5cGU9IlBST0NFU1MiIHhtcEc6Y3lhbj0iMTAwLjAwMDAwMCIgeG1wRzptYWdlbnRhPSIwLjAwMDAwMCIgeG1wRzp5ZWxsb3c9IjAuMDAwMDAwIiB4bXBHOmJsYWNrPSIwLjAwMDAwMCIvPiA8cmRmOmxpIHhtcEc6c3dhdGNoTmFtZT0iQ01ZSyBibGF1dyIgeG1wRzptb2RlPSJDTVlLIiB4bXBHOnR5cGU9IlBST0NFU1MiIHhtcEc6Y3lhbj0iMTAwLjAwMDAwMCIgeG1wRzptYWdlbnRhPSIxMDAuMDAwMDAwIiB4bXBHOnllbGxvdz0iMC4wMDAwMDAiIHhtcEc6YmxhY2s9IjAuMDAwMDAwIi8+IDxyZGY6bGkgeG1wRzpzd2F0Y2hOYW1lPSJDTVlLLW1hZ2VudGEiIHhtcEc6bW9kZT0iQ01ZSyIgeG1wRzp0eXBlPSJQUk9DRVNTIiB4bXBHOmN5YW49IjAuMDAwMDAwIiB4bXBHOm1hZ2VudGE9IjEwMC4wMDAwMDAiIHhtcEc6eWVsbG93PSIwLjAwMDAwMCIgeG1wRzpibGFjaz0iMC4wMDAwMDAiLz4gPHJkZjpsaSB4bXBHOnN3YXRjaE5hbWU9IkM9MTUgTT0xMDAgWT05MCBLPTEwIiB4bXBHOm1vZGU9IkNNWUsiIHhtcEc6dHlwZT0iUFJPQ0VTUyIgeG1wRzpjeWFuPSIxNS4wMDAwMDAiIHhtcEc6bWFnZW50YT0iMTAwLjAwMDAwMCIgeG1wRzp5ZWxsb3c9IjkwLjAwMDAwMCIgeG1wRzpibGFjaz0iMTAuMDAwMDAwIi8+IDxyZGY6bGkgeG1wRzpzd2F0Y2hOYW1lPSJDPTAgTT05MCBZPTg1IEs9MCIgeG1wRzptb2RlPSJDTVlLIiB4bXBHOnR5cGU9IlBST0NFU1MiIHhtcEc6Y3lhbj0iMC4wMDAwMDAiIHhtcEc6bWFnZW50YT0iOTAuMDAwMDAwIiB4bXBHOnllbGxvdz0iODUuMDAwMDAwIiB4bXBHOmJsYWNrPSIwLjAwMDAwMCIvPiA8cmRmOmxpIHhtcEc6c3dhdGNoTmFtZT0iQz0wIE09ODAgWT05NSBLPTAiIHhtcEc6bW9kZT0iQ01ZSyIgeG1wRzp0eXBlPSJQUk9DRVNTIiB4bXBHOmN5YW49IjAuMDAwMDAwIiB4bXBHOm1hZ2VudGE9IjgwLjAwMDAwMCIgeG1wRzp5ZWxsb3c9Ijk1LjAwMDAwMCIgeG1wRzpibGFjaz0iMC4wMDAwMDAiLz4gPHJkZjpsaSB4bXBHOnN3YXRjaE5hbWU9IkM9MCBNPTUwIFk9MTAwIEs9MCIgeG1wRzptb2RlPSJDTVlLIiB4bXBHOnR5cGU9IlBST0NFU1MiIHhtcEc6Y3lhbj0iMC4wMDAwMDAiIHhtcEc6bWFnZW50YT0iNTAuMDAwMDAwIiB4bXBHOnllbGxvdz0iMTAwLjAwMDAwMCIgeG1wRzpibGFjaz0iMC4wMDAwMDAiLz4gPHJkZjpsaSB4bXBHOnN3YXRjaE5hbWU9IkM9MCBNPTM1IFk9ODUgSz0wIiB4bXBHOm1vZGU9IkNNWUsiIHhtcEc6dHlwZT0iUFJPQ0VTUyIgeG1wRzpjeWFuPSIwLjAwMDAwMCIgeG1wRzptYWdlbnRhPSIzNS4wMDAwMDAiIHhtcEc6eWVsbG93PSI4NS4wMDAwMDAiIHhtcEc6YmxhY2s9IjAuMDAwMDAwIi8+IDxyZGY6bGkgeG1wRzpzd2F0Y2hOYW1lPSJDPTUgTT0wIFk9OTAgSz0wIiB4bXBHOm1vZGU9IkNNWUsiIHhtcEc6dHlwZT0iUFJPQ0VTUyIgeG1wRzpjeWFuPSI1LjAwMDAwMCIgeG1wRzptYWdlbnRhPSIwLjAwMDAwMCIgeG1wRzp5ZWxsb3c9IjkwLjAwMDAwMCIgeG1wRzpibGFjaz0iMC4wMDAwMDAiLz4gPHJkZjpsaSB4bXBHOnN3YXRjaE5hbWU9IkM9MjAgTT0wIFk9MTAwIEs9MCIgeG1wRzptb2RlPSJDTVlLIiB4bXBHOnR5cGU9IlBST0NFU1MiIHhtcEc6Y3lhbj0iMjAuMDAwMDAwIiB4bXBHOm1hZ2VudGE9IjAuMDAwMDAwIiB4bXBHOnllbGxvdz0iMTAwLjAwMDAwMCIgeG1wRzpibGFjaz0iMC4wMDAwMDAiLz4gPHJkZjpsaSB4bXBHOnN3YXRjaE5hbWU9IkM9NTAgTT0wIFk9MTAwIEs9MCIgeG1wRzptb2RlPSJDTVlLIiB4bXBHOnR5cGU9IlBST0NFU1MiIHhtcEc6Y3lhbj0iNTAuMDAwMDAwIiB4bXBHOm1hZ2VudGE9IjAuMDAwMDAwIiB4bXBHOnllbGxvdz0iMTAwLjAwMDAwMCIgeG1wRzpibGFjaz0iMC4wMDAwMDAiLz4gPHJkZjpsaSB4bXBHOnN3YXRjaE5hbWU9IkM9NzUgTT0wIFk9MTAwIEs9MCIgeG1wRzptb2RlPSJDTVlLIiB4bXBHOnR5cGU9IlBST0NFU1MiIHhtcEc6Y3lhbj0iNzUuMDAwMDAwIiB4bXBHOm1hZ2VudGE9IjAuMDAwMDAwIiB4bXBHOnllbGxvdz0iMTAwLjAwMDAwMCIgeG1wRzpibGFjaz0iMC4wMDAwMDAiLz4gPHJkZjpsaSB4bXBHOnN3YXRjaE5hbWU9IkM9ODUgTT0xMCBZPTEwMCBLPTEwIiB4bXBHOm1vZGU9IkNNWUsiIHhtcEc6dHlwZT0iUFJPQ0VTUyIgeG1wRzpjeWFuPSI4NS4wMDAwMDAiIHhtcEc6bWFnZW50YT0iMTAuMDAwMDAwIiB4bXBHOnllbGxvdz0iMTAwLjAwMDAwMCIgeG1wRzpibGFjaz0iMTAuMDAwMDAwIi8+IDxyZGY6bGkgeG1wRzpzd2F0Y2hOYW1lPSJDPTkwIE09MzAgWT05NSBLPTMwIiB4bXBHOm1vZGU9IkNNWUsiIHhtcEc6dHlwZT0iUFJPQ0VTUyIgeG1wRzpjeWFuPSI5MC4wMDAwMDAiIHhtcEc6bWFnZW50YT0iMzAuMDAwMDAwIiB4bXBHOnllbGxvdz0iOTUuMDAwMDAwIiB4bXBHOmJsYWNrPSIzMC4wMDAwMDAiLz4gPHJkZjpsaSB4bXBHOnN3YXRjaE5hbWU9IkM9NzUgTT0wIFk9NzUgSz0wIiB4bXBHOm1vZGU9IkNNWUsiIHhtcEc6dHlwZT0iUFJPQ0VTUyIgeG1wRzpjeWFuPSI3NS4wMDAwMDAiIHhtcEc6bWFnZW50YT0iMC4wMDAwMDAiIHhtcEc6eWVsbG93PSI3NS4wMDAwMDAiIHhtcEc6YmxhY2s9IjAuMDAwMDAwIi8+IDxyZGY6bGkgeG1wRzpzd2F0Y2hOYW1lPSJDPTgwIE09MTAgWT00NSBLPTAiIHhtcEc6bW9kZT0iQ01ZSyIgeG1wRzp0eXBlPSJQUk9DRVNTIiB4bXBHOmN5YW49IjgwLjAwMDAwMCIgeG1wRzptYWdlbnRhPSIxMC4wMDAwMDAiIHhtcEc6eWVsbG93PSI0NS4wMDAwMDAiIHhtcEc6YmxhY2s9IjAuMDAwMDAwIi8+IDxyZGY6bGkgeG1wRzpzd2F0Y2hOYW1lPSJDPTcwIE09MTUgWT0wIEs9MCIgeG1wRzptb2RlPSJDTVlLIiB4bXBHOnR5cGU9IlBST0NFU1MiIHhtcEc6Y3lhbj0iNzAuMDAwMDAwIiB4bXBHOm1hZ2VudGE9IjE1LjAwMDAwMCIgeG1wRzp5ZWxsb3c9IjAuMDAwMDAwIiB4bXBHOmJsYWNrPSIwLjAwMDAwMCIvPiA8cmRmOmxpIHhtcEc6c3dhdGNoTmFtZT0iQz04NSBNPTUwIFk9MCBLPTAiIHhtcEc6bW9kZT0iQ01ZSyIgeG1wRzp0eXBlPSJQUk9DRVNTIiB4bXBHOmN5YW49Ijg1LjAwMDAwMCIgeG1wRzptYWdlbnRhPSI1MC4wMDAwMDAiIHhtcEc6eWVsbG93PSIwLjAwMDAwMCIgeG1wRzpibGFjaz0iMC4wMDAwMDAiLz4gPHJkZjpsaSB4bXBHOnN3YXRjaE5hbWU9IkM9MTAwIE09OTUgWT01IEs9MCIgeG1wRzptb2RlPSJDTVlLIiB4bXBHOnR5cGU9IlBST0NFU1MiIHhtcEc6Y3lhbj0iMTAwLjAwMDAwMCIgeG1wRzptYWdlbnRhPSI5NS4wMDAwMDAiIHhtcEc6eWVsbG93PSI1LjAwMDAwMCIgeG1wRzpibGFjaz0iMC4wMDAwMDAiLz4gPHJkZjpsaSB4bXBHOnN3YXRjaE5hbWU9IkM9MTAwIE09MTAwIFk9MjUgSz0yNSIgeG1wRzptb2RlPSJDTVlLIiB4bXBHOnR5cGU9IlBST0NFU1MiIHhtcEc6Y3lhbj0iMTAwLjAwMDAwMCIgeG1wRzptYWdlbnRhPSIxMDAuMDAwMDAwIiB4bXBHOnllbGxvdz0iMjUuMDAwMDAwIiB4bXBHOmJsYWNrPSIyNS4wMDAwMDAiLz4gPHJkZjpsaSB4bXBHOnN3YXRjaE5hbWU9IkM9NzUgTT0xMDAgWT0wIEs9MCIgeG1wRzptb2RlPSJDTVlLIiB4bXBHOnR5cGU9IlBST0NFU1MiIHhtcEc6Y3lhbj0iNzUuMDAwMDAwIiB4bXBHOm1hZ2VudGE9IjEwMC4wMDAwMDAiIHhtcEc6eWVsbG93PSIwLjAwMDAwMCIgeG1wRzpibGFjaz0iMC4wMDAwMDAiLz4gPHJkZjpsaSB4bXBHOnN3YXRjaE5hbWU9IkM9NTAgTT0xMDAgWT0wIEs9MCIgeG1wRzptb2RlPSJDTVlLIiB4bXBHOnR5cGU9IlBST0NFU1MiIHhtcEc6Y3lhbj0iNTAuMDAwMDAwIiB4bXBHOm1hZ2VudGE9IjEwMC4wMDAwMDAiIHhtcEc6eWVsbG93PSIwLjAwMDAwMCIgeG1wRzpibGFjaz0iMC4wMDAwMDAiLz4gPHJkZjpsaSB4bXBHOnN3YXRjaE5hbWU9IkM9MzUgTT0xMDAgWT0zNSBLPTEwIiB4bXBHOm1vZGU9IkNNWUsiIHhtcEc6dHlwZT0iUFJPQ0VTUyIgeG1wRzpjeWFuPSIzNS4wMDAwMDAiIHhtcEc6bWFnZW50YT0iMTAwLjAwMDAwMCIgeG1wRzp5ZWxsb3c9IjM1LjAwMDAwMCIgeG1wRzpibGFjaz0iMTAuMDAwMDAwIi8+IDxyZGY6bGkgeG1wRzpzd2F0Y2hOYW1lPSJDPTEwIE09MTAwIFk9NTAgSz0wIiB4bXBHOm1vZGU9IkNNWUsiIHhtcEc6dHlwZT0iUFJPQ0VTUyIgeG1wRzpjeWFuPSIxMC4wMDAwMDAiIHhtcEc6bWFnZW50YT0iMTAwLjAwMDAwMCIgeG1wRzp5ZWxsb3c9IjUwLjAwMDAwMCIgeG1wRzpibGFjaz0iMC4wMDAwMDAiLz4gPHJkZjpsaSB4bXBHOnN3YXRjaE5hbWU9IkM9MCBNPTk1IFk9MjAgSz0wIiB4bXBHOm1vZGU9IkNNWUsiIHhtcEc6dHlwZT0iUFJPQ0VTUyIgeG1wRzpjeWFuPSIwLjAwMDAwMCIgeG1wRzptYWdlbnRhPSI5NS4wMDAwMDAiIHhtcEc6eWVsbG93PSIyMC4wMDAwMDAiIHhtcEc6YmxhY2s9IjAuMDAwMDAwIi8+IDxyZGY6bGkgeG1wRzpzd2F0Y2hOYW1lPSJDPTI1IE09MjUgWT00MCBLPTAiIHhtcEc6bW9kZT0iQ01ZSyIgeG1wRzp0eXBlPSJQUk9DRVNTIiB4bXBHOmN5YW49IjI1LjAwMDAwMCIgeG1wRzptYWdlbnRhPSIyNS4wMDAwMDAiIHhtcEc6eWVsbG93PSI0MC4wMDAwMDAiIHhtcEc6YmxhY2s9IjAuMDAwMDAwIi8+IDxyZGY6bGkgeG1wRzpzd2F0Y2hOYW1lPSJDPTQwIE09NDUgWT01MCBLPTUiIHhtcEc6bW9kZT0iQ01ZSyIgeG1wRzp0eXBlPSJQUk9DRVNTIiB4bXBHOmN5YW49IjQwLjAwMDAwMCIgeG1wRzptYWdlbnRhPSI0NS4wMDAwMDAiIHhtcEc6eWVsbG93PSI1MC4wMDAwMDAiIHhtcEc6YmxhY2s9IjUuMDAwMDAwIi8+IDxyZGY6bGkgeG1wRzpzd2F0Y2hOYW1lPSJDPTUwIE09NTAgWT02MCBLPTI1IiB4bXBHOm1vZGU9IkNNWUsiIHhtcEc6dHlwZT0iUFJPQ0VTUyIgeG1wRzpjeWFuPSI1MC4wMDAwMDAiIHhtcEc6bWFnZW50YT0iNTAuMDAwMDAwIiB4bXBHOnllbGxvdz0iNjAuMDAwMDAwIiB4bXBHOmJsYWNrPSIyNS4wMDAwMDAiLz4gPHJkZjpsaSB4bXBHOnN3YXRjaE5hbWU9IkM9NTUgTT02MCBZPTY1IEs9NDAiIHhtcEc6bW9kZT0iQ01ZSyIgeG1wRzp0eXBlPSJQUk9DRVNTIiB4bXBHOmN5YW49IjU1LjAwMDAwMCIgeG1wRzptYWdlbnRhPSI2MC4wMDAwMDAiIHhtcEc6eWVsbG93PSI2NS4wMDAwMDAiIHhtcEc6YmxhY2s9IjQwLjAwMDAwMCIvPiA8cmRmOmxpIHhtcEc6c3dhdGNoTmFtZT0iQz0yNSBNPTQwIFk9NjUgSz0wIiB4bXBHOm1vZGU9IkNNWUsiIHhtcEc6dHlwZT0iUFJPQ0VTUyIgeG1wRzpjeWFuPSIyNS4wMDAwMDAiIHhtcEc6bWFnZW50YT0iNDAuMDAwMDAwIiB4bXBHOnllbGxvdz0iNjUuMDAwMDAwIiB4bXBHOmJsYWNrPSIwLjAwMDAwMCIvPiA8cmRmOmxpIHhtcEc6c3dhdGNoTmFtZT0iQz0zMCBNPTUwIFk9NzUgSz0xMCIgeG1wRzptb2RlPSJDTVlLIiB4bXBHOnR5cGU9IlBST0NFU1MiIHhtcEc6Y3lhbj0iMzAuMDAwMDAwIiB4bXBHOm1hZ2VudGE9IjUwLjAwMDAwMCIgeG1wRzp5ZWxsb3c9Ijc1LjAwMDAwMCIgeG1wRzpibGFjaz0iMTAuMDAwMDAwIi8+IDxyZGY6bGkgeG1wRzpzd2F0Y2hOYW1lPSJDPTM1IE09NjAgWT04MCBLPTI1IiB4bXBHOm1vZGU9IkNNWUsiIHhtcEc6dHlwZT0iUFJPQ0VTUyIgeG1wRzpjeWFuPSIzNS4wMDAwMDAiIHhtcEc6bWFnZW50YT0iNjAuMDAwMDAwIiB4bXBHOnllbGxvdz0iODAuMDAwMDAwIiB4bXBHOmJsYWNrPSIyNS4wMDAwMDAiLz4gPHJkZjpsaSB4bXBHOnN3YXRjaE5hbWU9IkM9NDAgTT02NSBZPTkwIEs9MzUiIHhtcEc6bW9kZT0iQ01ZSyIgeG1wRzp0eXBlPSJQUk9DRVNTIiB4bXBHOmN5YW49IjQwLjAwMDAwMCIgeG1wRzptYWdlbnRhPSI2NS4wMDAwMDAiIHhtcEc6eWVsbG93PSI5MC4wMDAwMDAiIHhtcEc6YmxhY2s9IjM1LjAwMDAwMCIvPiA8cmRmOmxpIHhtcEc6c3dhdGNoTmFtZT0iQz00MCBNPTcwIFk9MTAwIEs9NTAiIHhtcEc6bW9kZT0iQ01ZSyIgeG1wRzp0eXBlPSJQUk9DRVNTIiB4bXBHOmN5YW49IjQwLjAwMDAwMCIgeG1wRzptYWdlbnRhPSI3MC4wMDAwMDAiIHhtcEc6eWVsbG93PSIxMDAuMDAwMDAwIiB4bXBHOmJsYWNrPSI1MC4wMDAwMDAiLz4gPHJkZjpsaSB4bXBHOnN3YXRjaE5hbWU9IkM9NTAgTT03MCBZPTgwIEs9NzAiIHhtcEc6bW9kZT0iQ01ZSyIgeG1wRzp0eXBlPSJQUk9DRVNTIiB4bXBHOmN5YW49IjUwLjAwMDAwMCIgeG1wRzptYWdlbnRhPSI3MC4wMDAwMDAiIHhtcEc6eWVsbG93PSI4MC4wMDAwMDAiIHhtcEc6YmxhY2s9IjcwLjAwMDAwMCIvPiA8cmRmOmxpIHhtcEc6c3dhdGNoTmFtZT0iQz05NiBNPTYxIFk9MTIgSz00NSIgeG1wRzp0eXBlPSJQUk9DRVNTIiB4bXBHOnRpbnQ9IjEwMC4wMDAwMDAiIHhtcEc6bW9kZT0iQ01ZSyIgeG1wRzpjeWFuPSI5NS45NTE4MTkiIHhtcEc6bWFnZW50YT0iNjEuMTY5NjEyIiB4bXBHOnllbGxvdz0iMTIuMjU4NDIyIiB4bXBHOmJsYWNrPSI0NC45ODUzMzAiLz4gPHJkZjpsaSB4bXBHOnN3YXRjaE5hbWU9IkM9MjggTT0xNSBZPTEwIEs9MSIgeG1wRzp0eXBlPSJQUk9DRVNTIiB4bXBHOnRpbnQ9IjEwMC4wMDAwMDAiIHhtcEc6bW9kZT0iQ01ZSyIgeG1wRzpjeWFuPSIyOC4xMzI5ODciIHhtcEc6bWFnZW50YT0iMTUuMDM0NzA1IiB4bXBHOnllbGxvdz0iOS43NTM2MzMiIHhtcEc6YmxhY2s9IjEuMTAzNzc3Ii8+IDwvcmRmOlNlcT4gPC94bXBHOkNvbG9yYW50cz4gPC9yZGY6RGVzY3JpcHRpb24+IDwvcmRmOmxpPiA8cmRmOmxpPiA8cmRmOkRlc2NyaXB0aW9uIHhtcEc6Z3JvdXBOYW1lPSJHcmlqc3dhYXJkZW4iIHhtcEc6Z3JvdXBUeXBlPSIxIj4gPHhtcEc6Q29sb3JhbnRzPiA8cmRmOlNlcT4gPHJkZjpsaSB4bXBHOnN3YXRjaE5hbWU9IkM9MCBNPTAgWT0wIEs9MTAwIiB4bXBHOm1vZGU9IkNNWUsiIHhtcEc6dHlwZT0iUFJPQ0VTUyIgeG1wRzpjeWFuPSIwLjAwMDAwMCIgeG1wRzptYWdlbnRhPSIwLjAwMDAwMCIgeG1wRzp5ZWxsb3c9IjAuMDAwMDAwIiB4bXBHOmJsYWNrPSIxMDAuMDAwMDAwIi8+IDxyZGY6bGkgeG1wRzpzd2F0Y2hOYW1lPSJDPTAgTT0wIFk9MCBLPTkwIiB4bXBHOm1vZGU9IkNNWUsiIHhtcEc6dHlwZT0iUFJPQ0VTUyIgeG1wRzpjeWFuPSIwLjAwMDAwMCIgeG1wRzptYWdlbnRhPSIwLjAwMDAwMCIgeG1wRzp5ZWxsb3c9IjAuMDAwMDAwIiB4bXBHOmJsYWNrPSI4OS45OTk0MDAiLz4gPHJkZjpsaSB4bXBHOnN3YXRjaE5hbWU9IkM9MCBNPTAgWT0wIEs9ODAiIHhtcEc6bW9kZT0iQ01ZSyIgeG1wRzp0eXBlPSJQUk9DRVNTIiB4bXBHOmN5YW49IjAuMDAwMDAwIiB4bXBHOm1hZ2VudGE9IjAuMDAwMDAwIiB4bXBHOnllbGxvdz0iMC4wMDAwMDAiIHhtcEc6YmxhY2s9Ijc5Ljk5ODgwMCIvPiA8cmRmOmxpIHhtcEc6c3dhdGNoTmFtZT0iQz0wIE09MCBZPTAgSz03MCIgeG1wRzptb2RlPSJDTVlLIiB4bXBHOnR5cGU9IlBST0NFU1MiIHhtcEc6Y3lhbj0iMC4wMDAwMDAiIHhtcEc6bWFnZW50YT0iMC4wMDAwMDAiIHhtcEc6eWVsbG93PSIwLjAwMDAwMCIgeG1wRzpibGFjaz0iNjkuOTk5NzAwIi8+IDxyZGY6bGkgeG1wRzpzd2F0Y2hOYW1lPSJDPTAgTT0wIFk9MCBLPTYwIiB4bXBHOm1vZGU9IkNNWUsiIHhtcEc6dHlwZT0iUFJPQ0VTUyIgeG1wRzpjeWFuPSIwLjAwMDAwMCIgeG1wRzptYWdlbnRhPSIwLjAwMDAwMCIgeG1wRzp5ZWxsb3c9IjAuMDAwMDAwIiB4bXBHOmJsYWNrPSI1OS45OTkxMDAiLz4gPHJkZjpsaSB4bXBHOnN3YXRjaE5hbWU9IkM9MCBNPTAgWT0wIEs9NTAiIHhtcEc6bW9kZT0iQ01ZSyIgeG1wRzp0eXBlPSJQUk9DRVNTIiB4bXBHOmN5YW49IjAuMDAwMDAwIiB4bXBHOm1hZ2VudGE9IjAuMDAwMDAwIiB4bXBHOnllbGxvdz0iMC4wMDAwMDAiIHhtcEc6YmxhY2s9IjUwLjAwMDAwMCIvPiA8cmRmOmxpIHhtcEc6c3dhdGNoTmFtZT0iQz0wIE09MCBZPTAgSz00MCIgeG1wRzptb2RlPSJDTVlLIiB4bXBHOnR5cGU9IlBST0NFU1MiIHhtcEc6Y3lhbj0iMC4wMDAwMDAiIHhtcEc6bWFnZW50YT0iMC4wMDAwMDAiIHhtcEc6eWVsbG93PSIwLjAwMDAwMCIgeG1wRzpibGFjaz0iMzkuOTk5NDAwIi8+IDxyZGY6bGkgeG1wRzpzd2F0Y2hOYW1lPSJDPTAgTT0wIFk9MCBLPTMwIiB4bXBHOm1vZGU9IkNNWUsiIHhtcEc6dHlwZT0iUFJPQ0VTUyIgeG1wRzpjeWFuPSIwLjAwMDAwMCIgeG1wRzptYWdlbnRhPSIwLjAwMDAwMCIgeG1wRzp5ZWxsb3c9IjAuMDAwMDAwIiB4bXBHOmJsYWNrPSIyOS45OTg4MDAiLz4gPHJkZjpsaSB4bXBHOnN3YXRjaE5hbWU9IkM9MCBNPTAgWT0wIEs9MjAiIHhtcEc6bW9kZT0iQ01ZSyIgeG1wRzp0eXBlPSJQUk9DRVNTIiB4bXBHOmN5YW49IjAuMDAwMDAwIiB4bXBHOm1hZ2VudGE9IjAuMDAwMDAwIiB4bXBHOnllbGxvdz0iMC4wMDAwMDAiIHhtcEc6YmxhY2s9IjE5Ljk5OTcwMCIvPiA8cmRmOmxpIHhtcEc6c3dhdGNoTmFtZT0iQz0wIE09MCBZPTAgSz0xMCIgeG1wRzptb2RlPSJDTVlLIiB4bXBHOnR5cGU9IlBST0NFU1MiIHhtcEc6Y3lhbj0iMC4wMDAwMDAiIHhtcEc6bWFnZW50YT0iMC4wMDAwMDAiIHhtcEc6eWVsbG93PSIwLjAwMDAwMCIgeG1wRzpibGFjaz0iOS45OTkxMDAiLz4gPHJkZjpsaSB4bXBHOnN3YXRjaE5hbWU9IkM9MCBNPTAgWT0wIEs9NSIgeG1wRzptb2RlPSJDTVlLIiB4bXBHOnR5cGU9IlBST0NFU1MiIHhtcEc6Y3lhbj0iMC4wMDAwMDAiIHhtcEc6bWFnZW50YT0iMC4wMDAwMDAiIHhtcEc6eWVsbG93PSIwLjAwMDAwMCIgeG1wRzpibGFjaz0iNC45OTg4MDAiLz4gPC9yZGY6U2VxPiA8L3htcEc6Q29sb3JhbnRzPiA8L3JkZjpEZXNjcmlwdGlvbj4gPC9yZGY6bGk+IDxyZGY6bGk+IDxyZGY6RGVzY3JpcHRpb24geG1wRzpncm91cE5hbWU9IkhlbGRlcmUga2xldXJlbiIgeG1wRzpncm91cFR5cGU9IjEiPiA8eG1wRzpDb2xvcmFudHM+IDxyZGY6U2VxPiA8cmRmOmxpIHhtcEc6c3dhdGNoTmFtZT0iQz0wIE09MTAwIFk9MTAwIEs9MCIgeG1wRzptb2RlPSJDTVlLIiB4bXBHOnR5cGU9IlBST0NFU1MiIHhtcEc6Y3lhbj0iMC4wMDAwMDAiIHhtcEc6bWFnZW50YT0iMTAwLjAwMDAwMCIgeG1wRzp5ZWxsb3c9IjEwMC4wMDAwMDAiIHhtcEc6YmxhY2s9IjAuMDAwMDAwIi8+IDxyZGY6bGkgeG1wRzpzd2F0Y2hOYW1lPSJDPTAgTT03NSBZPTEwMCBLPTAiIHhtcEc6bW9kZT0iQ01ZSyIgeG1wRzp0eXBlPSJQUk9DRVNTIiB4bXBHOmN5YW49IjAuMDAwMDAwIiB4bXBHOm1hZ2VudGE9Ijc1LjAwMDAwMCIgeG1wRzp5ZWxsb3c9IjEwMC4wMDAwMDAiIHhtcEc6YmxhY2s9IjAuMDAwMDAwIi8+IDxyZGY6bGkgeG1wRzpzd2F0Y2hOYW1lPSJDPTAgTT0xMCBZPTk1IEs9MCIgeG1wRzptb2RlPSJDTVlLIiB4bXBHOnR5cGU9IlBST0NFU1MiIHhtcEc6Y3lhbj0iMC4wMDAwMDAiIHhtcEc6bWFnZW50YT0iMTAuMDAwMDAwIiB4bXBHOnllbGxvdz0iOTUuMDAwMDAwIiB4bXBHOmJsYWNrPSIwLjAwMDAwMCIvPiA8cmRmOmxpIHhtcEc6c3dhdGNoTmFtZT0iQz04NSBNPTEwIFk9MTAwIEs9MCIgeG1wRzptb2RlPSJDTVlLIiB4bXBHOnR5cGU9IlBST0NFU1MiIHhtcEc6Y3lhbj0iODUuMDAwMDAwIiB4bXBHOm1hZ2VudGE9IjEwLjAwMDAwMCIgeG1wRzp5ZWxsb3c9IjEwMC4wMDAwMDAiIHhtcEc6YmxhY2s9IjAuMDAwMDAwIi8+IDxyZGY6bGkgeG1wRzpzd2F0Y2hOYW1lPSJDPTEwMCBNPTkwIFk9MCBLPTAiIHhtcEc6bW9kZT0iQ01ZSyIgeG1wRzp0eXBlPSJQUk9DRVNTIiB4bXBHOmN5YW49IjEwMC4wMDAwMDAiIHhtcEc6bWFnZW50YT0iOTAuMDAwMDAwIiB4bXBHOnllbGxvdz0iMC4wMDAwMDAiIHhtcEc6YmxhY2s9IjAuMDAwMDAwIi8+IDxyZGY6bGkgeG1wRzpzd2F0Y2hOYW1lPSJDPTYwIE09OTAgWT0wIEs9MCIgeG1wRzptb2RlPSJDTVlLIiB4bXBHOnR5cGU9IlBST0NFU1MiIHhtcEc6Y3lhbj0iNjAuMDAwMDAwIiB4bXBHOm1hZ2VudGE9IjkwLjAwMDAwMCIgeG1wRzp5ZWxsb3c9IjAuMDAzMTAwIiB4bXBHOmJsYWNrPSIwLjAwMzEwMCIvPiA8L3JkZjpTZXE+IDwveG1wRzpDb2xvcmFudHM+IDwvcmRmOkRlc2NyaXB0aW9uPiA8L3JkZjpsaT4gPC9yZGY6U2VxPiA8L3htcFRQZzpTd2F0Y2hHcm91cHM+IDwvcmRmOkRlc2NyaXB0aW9uPiA8L3JkZjpSREY+IDwveDp4bXBtZXRhPiAgICAgICAgICAgICAgICAgICAgICAgICAgICAgICAgICAgICAgICAgICAgICAgICAgICAgICAgICAgICAgICAgICAgICAgICAgICAgICAgICAgICAgICAgICAgICAgICAgICAgICAgICAgICAgICAgICAgICAgICAgICAgICAgICAgICAgICAgICAgICAgICAgICAgICAgICAgICAgICAgICAgICAgICAgICAgICAgICAgICAgICAgICAgICAgICAgICAgICAgICAgICAgICAgICAgICAgICAgICAgICAgICAgICAgICAgICAgICAgICAgICAgICAgICAgICAgICAgICAgICAgICAgICAgICAgICAgICAgICAgICAgICAgICAgICAgICAgICAgICAgICAgICAgICAgICAgICAgICAgICAgICAgICAgICAgICAgICAgICAgICAgICAgICAgICAgICAgICAgICAgICAgICAgICAgICAgICAgICAgICAgICAgICAgICAgICAgICAgICAgICAgICAgICAgICAgICAgICAgICAgICAgICAgICAgICAgICAgICAgICAgICAgICAgICAgICAgICAgICAgICAgICAgICAgICAgICAgICAgICAgICAgICAgICAgICAgICAgICAgICAgICAgICAgICAgICAgICAgICAgICAgICAgICAgICAgICAgICAgICAgICAgICAgICAgICAgICAgICAgICAgICAgICAgICAgICAgICAgICAgICAgICAgICAgICAgICAgICAgICAgICAgICAgICAgICAgICAgICAgICAgICAgICAgICAgICAgICAgICAgICAgICAgICAgICAgICAgICAgICAgICAgICAgICAgICAgICAgICAgICAgICAgICAgICAgICAgICAgICAgICAgICAgICAgICAgICAgICAgICAgICAgICAgICAgICAgICAgICAgICAgICAgICAgICAgICAgICAgICAgICAgICAgICAgICAgICAgICAgICAgICAgICAgICAgICAgICAgICAgICAgICAgICAgICAgICAgICAgICAgICAgICAgICAgICAgICAgICAgICAgICAgICAgICAgICAgICAgICAgICAgICAgICAgICAgICAgICAgICAgICAgICAgICAgICAgICAgICAgICAgICAgICAgICAgICAgICAgICAgICAgICAgICAgICAgICAgICAgICAgICAgICAgICAgICAgICAgICAgICAgICAgICAgICAgICAgICAgICAgICAgICAgICAgICAgICAgICAgICAgICAgICAgICAgICAgICAgICAgICAgICAgICAgICAgICAgICAgICAgICAgICAgICAgICAgICAgICAgICAgICAgICAgICAgICAgICAgICAgICAgICAgICAgICAgICAgICAgICAgICAgICAgICAgICAgICAgICAgICAgICAgICAgICAgICAgICAgICAgICAgICAgICAgICAgICAgICAgICAgICAgICAgICAgICAgICAgICAgICAgICAgICAgICAgICAgICAgICAgICAgICAgICAgICAgICAgICAgICAgICAgICAgICAgICAgICAgICAgICAgICAgICAgICAgICAgICAgICAgICAgICAgICAgICAgICAgICAgICAgICAgICAgICAgICAgICAgICAgICAgICAgICAgICAgICAgICAgICAgICAgICAgICAgICAgICAgICAgICAgICAgICAgICAgICAgICAgICAgICAgICAgICAgICAgICAgICAgICAgICAgICAgICAgICAgICAgICAgICAgICAgICAgICAgICAgICAgICAgICAgICAgICAgICAgICAgICAgICAgICAgICAgICAgICAgICAgICAgICAgICAgICAgICAgICAgICAgICAgICAgICAgICAgICAgICAgICAgICAgICAgICAgICAgICAgICAgICAgICAgICAgICAgICAgICAgICAgICAgICAgICAgICAgICAgICAgICAgICAgICAgICAgICAgICAgICAgICAgICAgICAgICAgICAgICAgICAgICAgICAgICAgICAgICAgICAgICAgICAgICAgICAgICAgICAgICAgICAgICAgICAgICAgICAgICAgICAgICAgICAgICAgICAgICAgICAgICAgICAgICAgICAgICAgICAgICAgICAgICAgICAgICAgICAgICAgICAgICAgICAgICAgICAgICAgICAgICAgICAgICAgICAgICAgICAgICAgICAgICAgICAgICAgICAgICAgICAgICAgICAgICAgICAgICAgICAgICAgICAgICAgICAgICAgICAgICAgICAgICAgICAgICAgICAgICAgICAgICAgICAgICAgICAgICAgICAgICAgICAgICAgICAgICAgICAgICAgICAgICAgICAgICAgICAgICAgICAgICAgICAgICAgICAgICAgICAgICAgICAgICAgICAgICAgICAgICAgICAgICAgICAgICAgICAgICAgICAgICAgICAgICAgICAgICAgICAgICAgICAgICAgICAgICAgICAgICAgICAgICAgICAgICAgICAgICAgICAgICAgICAgICAgICAgICAgICAgICAgICAgICAgICAgICAgIDw/eHBhY2tldCBlbmQ9InciPz7/4gJASUNDX1BST0ZJTEUAAQEAAAIwQURCRQIQAABtbnRyUkdCIFhZWiAHzwAGAAMAAAAAAABhY3NwQVBQTAAAAABub25lAAAAAAAAAAAAAAAAAAAAAQAA9tYAAQAAAADTLUFEQkUAAAAAAAAAAAAAAAAAAAAAAAAAAAAAAAAAAAAAAAAAAAAAAAAAAAAAAAAAAAAAAApjcHJ0AAAA/AAAADJkZXNjAAABMAAAAGt3dHB0AAABnAAAABRia3B0AAABsAAAABRyVFJDAAABxAAAAA5nVFJDAAAB1AAAAA5iVFJDAAAB5AAAAA5yWFlaAAAB9AAAABRnWFlaAAACCAAAABRiWFlaAAACHAAAABR0ZXh0AAAAAENvcHlyaWdodCAxOTk5IEFkb2JlIFN5c3RlbXMgSW5jb3Jwb3JhdGVkAAAAZGVzYwAAAAAAAAARQWRvYmUgUkdCICgxOTk4KQAAAAAAAAAAAAAAAAAAAAAAAAAAAAAAAAAAAAAAAAAAAAAAAAAAAAAAAAAAAAAAAAAAAAAAAAAAAAAAAAAAAAAAAAAAAAAAAAAAAAAAAAAAWFlaIAAAAAAAAPNRAAEAAAABFsxYWVogAAAAAAAAAAAAAAAAAAAAAGN1cnYAAAAAAAAAAQIzAABjdXJ2AAAAAAAAAAECMwAAY3VydgAAAAAAAAABAjMAAFhZWiAAAAAAAACcGAAAT6UAAAT8WFlaIAAAAAAAADSNAACgLAAAD5VYWVogAAAAAAAAJjEAABAvAAC+nP/uAA5BZG9iZQBkQAAAAAH/2wCEAAEBAQEBAQEBAQEBAQEBAQEBAQEBAQEBAQEBAQEBAQEBAQEBAQEBAQEBAQECAgICAgICAgICAgMDAwMDAwMDAwMBAQEBAQEBAQEBAQICAQICAwMDAwMDAwMDAwMDAwMDAwMDAwMDAwMDAwMDAwMDAwMDAwMDAwMDAwMDAwMDAwMDA//AABEIADIAMgMBEQACEQEDEQH/3QAEAAf/xACxAAACAgIDAAAAAAAAAAAAAAAHCAYKBAUBAgkBAAEEAwEAAAAAAAAAAAAAAAUABAYIAQMHAhAAAAYBAQQFCAYGCwAAAAAAAQIDBAUGBwgAETESIRMzFDVBUWFxgTIVCaHBIiNTRfBikjTVFkJSguJDYyREVISWEQACAQMDAgMECQIDCQAAAAABAgMRBAUAIRIxBkFRE/CBIjJhcZHB0UIjFAehsVJicvGCstIzkyQVF//aAAwDAQACEQMRAD8ArkruHHXrlBdftlChvWVMI7jiAbzGMIiPrHp2uRtttqszE1PxeOiJSMa2+8LRYMUpYqU6q6RrrSPj3c1ZLc4ZJrqumtOrzdZuvNqJlaKgCoqooqHSUIgK6yZkQazXcUPIVFRSpJoBX/EfD/ZXbT+1sJ7nixLBDWlASzUG/EDrT8ab6I8njeFrzSgvQc1x8xvE3XGaj2VuNlsVmrFas7du7j79PUWnRsOZ3VAbd+KqaPM+WaPIpyzddU4FAFtNvJdXks0NrBNNOik8Yo+VSD06MQfGrBQQQRUVptyIxeHtra7yl9bWtnI4AkuZ1iADDY/EY1I8KBjQght6V2K2NodWRg406MA0WmZrJMYs6l5uzUlrCxtFalc1yaWc/EZpJw7yiVFwSFaHaiB1CJ8x+RQ5i7rqLKWA5ZDG3dutFI9WJkryO4HNU6VBO/Q+Yppvi7/trPuY+3+4cZkXBYH9tdRzFQOhIikloWowFR8wpuCSIfbMLWmIUdDCEnXarN23j3ELJEIs9UknFYhLkEbAT8cCUHZ5BCv2Fo4UZgmyfpFXTKKB1FUyG1Q30bUDlaeY+sipHUCvjuNia6eXOKmQM0PM08D18DQHYMadQKGpApoGd6cCA/6hfy9AqKgYDFMJTlMQR5inIYBASiG8BAQEAEN2xAU66D1YHcmvv1uOvX/Gd+E9Z+9L8fN2nufq+56NvFB/XXvkfM/L7e3TX//Qr7VWIhXco+mrUcE6lAyEeEsUTLgMm8lpEWkZEADIO/namIku8f8AdgFwWNZLgnuVOkO1wZ3ZVEcYJkb+g8T5fQK+JFdtVwto4mdpZ3AgQitTSpJoB5+FTTcgGm+nBCch8fwslkGdsK6EZNEWxjNBh+5qOK3qjcUSaQlqy+x0aYhUi44rNQbCzGXmUGhAhXzdp8Hbs351U1HFhjLOK0tsxm7VpbeVi1rbn4Gl4ErI8sinktsGqjFTznfnGjgK0ihs33Blb3K3/afZ2Rjtr61jjGRv+ImS09VBJDBawPSOXIyRESoJAYbSEwzzRv6iwkAP9SuWSFOyoksxw1X+dYzev4kZFq5ykcH61UZa3qd8vtmdqqfbVcP5NYyihjGApebcBSTOZmWJLcZB4LRSKQ29IIVoKCiRcamnV3LO25ZiSdBbXsjs+0upcgcDFeZaQEPd35N9dyAtyIaa69TitaUiiVIkAVUUKqgGbCEV8wvN0DdrRhao531D0nHSBlsgArS3GaqNEkMzM8PHzEdbI6dYPJJWMAy4s2fNIAh94UpQ6dhc3eNzh5Et5e6JoHmHHi85KuCejJIxVlrStVI0Vb+OO3O4Yv3E3YeOuFt3Dq62kcciOoIDRSwJHKkgBIBRwRXxBI1ta7Oo5EjGlGLT7VjeYiXUVe73gOOPMV+PyPj2Mm3Fss9gwopa2yk9AOygqrMSFfdnftTuWKEuyVUGOIkxeR21l3IZWx1tFF3PR2RYwBBdECpVIhQQ3KgErGn6c61jjWOQgSMbjIZb+PP23/vMjcXX8cc4o5ZZ3Z73F8m4LJPc7teY53KrLPMBcWTUnmkmtwzQLvlklGss1a7FjmcWsbOvySKcrOKxTiAStsJJuRbx1wioqRcOpgzWFkFU4hd4/wCqkpdv3SUeoN3Tl0kQFZNMscSzJQONvGn0bbVI3oNl3ANAKzjJR20ks720lWjPxeFf8wruQDsT+aoJ3J0K/Z+Tbv6XD9nZ9+Ohfu/Jr//Rr+SDB2+iKDUYwTke2ywysmsQB96UnLAlS4B0A9P7pGxynJ5PvjjxNtcqws5MjkbeyioJZpY4VPkZGVQfcWqfqGqv57L2/b3b+Szd2CbSytLm7kXwZbeN5CvvEZA/1E9dTHUXLN3OWJ+qw5ikqGJCJYdpDNExu6NYGgqLRsg8QIYREi1ktQSEm4HpE6rrygUoASzdzHeZe/lgTjaRv6MK1rwhh/SjUGgr8K8iabsxY7nUf7Lxlxh+08FaXs/q5WaL93dycSnrXl5/5NzKVq1CXk4BangiKg2XQNUUImQx1DlIQgCY5zmAhSB5TGOO4gB6REA2Fk7EnYakwq1FAqSaADqSegH06tTfLQxfVF8AaIdTGqWQc6VsOfLytGo3KgLZLhHbavai4jM0xHDjPVbjuqQ6hLtL2nBWYLdW4GYlpaFe1x5FBCJNng9W4bByTuW5kGQzVljV/c3N6saUU09IoKyROxPFVkiWUqKhwxlbjQq2uq4C3YY/ES3g9GO3LN8QqXDVCMtN6q5SpowIEYBryAEXzgrLI03HFXylI6ma5qnu+Vtcl8z/AKMskVeYi8gutO2Ha1V13OatOEvlSEtFxrD+vxGQrjTiRNajpB60bMmizo6Ed3sWZyHZgmF+VtLKSza1toxIKenymUr6MyoQrcv05S0jKCSwX4wlQP7ta0OOWK9lju7e6lkFDRg0EgYTRFqkcSrooUGlFrsWprxPyHDQMHqBXTgWxY2kZdr8Fa4+JQUKdFjXM4U9CaPBonDd93DWGSECdAGIduXgIbdh7oVJLxclFEEjvLeK7C7UDSD9UCgAAMySkAABVIUdNcM/jOSS2xE3bdzdNNNhr+5xTOS1Xityv7UsWLMzLZy2yM7Es7oXJqx0vfVSH9X8i7r7oeKfgcPo2D1+rUyofJvl+j7Pr/p9Gv/S8DiTBYCUw1dFSgdvAyyYuSByiUhaVkRSSdAcBDlAxo6TSU3DxKYB2urgb2PHZ3GX0oPpQXsErf6VdCx+xTqpPfeGuO4ux+6MJa0N1f4e+tkGxrJJBMkYodt2dQa+ejC605ZHzJq+vmCcYNIN9bLDfLzZIV3cbdWce1hKmPgdZBTt05brjJxUFFwhKfJpPOYVTrOQOVJskusdNIzLuCRO3rnLJfI4NvcSIQFZmJ9QhaKoY/ECp2BFDXpU6JdnyDu3Dds5HFyI9veY+3lVuQC0aFee5IHwMHUjrVaddtPbnXFGP/lC2yOoViwU91EazXUS+lYzM2oXHz+O0g46JuWhDz2nPDc+mg+1D2StWBN0DW1W/qINNdu3XQg1SCmqpBrK5uu8YzcR34gw9d0iYeu3jSVwT6QIpVI/joSPVHyjoN1DadqcUNmZsmRs8i/pjf8AINuRH+JhQEK3A7nSJ1nW/qOic92rUZdrqpnS95Jq09jvMEXnMry80vMWKrQVp/MGJbzX038T1WPnIxrQ7JjEqxoRC7JsvHmbKt0TkPy9v4x7GKwhg9GKNgyGOisjjo6mhHLrWoIapDhgzAg4u4cnHeSXskolkdSrBqlSvXiRXoOoodvClBSG6htStqz4nRIlal48xJizD1ak61h7BGG4mdhcX48aT78s1bpGIZ2SwWu0TtyyDYUiPZuZlJF9JSK5EUxUKg3bopbcbirfEpcSLK8k8hq8jlebcRsDxVVoo+UKoArWnIsTryOUu81LbxtGqqPhRFBpVj4VJNSaA7k+6gEmysxBlnzHlJVEU3eLqBhqnWMVRAosrBRKQ0n7c0cCPQQYt6VZE28dwCmPSO0u7mLwpiLCVaT22LgjYVBo8nOem3QgTqCOoOx3Gua/xwIb2XvDPW0vKyyXc19cRNQisVuIbHkAwFQXsZCCPhZaOpKkHS4/GVPwvy/+YeA9v/xvV9OwTbyPl7fT9GpxzP8Al6V6+2306//Tr+QKAWZlM0EQIaTfyh56mEUFIhHlnRbmYP6yY6gbust0MUqTUBMBRkWrcnSKu/a38v6bLNSsdKN9Xn7vHwoSdVzgPqK9sGpLy5IdgeXkDSoJoKGtagAeOj9jK0zN3kMTWmmSMRG6qtOsrV3+PmNmbsQjc11qgTKUvU4IQleojHmSqGugZl8NkDE+PwxhaFUKuggieQXtqvdFgTHVswkAiljGz3MKLxWaIinKeOP4Jo/+pIoWZOR9Thz7HX3/AM6yz212PT7Mubt5ra4apix11M/OWyuga+lY3ExMtjcbQQSu9pJ6Q/bmWEanNS2ofU5lKct2pS826y3dpLzIp1OyfEYiKxwaRcIA/rVSob0yaNJi2xI9s2FumiVVRFmgCyipkym2i2LxuPxluLfHwqqgUJHzGhPznqWqTXlvUnXRsrf5G/mWe/ckNuo6oAw6oRUFaU3UkGg30uiiqSRedU5EwEdxec4E3mHgUBMIcxjb9wAAb/NsRJCgljQefQaGKjSMERCznwA391Kmv1DTJUioJ4fQh8yZaie5vWndZ3DeJ5xuKNhyNZU+V3XrhY4FyQHMJietugSfnXfJkGbVTSRQSVbmWPsWsLWKNYsvlIq4xTyjjbZrt1NVjUdRADQzzU4haohLsFMUz2Tu7mS77T7YuwO5ZEKXFwhDR4qFwQ88rbqb1lJWztAfUaU+rII4Y3dRuq9k20RYLtZHiz645TNMpR7lzu727iZeQUUvN0cEMURTbTDshoqPMAhzgZ2Yn2EQERF1cz5C9muLh+czyGSRqUBdiTQAUAFTUACigKBt0lmNx9lgcRZ47Hw+lZw26QQISWZIY1CAlmqWYgUZmNXYszfETWKfwbd7wcf2uG2fx16r/wAGv//UrhOQ3uXAdPbqDv3iUxRBUTAYpiiUSmKYAEolHeAgAgICG1yB01WU1DEg+P36mz2Xh7sidS0uzwN0AoGJd0mjh5F2NygnuaubvHMAGQZz4GIUDTceVQ7gfvHaB1eZwZrwlgIMG6A1ArQqQdip2pTw3FPAgADT71La7DJegByCrNTkrqQQyyKQQQRsdiGBowNSS9qdur9qaIw8nYWV8qjUqbevOsqVGoZr+GxMdKwLNrXUsgmTa5BTmpCsqyTtJYpWkO0k0UGKhASUFwkRHc+RdlfL4yyyMoBq1xGyymtSSZonilejECrySORvXYKY4/8AGuEhjeHtLuXL4C1ZgRHYXEbWoC8VCraXcN1bQ1VT8EEMEQOwUEltZtdlKlSlEXsdGU2myiMzImcuca4fqbOVUgK/dZmCUBtkC4vpSwY9sVlpTFrYoSSbAvGrLLgycC1KokuHl+55OSvje2MXay70YpJO4YgEEC4kmQ8WJX5OQHxCrDWYv44DI8PcH8j9yZK0YDnF69vZROq1BDtj7azn+MAOf1gjGqUVDTSTW1SqNLfZrDPXV3nCZdTUkpHOXDmWFnPtCuTDFzN+sjtb4iqC7cQUVhoxQ4lOIpHeJl3iZrNeZHJyG5vJH/cOAGdzybYUCr4BRSijZVFAFA6GLHFYLt22XHYi3hSwiZjHFEvCOrHkZJD8zyOSWkdi0kjEs7s25GkxLyc/JOpiYdC7kHnVFVWBJFqgi3aokas2LBm1Kk0jouOaJkRatkSERbIEKQhSlDb0kaxqFQbD39fv8/r1iSV5nMkjVY/YB+Hh4eA2prK/g2/+96/T9G3rS/5Nf//VrsLdop4H2huz9zj/AIf+V5vRtcYe/VaW6/k1x5/Bv7XrHhtny1jwPyaxEvEE/AOz/wBt4nwHs/q9G7ZHr7ef9vv0h1Hydfu/v92siU7RHwziHjvb+8HY/Vsh9/h7ddZf/d+U9fbp567h5fBuPs9v6v17L7dY8/k11Hy+D+zh5OHp2X26Xh+TWw/8z4f+n/f2X29fb3a2f9v5fb36/9k=;imageBackground=none;" vertex="1" parent="1">
          <mxGeometry x="844.78" y="140" width="50" height="50" as="geometry" />
        </mxCell>
        <mxCell id="Dko0VYpapwrdr9Fq0hTY-3" value="Pinakes (Oeuvre)" style="shape=image;imageAspect=0;aspect=fixed;verticalLabelPosition=bottom;verticalAlign=top;image=data:image/png,iVBORw0KGgoAAAANSUhEUgAAADIAAAAyCAYAAAAeP4ixAAAACXBIWXMAAA7BAAAOwQG4kWvtAAAAGXRFWHRTb2Z0d2FyZQB3d3cuaW5rc2NhcGUub3Jnm+48GgAABR5JREFUaIHtmm1MU1cYx/9PW2gLpa8gglAQCmJ9G6CCZjLn3KZuzeKSbU5mzIzZ+5zZ6wddxhYTt32RzSUz82WZ20xwzuGyWeYEFZyIpb5BQbHUxlZpgUKB1JYCPfvghjOGCtcmdKS/T829597z/92Tc/qc3EslAMMEQAAAa/a/xWQpqvHOwokeuwvfP/sFCQBAnpoA5dSE8c7ECSIeAIA3zjlCRkQk3IiIhBsTRkTA9cJuawe+LNxMoQyz4fQWpkjn9jfAWUSRnoCNxq3skv4cqrYeIr+nHwDwwKqFmPX0vKDVwuWKC3Rmz3EAgCRRhic+e56p52kQo4rjGoe7CADIpihRsP4RdFna8W8wZXoCyyjSBr2u0+xkAAgAch6fg5xlufcTA0CI5khsfBznei1aIgpFhIkz2SMi4UZEJNyIiIQbEZFwIyISbkREwo2QiHi7bw5vsPqcPffcbHm7PcO/+xzuUETgvh8Z8g/ixgUrHCY7zpfVDh83/lADkVRMUxflsLTCbPAEt55VYDCA6+cs6LzigOHb48OyjeUGSBKkpFkyg6UtyAY/mlskziIeVx/0m8oIABTp8XecMx8zwXzMRGt/focJ427tNwa8/uH20mQFpMmK4fbW2hZYa1to1XevMWmSAlzgLCJNUuClI5tGvaESxonG1H6sRCZ7uBERCTciIiww9gWIDQXgsjjR3mzn2u2IBF1+6/eegPuai6TJCuZze6DKTIRWNxcgYFveB1S8bwNL1KaMujMWYDBXNqJ2x1HaaNwa0qU46IjkFy9C/d5qqAsyUfjyo6gu1VP1tt9BRHhuzyssITt5bJ1F8TFz5fz7CjwSQUeE+DzwBXwAQHSsEGmFWXA22clpsrHeNjdUGh98PV44TNeQPDsddmMrGAO0unwQEQa8flw5ehG+Xi9yluciRim54/7Nh8+CDQWgnp8FSaIMNoMZrlYn0hdOg1wdjyH/IJp+M4IxBnmKCuqCrBGzjnqOeN0eXD15CbOfKWAieSwqPtxPblsnRDIxarbpqab0MMVNlqNuZxWZyg0AgIOv7iaRLAbyFBV+eX3PXcWko8FOvl4vxMpY1O2qREdLG7S6uShbt4P6HG4c+fgAKadOQupcDUyH6oMWo6MSObfvFNV9U0lPla5lOctyIZuihDRJDgAQSWMgV8cja+lMljpPA82SGazT7AQAFL29gqXkZ8LX50VHS9sd92wsNyBtgYblFS8CP0qAmlI98aMFMFc1IEocDeupyxjw+lG3s4p8vR489K4u6JwaVa2Vu3ohmzxDPZqmILr94OxGCxoOGkiry2PEu33c7+mHpbqZBrx+ZBRpGRsKwOv2IGmWGlFiIVZ+tY7FKCWY9tgcdurrP1H24g7KXjoLKz5dPaLMPUeEMQ6LC2M06BuAfvN+evh9HZNMkuG/ItGxQjz5+QvMbXPh7I81ID4PKXkZ6LK2Q5EWD7E8Bq7WNpzcXkGL39Phjb8+YTaDJWiX/MVAScH6JRArYu86WberEs6m69Tf66XJM1Mh/OcVgN1oweWKCzTg6SdpkgyN5fXk6eyjSdnJuHjgNPW2dSOjaDq6LE6ynGgmHp/gam0nvpCPG+etcDTYSK5WIX9NEf746CeKS5Qir/hB1JTq6VrtFXI22SlneS5MvxrJ0WCDs9mOzMVaJE6/e6n3um/izO4qohKAvVm7hf1fv3zoutqB7Qs2U6RECTcmjIgAANy2DjAWGO8snOixuwAAVDJBPjz7G/Y70lfTl3AHAAAAAElFTkSuQmCC;" vertex="1" parent="1">
          <mxGeometry x="964.78" y="315" width="50" height="50" as="geometry" />
        </mxCell>
        <mxCell id="Dko0VYpapwrdr9Fq0hTY-4" value="Gemeinsame Normdatei &#xa;(Deutsche Nationalbibliothek)&#xa;" style="shape=image;imageAspect=0;aspect=fixed;verticalLabelPosition=bottom;verticalAlign=top;image=data:image/svg+xml,PHN2ZyB2aWV3Qm94PSIwIDAgMTIwLjI5IDEzOC45IiB4bWxucz0iaHR0cDovL3d3dy53My5vcmcvMjAwMC9zdmciIGRhdGEtbmFtZT0iRWJlbmUgMSIgaWQ9IkViZW5lXzEiPjxkZWZzPjxzdHlsZT4uY2xzLTF7ZmlsbDojMDA2YWIzO30uY2xzLTJ7ZmlsbDojZmZmO308L3N0eWxlPjwvZGVmcz48dGl0bGU+R05EX1JHQl9XYWJlPC90aXRsZT48cGF0aCBkPSJNMTIwLjI5LDM0LjcydjY5LjQ1TDYwLjE0LDEzOC45LDAsMTA0LjE3VjM0LjcyTDYwLjE0LDBaIiBjbGFzcz0iY2xzLTEiIGlkPSJCbGF1Ii8+PHBhdGggZD0iTTQ1LjMzLDUwLjQxSDU0bDcuNjUsMTRjLjczLDEuMzcsMS4zNiwyLjU3LDEuOSwzLjYybDEuMjIsMi40Yy4yOS41NiwxLDIsMi4xMyw0LjI5bDAsLjEtLjQtMjQuNDNINzVWODguNDlINjYuMzJsLTYuNi0xMmMtLjgzLTEuNDctMS41MS0yLjY4LTItMy42MXMtMS0xLjc4LTEuMzUtMi41NFM1NS41OCw2OC43OSw1NS4yLDY4cy0uOTQtMS45My0xLjY4LTMuNDhsLjI1LDIzLjk1SDQ1LjMzWm0tNi43NCw3LjcxVjUwLjQxaC0xM2EzMS42LDMxLjYsMCwwLDAtNCwuMzUsMTQuNjUsMTQuNjUsMCwwLDAtNC4zMiwxLjQzLDEyLjkyLDEyLjkyLDAsMCwwLTQuMzMsMy42NCwxNy40NCwxNy40NCwwLDAsMC0zLjEsNi42MUEyOS4xOSwyOS4xOSwwLDAsMCw5LDY5Ljc3YTI2Ljg5LDI2Ljg5LDAsMCwwLDEuMTUsOEExNS4zOSwxNS4zOSwwLDAsMCwxMy42OSw4NCwxMi4xOSwxMi4xOSwwLDAsMCwxNyw4Ni41YTE1LjcsMTUuNywwLDAsMCwzLjcxLDEuMzIsMjMuOTIsMjMuOTIsMCwwLDAsMy40OS41MWMxLjA4LjA3LDIuMzUuMTIsMy44Mi4xNkgzOC41OVY2Ny44OEgzMC4yNVY4MC40NUgyNi45MmExNS41MiwxNS41MiwwLDAsMS00LjY1LS41OUE2LjM4LDYuMzgsMCwwLDEsMTksNzcuMDVhOS44Myw5LjgzLDAsMCwxLTEuMzktMy40NSwyMi44MiwyMi44MiwwLDAsMS0uMzUtNC4yLDE2LjU4LDE2LjU4LDAsMCwxLDEtNi4yMSw3LjUzLDcuNTMsMCwwLDEsMi40OS0zLjQsNy43Miw3LjcyLDAsMCwxLDMuMTYtMS4zNywyNC42OSwyNC42OSwwLDAsMSwzLjg5LS4zNWgyLjU0Wk0xMDMuMDgsNjkuNWEyMi44MiwyMi44MiwwLDAsMC0uMzUtNC4yLDkuODgsOS44OCwwLDAsMC0xLjM5LTMuNDZBNi40Miw2LjQyLDAsMCwwLDk4LDU5YTE1LjM4LDE1LjM4LDAsMCwwLTQuNjQtLjZIOTBWODAuODNoMi41M2EyNC44MywyNC44MywwLDAsMCwzLjktLjM1LDcuODgsNy44OCwwLDAsMCwzLjE2LTEuMzgsNy41LDcuNSwwLDAsMCwyLjQ5LTMuMzksMTYuNTgsMTYuNTgsMCwwLDAsMS02LjIxbTguMjUtLjM3YTI5LjI1LDI5LjI1LDAsMCwxLS44NCw3LjMzLDE3LjQ0LDE3LjQ0LDAsMCwxLTMuMSw2LjYxLDEyLjkyLDEyLjkyLDAsMCwxLTQuMzMsMy42NCwxNSwxNSwwLDAsMS00LjMyLDEuNDMsMzEuNiwzMS42LDAsMCwxLTQsLjM1aC0xM1Y1MC40MUg5Mi4yNWMxLjQ3LDAsMi43NC4wOSwzLjgyLjE2YTIzLjkyLDIzLjkyLDAsMCwxLDMuNDkuNTEsMTUuNywxNS43LDAsMCwxLDMuNzEsMS4zMiwxMi41MSwxMi41MSwwLDAsMSwzLjMzLDIuNDgsMTUuNDksMTUuNDksMCwwLDEsMy41OCw2LjI2LDI2Ljg0LDI2Ljg0LDAsMCwxLDEuMTUsOCIgY2xhc3M9ImNscy0yIiBpZD0iR05EIi8+PC9zdmc+;" vertex="1" parent="1">
          <mxGeometry x="364.78" y="150" width="80" height="80" as="geometry" />
        </mxCell>
        <mxCell id="Dko0VYpapwrdr9Fq0hTY-5" value="" style="shape=image;imageAspect=0;aspect=fixed;verticalLabelPosition=bottom;verticalAlign=top;image=data:image/svg+xml,PHN2ZyBoZWlnaHQ9Ijc0NC4wOTAwMyIgd2lkdGg9IjEwNTIuMzYiIHZlcnNpb249IjEuMiIgeG1sbnM9Imh0dHA6Ly93d3cudzMub3JnLzIwMDAvc3ZnIiB2aWV3Qm94PSIwIDAgMTA1Mi4zNiA3NDQuMDkwMDMiPiYjeGE7ICA8cGF0aCBzdHlsZT0iZmlsbDojOTkwMDAwIiBkPSJtIDExOS40MjA3LDU0My4wMTY3OSBoIDI5LjE2Mjc3IFYgNDMuMDUyNDk3IEggMTE5LjQyMDcgViA1NDMuMDE2NzkgeiBtIDYwLjI3MjU2LDAgaCA4OS40MjkyNiBWIDQzLjA1MjQ5NyBIIDE3OS42OTMyNiBWIDU0My4wMTY3OSB6IE0gMjk4LjI5MTM2LDQzLjA1MjQ5NyBWIDU0Mi45OTg5NSBoIDg5LjQyOTI2IFYgNDMuMDUyNDk3IGggLTg5LjQyOTI2IHoiLz4mI3hhOyAgPHBhdGggc3R5bGU9ImZpbGw6IzMzOTk2NiIgZD0ibSA4MzguOTc5MzMsNTQzLjA1MjQgaCAyOS4xNjg4MyBWIDQzLjA1MjQzNyBIIDgzOC45NzkzMyBWIDU0My4wNTI0IHogTSA4OTkuMjU3OTUsNDMuMDUyNDM3IFYgNTQzLjA1MjQgaCAyOS4xNjI3NyBWIDQzLjA1MjQzNyBIIDg5OS4yNTc5NSB6IE0gNDE3Ljg1Mzg3LDU0My4wNTI0NyBoIDI5LjE2Mjc3IFYgNDMuMDUyNDk3IEggNDE3Ljg1Mzg3IFYgNTQzLjA1MjQ3IHogTSA0NzguMTMyNDksNDMuMDUyNDk3IFYgNTQzLjAzNDYzIGggMjkuMTY4ODQgViA0My4wNTI0OTcgaCAtMjkuMTY4ODQgeiIvPiYjeGE7ICA8cGF0aCBzdHlsZT0iZmlsbDojMDA2Njk5IiBkPSJtIDUzNy40MjI0NCw1NDMuMDUyNDcgaCA4OS40NDE0IFYgNDMuMDUyNDk3IGggLTg5LjQ0MTQgViA1NDMuMDUyNDcgeiBtIDExOC41OTgxLDAgaCAzMS4xMDM3MiBWIDQzLjA1MjQ5NyBIIDY1Ni4wMjA1NCBWIDU0My4wNTI0NyB6IE0gNzE2LjI5MzEsNDMuMDUyNDk3IFYgNTQzLjAzNDYzIGggODkuNDI5MjYgViA0My4wNTI0OTcgSCA3MTYuMjkzMSB6Ii8+JiN4YTsgIDxwYXRoIHN0eWxlPSJmaWxsOiM0ODQ4NDg7ZmlsbC1vcGFjaXR5OjE7c3Ryb2tlOm5vbmU7Zm9udC1mYW1pbHk6R2lsbCBTYW5zIE1UIiBkPSJtIDg4My45ODg1OSw1OTguMDg4MTEgNDYuMDE1NjIsMTAzLjY4MzU5IC0yNy43NTc4MSwwIC04LjUzNTE2LC0yMC40ODQzOCAtNDYuMzg2NzIsMCAtNy43MTg3NSwyMC40ODQzOCAtMjcuMzg2NzIsMCA0MS43ODUxNiwtMTAzLjY4MzU5IDI5Ljk4NDM4LDAgbSAyLjA3ODEyLDY1LjA4OTg0IC0xNi42OTkyMiwtNDAuMzAwNzggLTE1LjIxNDg0LDQwLjMwMDc4IDMxLjkxNDA2LDAgbSAtNjAuMjY1NjIsLTY1LjA4OTg0IDAsMTkgLTM3LjU1NDY5LDAgMCw4NC42ODM1OSAtMjUuODI4MTMsMCAwLC04NC42ODM1OSAtMzcuNTU0NjgsMCAwLC0xOSAxMDAuOTM3NSwwIG0gLTEzMy41OTM3NSwwIDQ2LjAxNTYyLDEwMy42ODM1OSAtMjcuNzU3ODEsMCAtOC41MzUxNiwtMjAuNDg0MzggLTQ2LjM4NjcyLDAgLTcuNzE4NzUsMjAuNDg0MzggLTI3LjM4NjcyLDAgNDEuNzg1MTYsLTEwMy42ODM1OSAyOS45ODQzOCwwIG0gMi4wNzgxMiw2NS4wODk4NCAtMTYuNjk5MjIsLTQwLjMwMDc4IC0xNS4yMTQ4NCw0MC4zMDA3OCAzMS45MTQwNiwwIG0gLTE3Ni41NjY0MSwtNjUuMDg5ODQgNDUuNzE4NzUsMCBjIDE3LjY2Mzk5LDEwZS01IDMxLjYxNzEsNC44NDkwNSA0MS44NTkzOCwxNC41NDY4NyAxMC4yOTE1Niw5LjY0ODUyIDE1LjQzNzM5LDIyLjE0MiAxNS40Mzc1LDM3LjQ4MDQ3IC0xLjFlLTQsMTYuMDgwNzYgLTUuMjIwMTYsMjguNzIyNjggLTE1LjY2MDE2LDM3LjkyNTc4IC0xMC4zOTA3MSw5LjE1MzY1IC0yNS4yMzQ0NCwxMy43MzA0NyAtNDQuNTMxMjUsMTMuNzMwNDcgbCAtNDIuODI0MjIsMCAwLC0xMDMuNjgzNTkgbSAyNS44MjgxMywxOSAwLDY1LjY4MzU5IDE2Ljg0NzY2LDAgYyAxMC45MzQ4MywyZS01IDE5LjI5NjgsLTIuOTkzNDcgMjUuMDg1OTMsLTguOTgwNDcgNS43ODg5OCwtNi4wMzY0MiA4LjY4MzUxLC0xMy45Nzc4MiA4LjY4MzYsLTIzLjgyNDIyIC05ZS01LC0xMC4xOTI2NCAtMi45NDQxLC0xOC4yMDgyNiAtOC44MzIwMywtMjQuMDQ2ODcgLTUuODM4NjIsLTUuODg3OTQgLTE0LjI1MDA3LC04LjgzMTk1IC0yNS4yMzQzOCwtOC44MzIwMyBsIC0xNi41NTA3OCwwIG0gLTQ5LjcyNjU2LC0xOSAwLDEwMy42ODM1OSAtMjUuODI4MTMsMCAwLC0xMDMuNjgzNTkgMjUuODI4MTMsMCBtIC00OC45MTAxNiwwIC0zMy43Njk1Myw0OC42ODc1IDQ1Ljc5Mjk3LDU0Ljk5NjA5IC0zMi4zNTkzOCwwIC00MS4wNDI5NywtNDguNjEzMjggMCw0OC42MTMyOCAtMjUuODI4MTIsMCAwLC0xMDMuNjgzNTkgMjUuODI4MTIsMCAwLDQ2LjY4MzU5IDMyLjk1MzEzLC00Ni42ODM1OSAyOC40MjU3OCwwIG0gLTExMS4xMDU0NywwIDAsMTAzLjY4MzU5IC0yNS44MjgxMiwwIDAsLTEwMy42ODM1OSAyNS44MjgxMiwwIG0gLTEyNy4yMTA5NCwzNy40MDYyNSAtMzIuMDYyNSw2Ny42MTMyOCAtMTEuMTMyODEsMCAtNDUuNTcwMzEsLTEwNS4wMTk1MyAyNy4zODY3MiwwIDI0LjQxNzk3LDU3LjI5Njg3IDI2LjY0NDUzLC01Ny4yOTY4NyAyMC43ODEyNSwwIDI2LjY0NDUzLDU3LjI5Njg3IDI0LjI2OTUzLC01Ny4yOTY4NyAyNy4zODY3MiwwIC00NS40MjE4OCwxMDUuMDE5NTMgLTExLjEzMjgxLDAgLTMyLjIxMDk0LC02Ny42MTMyOCIvPiYjeGE7PC9zdmc+;" vertex="1" parent="1">
          <mxGeometry x="190" y="330" width="84.78" height="60" as="geometry" />
        </mxCell>
        <UserObject label="Pleiades Gazetteer" link="https://pleiades.stoa.org/" linkTarget="_blank" id="Dko0VYpapwrdr9Fq0hTY-6">
          <mxCell style="shape=image;imageAspect=0;aspect=fixed;verticalLabelPosition=bottom;verticalAlign=top;image=data:image/png,iVBORw0KGgoAAAANSUhEUgAAASgAAABbCAIAAABPpI+VAAAAGXRFWHRTb2Z0d2FyZQBBZG9iZSBJbWFnZVJlYWR5ccllPAAAdeZJREFUeNrsvQeYpdlZHnjiH+6tW9W5e3pyliZI6lEajTIWQQhLBGGMcUAOgsU2Xq8fr228+Nln15jFrGHBAWMjsAgy2JYBISMRhAISozBBYSRNzjOdu6vqhj+ctO97/qruHoUJPdOyjOtOq1V9694/nP983/d+6f3k1X/vPWLrtfXaen1tX0bIrUXYem29vvaCtyV5W6+t1xNekv9JkZLI/zs3grcldluvrRelDZIgFf6DrKXoUxBKSaG1xBshy99zKoRma8W3Xv9zyxtfiUZO+b7vu951TvaN772xpRiXtTGqLpU2ckP6+Nry8bZeW6+zxJIiWzgRBYSta7umc8pF3y0KpcbWqKJYyGSms86HaAthjJ5MjFUWv9IqxUghFFkC09kJ3tZr6/U/mbzBZEUhkxPT2Tw0rW/mZaGlpljJqjZKFpLAM2qpCmN8hJR5Jd3aycbFqG1Z2dFSra0WCh9TOFI+5DMWvC2Tt/X6Uw4mBSMlRJQp6b5ddAsfXRf7zvugrK7HpSiMhaSFoIRwQqzB14OhE3DwRIc/OmlYv0JPhMK33PpiOpuqohwtTYIxyUIGlRIRX9qMyTy1IG5ZvK3Xn1J5A4xMkoESvHzoe/hwrXChWSyC6yfLS14JZaQaVRJSFgM+40VSSuosP8loCJJzoZJCxzSXQQsJY+iN8j71Piq/gKmMRVmOl/ANpXSPn4WXMJwGcigHCzuA0i0fb+v1p9u4ZUCZdzzMVwpxPlvAchVd55ybJzGRqTRiqqpOqEWSsFW1ULCFRpsoVYSZkgLCmAAgRWTUBYYsJS8VDRR+wj+NtgqeXlpA/JwvrSnbBpaxkzZO500SXVEaGeqi0KNKQ2gLjetJcTCApw3hlsXbev0pkbccmRTBx6brQp+Ea3RKJmmXolOitiZ5j48topj5APw4qiz+vYi+hJHLXx9inBANDRkUimKTtE/RSFEI2LI0g0jicx4eIvzAAHEyWvM3MVapVzLhgGU/91LOnasXcyHUyRryJ2w1Kgp4hFHEDfnb8vG2Xv8jyxulLQXYLO+d87Jphfd9pOEqDUTOi+iWYqRIMDMHQKgqWDcVemx+bXSMXfCAlzbLnhzM5SB7/LfUWokgQmQKAdYv8QeYRAkBgztI6Kl1h3/GaGPCGfDJgAOnVClR4hgpluurTUgzs46zVuPxqK5VYUUKRm7J3dbrfyhhY0QS/ptQIXiXUuh63Xauh2Hz2hgnhbKMNvawQj567nFVJg3JqK0FuORXmzb4AMQIgdG0XTpHMUU2emIjUadonGDlikEcKcv0GK3S1hgTgly43lA6C2Pw/iIGQFLYNCV0L0QfQqfws5DaLOOSQ1qPcXVt3U9n8ARVVW5Bza3X/xDyho2vGLaPKcakQvTOQ+SibwPhoUgGrloB8bDexyBamX0pbRmO1BqOmREyZAQZ4PyVhQ0dJSx7d0bB4AW4hCLn5DJiZVgGgmZwdHwnEltqymd2/nLAxEEIE8/sGP9MpVbJWpi7GHE2rT1esVNihUIslRbLBJoCykJTU7Rbgrf1+vp9AQTS0hA6Gte0CWgyKROcF1r4llZPKw1Z7OllBeA+obDHIUowUzEjxQlwIKOV+IWogwRshHsXtWlCB9m1xsJoBQ3BkfjBp4xcs7dolBERh3X4sNU6hehCwLWELGl9Sq2QO6z1OJ7HmYE8pXSuMApix3Cq1rgSy18EiPscmiGkiYyNADwVVoktqLn1+nqzboOJ4/Z3LsJni22EB0eDk0IhA+BfjD0cqN4F/AeLYgU8N6us7qyFvCnaR3h0NJIyO3YdkKcQI6BOvBkhFcbj4yHpQuVcuk5MFHhICMQFrhpkmUAxwYrGzioHYQ7B9D2MovcwnKqKcOGY5oNFhMWEDey9z24eL45+IPxGRmeITXEJNkWI68kok6JVnQu1FVzZen39yNuwFVODHxadbNreRyMTgKBS2K6uz0BT+Aw36XrpEiKhjC10VLoAvhNi7AO9QAJC4WRaz+mBKtHkMfQhRAdREakC+HO9knC+IGqQGQVpg8TCxkpPZ08zqplcYD5d41DC1KU0vYMfBz8x9h1ETmhdJko4IKcVJjL/xyRgyln0kGurIZZ4F6IJ65dyVgI350Lagppbr68DkeNWFd7F6HvX97FP2NPaqJq9AjL3CgRYEw2hUsCEypsCFi4ZwjnsaaBHAr2UqiRqptRkjj2mKqY6RAgTvDk7lFXiCDhZYXRpZ00r+1AYYj+XgmbIU6WN4EqkAYQw26LC90PoKU6q0JBxgsTD8x5iuoyPQ+wCfTxtIPmK5nMolZGDENJpBBzFQVnyaTIMxbVZuZVA33r9dwpO0mYxsex7D1zmm0XX9zRsRusR0Zv3viOUBD5LGvICASktdq63NuWqFKcNRC5pGEBmA2DmrBTrgoVh3OkCYE8UsJaUXbh8qcFpIM9wCZkmV5C5NolKyrlk0q6EuDoaU2BbRjtZuCKcxYHoNXr4aoECZAXQZ2/wgaLgeSGvwjC+6olTdUa5alOooBfwGzlEZuA34uS4DunpQ25tgq3X10zYGChM/MHBTAEuLlov4FPBDXPYmKkqYzY1brFQLlghegYotCgKxkaA15TssO9zxBIgUKe06Q8O0Ug6ckNkMuRkHP4G2hwHFoK1+Q9QZMEYvzRK19a4pusgYIxF+l7QDUs512foJ0onIlOBjsGT0hjoiF4kF4OIEbZvVBSBkBefh3ibkIYE/uadUrPAyvk4xEpjTjrinkWOyqqtypWt19dC3ljxEYNvYD3aThAcmp4VIaz+MBAgCB/MiXMlrBwMjdG2KoLVRIk5dhmHRBuMCUCooKSIoT1ugKmnOnPYqJNMEks5H8AOA8HGAvwrSF1IeFbBa1XAdnUdRIo2y7lqgIRKFaMqQcByfWXQuWIs8sJVoFsY8EnBbARsIvMDcC55alwazFoYrmG4Slw3TW7O4+daFYJdvI83mZBgJnGrO2Hrda7kbSNSAren73uIleodbI41AGt9lAJiFZ2THTAaI/z4mDamryqgSfhAi1yTolVOgUVGU7IgwNxt1jvKIdOWwyhwvxTBJf7Dx9iyGkVDqIi9jjdinVIpIDHJ0mxR5AIzE0LBhTOlLGBUjQSCZQQHVin0jIQkZtiZrFDCqjlMJU+ftONZ4Ne5ZgF/MxgYQxWgPEIwKQ0F0U4O6iKvwGCgmfTfEMvh7610wtbruQyTZOvDGi7h2Mfmuj5DPmNUCnUJGVIxwMK5bpHo/MA6aMX9baw2cJhcrgLBpqxygVaOULA+i+Zio55k4zxDE2o6BTWzCSwpfKrXGZmm1ClVMv0dIPcRgFGkPjD5To9rvFQYnluYwuVoSoKvGYVlIbQYwRWLsRO54Y6H5Kk7XKIyqiwC+x2idR4aRTe+w2VTndDSmSxQPkWoDEWRY2FaoLMXdY624FcRFyO3oObW61m/uDNZlsGOAIC0hY9928Bc6JggSIRWEB7s7a6VARsvdHCltE62sNYka2CxasobRcUySKJzISRLlfGzj7BBafAPN125jVDo4NvFU1woOa3GXEJSgIplFCp41llGn3xktg2XAbipC8hPrwZZjcG1sHSjwOKyzhiZ04CQis3uuiEOlIbGBcdPCebplYm4hbKAfnEZr4aQeoczuNJY3Dvs9xy/D8JLgcPaoS6GmQlleYAtwdt6PRvnLZuaKIzveobvZNF5hz1eFmVVmSYq7frYOYN9mYLIYT9AzHI0puDx23CTAkMXeqiWpDsE56zzkjKbo4NyqEfJYoWTeoYzNuI0uXVnaHqj+APpuZzvM76HPOBgVjK8Py+srE2RpZRVLBRWT1AYgT9laxSMMrAijlZCnpQuFM/ioshpOQZZaaWyvR3OzhCrjDl9x0ArL8cy+ml7SGE/7wFUFZQK7nYGCVTskZ1rXYY4ygFPs+HjbWHNrdfTBZKD0WEowtGV8Yy/RwODgg1lIFelstVIR8hg7Ncabk7nWDWlDeyMsKyL9LkRHNjNsjaFZsUIGIA49Isy2MnEGO0Dy42z/aK5yf06DGjI5DeCmcIP7h3QHEtD4L95XEfOSUQ4b9HILhstylQGh2VII8JX0QMNarwoszVkA7JAFpU44MoWQh8jECmkIxmWqrAXSEL+2SIbh0jR4GlGdsdaVmezfdbawliTWxRgc+PIq6BCF2KhpdPA28klUbG7j/HVLXq/rdfTMm45RpjDHNDqUfrZNBceW6WD0uyrUansXRunfe/cgP7KwrqikFVtjRxaeOgaMTRJeeAOliHDuTDEJymPjPzlao9Ng4C/TS69YoiTJVwWexjojn5klkps8SIED3ybjwqZVWXpilzenNt5FBvQA/06oE14XkIGNfQisK4Tss2OOoqZGPLdaoiDsEwU0Jlv6hyV7LK2kZvEZJAcKAud4yYuV9LgvhZS1VQBAAGmhQvpfQX1FGUJPROZSFzPNhyivgU1t15PmQxg7VPs4Q7BfunUdqmwAI60PjXJEazr3KxnepkllaosGLaQVP+5Upjhc58bC2TuchO9sL2K8ADrXOiRcvkkDiY34n/083BC2hfBPlOhAfViYLkzDgEDxHyYda6AaYLnSK9QszNA0ZusmOv2PfsJlB5uQAJzGsZwgFpJ05fLKYducKba4QayWIwmNG1YsoENabMJaYNRc1AekMmYhipqHEvkwkx6bvhun2kmcJ0w5jqdiuomV1YwpnXbWaGhRODONsKfW8HbdHvTU0GYjYDYc3HkM5KYZ3PAM48pv+ydMyMKp6p5n+3VPkuwn54Q3nv2D2u4rmxRuGscy+u7edQlg/YQvHqkJYRMi97Jrm2ZKpDaKkNXqipYXGIV60xYfkXnKNKs6cwVCwGDRRulVIfc3yaBT7mPc/4tyHwNMlsYHyQknX6dJHbDdg6hV2kIFIoyt+QFqx2tlo2KGerS98y3MTHBJDiXJCnmJij5ilKYJTzmblZqCd4epZUoF7KczaDKFWY6X1Ig1hUW3qKOuWQM0FN4lYYO3Cy7G49QbSQrE24yZhxrfKgCuymEtjrnA2NZQNgIyHP92rkqGUsZf7dwZplxlLlm9Uu386kXdCdWp2R496l3z5MfWeWu4ZqHega7kLUOET598PH0MdVXkpVTEgTVVRhV5PM8xQVDF7JzxbvwpVfLLkyjKqvPWmSwQ9jryXr6VFqlzvZAOEAHtBYi3RsWTsmmw67BrgyhtBWbb/C+cIu26512vmv6EQBmqWNdKmBJiBwELyk4M13OGWsRKxox0QrZs7oj55wZK6RwMVghNGxTJRi4b1xsIONRFiHmIi1aIQLQANMFW4uLoENXYadoVVgjCibQcHCbBdzlAD9TGMI7mSqy8rHjlYKONc5dP9Af8z42nVfZtQT8ZOMPVg937IE2E75TFxA14EA9IN+Q/87gWPAXlMRcg5KzHEMJztA0O+QYuZPzYjo6ctghKjYB1tjS6WQBN3QQ62Rygfe5SqADHJdGfsv1540KfWLWrzd5b+STFYZZncIAOVB+Oi+Oz9pj0/7QalsVaoydKJ9s+0ChYYe94Zp920bF0Wm73rpNZzuMS7trqcSy/NGdR9bmfY5UPc2rjSvj4vVX74LYrjb9tIHLEOcdC91HWldYOTV4OEzbDjwAL7l0R9OHd938IIG+erI1dCFduXf55ZftOD7vTy6wnQd2jzQqzEXbRw+eWHz83mNyaKo+G4FJizb8o2973l2Hpr/z6YPY/M8oM8uFVtF77oNvOXBBadTBWZyvTmltNJtleO+Sxm3PxNZGuM4/dnI27/m9E72fejF3Yt67Ez2sji9LM07RmNSSpkTOsk5lA1vSOX4CSBYt3DEplzKCw87GibZtq7/5eXvhP00XLs4cTNuJhvJWWF0rtrExFsK2tqKkZpavvnrX42vNb9z8YMgtsT7SXrLmkzYJ9s/iUGQOU9nKQbA8dEqat25lbF93zb6/8PJLbrpqV2Vk50Tj/MMnF/c8Prvr8PRDdx2+67HpCHAwwE31BqJJqFsywiNVoBBv6DXSSFAx61MoYaB4H2JAeK+AJZWywWWUhbJVxxKWVOfQ6DR4+He0NOcOZ+LGIQmXbB/94Gt3X7BjfOavqJ9yr+Cpdx5bXfzBHcfe8bH7cfPb8TX9VQFYzIHkSW0v2Tn+a6++5OKdo9O7MKTfuv3x+49Noe7SM7QbhVbbRnbvyuiN1+/du1w9nW+96+OPQHEUwO1Pbp+FqAuNY37XS/Zfu3/lDGlP7771sSOznm3N6WwUIC573oXztlf/y+svg+D9wR2HOhcztHkqccthBCjgHtBr1qakPTnpxDXnrfyta3efv61++tfwyGpz5+HZFx9Zfc8dh2558Hib1K5aWbIeZCgpUyfkSHQmY1cAL+w7xaCorFJaYemjWFbqvKq4cGLe9ML9u1ae1sr/2w/cM2vcqLDsNmdjgFJmyCayENnBGw1B05GjdzpvIz72N15/5T/59muWKwtx/cjdx6BbL9w9OnDBtgt3jF55+S4c81/+gf3ffvFPbF0ElnlFl7MWUZIXCcaa5c/aJMLQbMfVkN0TaoNjaaOeJjDew5JOfKVyHcwdu5LYc+Q7mdN3OAjsJ9biuh/9vXMUegZgmXVu2oa9y+VHf+TP7BozuT9r3V96Bx4QZEMvlQbC850H9n/bi/YP31pv/I/+9ud/85ZHsKbmq6ju7DnEWeenDY/8wX/wuvPy05o27n/9T5/5L594ZKkqlmr2aDyjCwZcmbVAIx6S/Gtvf9kgIQ8dX/z47945shs8iTg1bPLlO5fe9ILz9qyUP/LuO9718Yfq0pgnt1aJmvXE3G0fm19828tee/Xu4e2/++uf/jd/dC8EEkpEnRVChPY6PnVvfdn5/+ovHMCa/OCv3P57nz+EVf3KR9vgUWawnj3c0fRdDy+KcUmof6VgOZtZd9FEv/MHb7zpqr3DCf7Ru279yN1HVMl4Cf00q6pRef6O+po9o1dduvPAxdvkaa0XPvHQ2r/+4N0fvfM4zrOtVo7mCgIQumzOS8IgTfoDZXovC5iipJUH0gtrs3Y2by/ZP/m9f/iGy/ZMcLTPPbr+0394N85qMy8X9HBd2iv3jN98w/m7JuUP/+qtv/SR+7dNSoYr6FzozEYbclwEiJiFzUMdJx6rVfafvvW6t73mMhznH7/7c//5Ew8fW4cJTEtW7qzNq67c+b9/+/WX7ln+27/wsZ9772f3bJ9oagYqd8ZYc/SF3T7QGvhRKqtJlgS86zRlfZA7MuFupvuGglKce+RcK7WzeiNemo0hk3qUznM5LQjPf6Wy2LUnZu2DR2e7xtvxJjT03QfXTs57ODZHhLjn4Noffv7Qez578P9887X7t1XLtfmZP//Ck/PuQ184vKyLr4g4ZbalOPJSYR472T54bD4I3qFpd8/h2baxnVRGPnNXx9LiyVGhjq53n39k/ZTg/frNEC3WD26U4ibZeffvP/rAf/2hm1gZlENvT2VgyC23eyIXnf/co2uD4AHG3vH4+q4l3PJZSt1g8aCU3/qSCwZ88eYX7v/AFw/DSVXmNJagmqXXKgDxOvzQtA7+kjEFvLcKKxVLAyCnU9OWfW9C99Bj3R0PrQ6Cd2Te/+Kth5qFq0tYMNZSQYTmgE0qlTHCx7t8/+S7D+yH6rxw5xi7/6bLdtx02Y3/4eaHf/Z9d04Xna11SMoO3K4xtgwtwsMRfUiWHnrsQrB9i0OtlMpUk8NOf+7gbBC8+47M/+OHHzAGz8Xkgn4G/zsXfv4j9/63v/O6GURgVCljSpHrMenkcssHNgQ4mZti+9yc3vbx77zpikHq3v6OT73zj++FXq7p2vXtevfg8XDnA4c++8Cxj/zTPzspSmPLPBmB/Xs8YG6iZUegyvmNiIsPve9huE3fS1vwl9iluZeBcRt8LpduZ+e0x1Wbwvg0NBuKoQ8Kti5Hfs55kTSvDZ7ukCcZ/l0XtnHwcBhaxoL2Pr739oOABb/wV24YLubtr73so3cfz+zaTxLxo38LjXhKxIYeRC6COBt3SW5cnSg2NBRfcCqWRuXIwvFWp4MZwd5/eH7/sVnmBFGnPvzkQXk+FW033VF6lTkkraVQZy11fYj7VkYvu2T78M4Nl2y/bPfk3sPzJT1MeCPCiR1gk8em6eGf4Yx1VegC6hnwo/WJTd3rc5JRMjghAfGXl0e2LDeUkUqj5SLqVNlssqSAw7AEuBjJr2yCuPvRk//i2PTDdx77jhvO+96XXzQ41d//iou2Fean/+CuY+vN2BJVAaJ4agDpI2OVygffM0MB+KBpS2Wh2KwA0Bg2PYSqEHDJ4NMVOWudOZ51l8q71vrPHZ7iRHVuJCeBXw5swHFmgESEkv54cPk4fRC7l+s//4oL8fN7P/3Yb3/8viUZKk/+WSgCi+1Vl7VPdz66+ol7j8LJZ0ox+/FDX0PIdm9w4LFRIZCQZ7yVoayXEC1cseoVeZbIcgs86qVaqDTofRh2JwfaQOk3Q8+RH6P/eY4bYTci7ikL+RCmTjlDOSQhCSEqpkXN+z5z6Ldvf/wtB87HZ151xa4XX7L91odOauaD5Ffdyrni+5S5UFkGk9qgEj7LnFWuiD0lCzy+oE+tNmU5DdsxmU/df+KBozPIo9JPeylU2lyGYQ1yEcTZXi0p5drwlhedNyo2HHVAhhdesHLXwSkQHTQdMN6CvDwtUDs+M6rHULOEYN6Lzs0bV7iw8D6wNa1YMjpYC5MCp+ZUcldJvV0FpeJykYt+GS7nmngIdCBV+U6qDvP5x9c++8hxnPefftf1wxe//cXw1oq//xu3H15rxpAqlkuT4ScbYKbO9aioLWOAnnUpjIxUTSpiKuWpBh84U6E00maasIrVk1KHWCT1qXsPHTs2LVVkqF75nPfDDotEfsna1OcAmJXQN11/2YWTy7MJ/egdj01X5zuWK/I7CHyOrrDXpifHX/zk/ccV+wxY0QY4kNjCl0zeYwCGMg40Z/j/hJUIJD+yMgTjGX7zkMLoNJAnvDkRSwalIIupsybmcAy3aAgbtiJjV0DTr0kCPT1Zkg5XA4UK6PXLNz/ylgP7h2346it3ffKBE+mpQg4ppq+Uw3tOsiFf+YBD3q0u1C997CF68Fqd5TmVfJbXl+mM05tedB4h8YnFxTsYZPoz1+x5z22PHjuxsCM8ewVbHYDwqXH71EfXOBg+UrvC74fg1GWYLBUF28qarAQ8q/5PKzsmw1S5EKkWZWlYBJy8Z2aMDCNUHl3+/7FJTa/f+bEHmqT+xVuvHb4L7fmXbrrs//qdO+aLttK09U1px4XdZo0v2Yjdw89yruE5JDZjl3CWeOb66KIg+7KxrQS8j5ZblqDtHX/yCLxDoP/AxlabG8xTOZR1EQxTHFzo/GKh1tpLq13D8aYLpzM+MmqQBobfTPA1TJ9Sv/uJh3RpqqVRZ9m2t5TzASp3GbEWNXod9DCVC/5xxpc6EtHaEno6hpYdB7SRTEbhT99jlwAHG6N7qZjdkzKIzTl8cqMf79y/1FOk0HEt48LcfO+xB44vLt3J+OekNrlM76mB7CmLKM8atH3ZxT7xOOFL3hiyhZ70xc/AO5NPtMRKnG0CYfPVeH/1+ZNvuHrPZx9Z/8n3f+FX/saNePON1+/7+Yu2//FdR/ZUutcmBpJPtm2vepeJWUkSiR0mR6UpbF0XPm7UXpQsxweYVF2Kp9G7SDBruM6FdzazvkbOGMjzq2i82WLaJzWWqq64RHDAdozUP/7W5w9f/6HXX37Xkfk7P/rAZFLugjllYiv66KczL72fCbuJ3yEMyeqcbdp0TnHayvKKPT08SU7NTOJciL53MGp6SItryQtzQJU+/883jHBA8mDVcS4dy9oOB7x492RAkTpHTmZs0yMpizQG93jH4UUHY1WoCXmgSXBE+yViQwwFnA68TTXEhlzXAzKQOamwc3im+dr6KGCubW63hbllSTjc165zPfslckDUymwAQ4asIp1jsqOhFgFY4sgUKnX7k3xuwHKff3x9ELwYnu7xD69vHHlt5k7O+ux0PUtjJ48v+qeWIvVMl4IO7fG5G/4569yxWa+f6cVu1PBT+Xfz/hXZ3L3v9offf9vj6023XNM3+8s3XfTxew73nUuuYZKL7dIy4KlrMxoNRYh5qxs7ZuVvzOQEGUiR5g6ALqy3Gxc5b8OJ1SlsFOATEzQxliqTaCVyo+dKSCm6fiEUWVCiH0f3k+/+zA0XLL/xBecPR/i/3/L8Tz22duTYLFNP9vOmhzMWc3XYiNtbWIa1aARSIVsnj6/3pxeMYYhUqVCSJSUUInbseAOSIyLFr6tE+j8ohdR1queIEpgjGD4GobNzNtdyvqm7v/nA+e/84F2PHZ/vHFcZL5NOyVmbixpgvcRS0i1PoaJWQ0crhKbjFWYbpTdKXzS/MnQa4YnCLjJdjjup4YJmsltyagKrdnHoh4KowRHtvLdQhNb2ubc3fC26E2hc9aIPT0SecsOFPSWfbM9Xh1a74Z0+ZGIKJZ/k8lLOfrWbR+7Z6JXONrZyZkJZNn18guf3pJfxDCypkP1mkAnOQeeIVp76as+I0LKCo3V03JoOz//bX3oR3vzA/SeblD5w14nvyHL4DVfvWpFp9UQzqlRRGjEqRlpjr3hFt4aFGVLB7XKaJcswXCEXk/RD+JNrrtmbvZluXTTewJUqJAm+hMwkIrGTNhee0K64pmvbWGU/ri4gR/qnPvTgN123f8Dgy5X91qt2/NT9hzTLOxIkYk4fWpRaQOxhemOONAjGgBwsxqLzp2AGTqRUpn/AIkXT5W1iSBkkYdtk8IsuyKFDApZFKZIg2Wqc2EfL2hH28fmHTzTDAV94yc4f//6X/+V/c/PRkJZLK3Ki15LWgYqMlgy6KPFKTN/TYLFoRQEmFEZ5TWIYmePpkC5Yu1SoSlsImPOsAptwMpEvA1vfF0rWzLWz/UENHfHJtlSB8BU956R43FdS4hy/sn7NJEtP2IJfoe7xTKz4mUdWueJPL2y66ZAkqZ+b23mWIPBJV2PzyMzEyq9SBzoIqdioQ2JhYVxv+5Mn1teOrrbTuYF5mFQHrt370st3Hl5v73/sJDyPd918/3CobaPyjS+9aA7LsDLSy3WxVJe1mdhiZ6UrhhRYmcfiRE9KSS+HFIkxrLanhg7cMvJUQsiWpS6LNLwpRRvS3GsIfzddpHkn54syRatVuVSt7N25e/fK3n3b7nj4xPvuOHjqXt70gvPG8NVCaoIMRo0Ks1LZnTWuqrDAu5q8e3loZC7oUGdC/Bz3ZjgGl6BgrSsBjBr9rO0Bb6ZthMyHgOue1HRCfaElzJG2C8PWBBysHpX3HZ7dd2g6HPDNN1z009//MmklFtNlo2ZYCkb7A+gLDGt7VwdnQiykHAnWzZQw672zbW9dD8fUkBomwDiQ9x0CCVEtbFECtVdyVENGE7mrCVMNpyjIpig6FhNpeNKVKUhKBpsdgyFfqDjXBm8wbPHM2OGXODwibZRgXnP+MtNH6+3H7j1OXfek6Ti50akiz3gnPoug5lfwxDZ+zpe3ISabxZrkJFVKqWdw5C//p/yyq81qlRo4ZSdysYBD07ENJ/RjiMz2JU8qgeha/4Zr9uDz/+lPHjx4cA269wsPnPzUgydeeukOvPmdL7n4vZ8+CPBTsU5Ce0U6Sq8zdY/Mw9oiqQicFBVsbs5ZYeOzj43ht1OBRUGLrBIwHqQUYGINVglYoG19AEbTqihWdi/bwrYxa7zOAZpKAL4u/PLHH37T9ecNT++SXePLz9/+6LHFTiBhS1sJMSYZXmIhP+u6gvA6N+cFcSquk+PTuYqZObcoGue6PvWh96GF3YC10UPuiBwo+C4ncuXizkYkbHCWQmOTV+VjM/cbtzz0I9923XDYt73qUpj3v/trtyyaUFV2kSjJde7xo01Oaca8G4C5tWaj8pGkKZBokv55AGobGNcpKgudpRNvJ3PGMLwbCyXJ+Sc639ugOCchYplJ1kJyNJXrzrMBN+lr1YF+hjH7ipX+qfX+gl2jAxcxbf2ezxxca/ulqnhaAqTSObjejWN6JnmT8iGnd0QmOBgyPGnvSjXPZaJnB0JPLciAuHOQjU5UyOMwuiTnM4BJpxUjEsvjwpYTSM3cK+H82qxZsuqVl+1klPze42ZcbVuu2hQ/es/RQfBuvGz788/fdvfja1WhORhAskI3ZO4gwcIOAUgY87ipkGN35EbP4xfZw5YJhU4tA/ZOJ/287fuMk23TluNS7dpVjGsbSQXkOmyzsMhMl5DySqdRre57/OR9R6ZX7KUa3T4qn3/BjnvXIKxQ9nkOAhczR9VFrrUk5TODfoq9raezslj14/A20wJKjo0HcKik7rTes3Olb9yCqUFp6XGaBS48sY4bMoDrZLatwC2TrWipML/wkfsBfV9yyY7hyH/l1Ze1If7Yf/n0bBXrY0a57qhnibyzA8ULeflYUcvBzbmrKbcDMas+DIWFEojrqYKMwVoy4V4ErFMiT7XKxfUQW1aDF2YM7ezhAKpFvr/tgl2w+NOpr8FEWDkk7+JXMCs5o8/i/RDhdX/PS8+HTu+cf+fHHyYxt3oqx0ptsEx9VYN19ibv9CGwL0qjapupClg1zxzG5XuW/uorL/6J9991YuGKp2n1nnhted4aawBJuKpEt+hkiJ7joxi6MyaNl2zSxRIrdMvQu9nCxT6Enkp03cU/e8OlL75819rC3bfe7ty9XI7sfNZ+4rF1HyIktTD6wOW7bju4TkdDbayjEkOcmLujz2nhzJ0g4NswZM4u6kyz58MmPwjuPZxca8qlwgKkluVKIRcnjS2LeqkMXds385Cb5opcdUCPhhk6sorMpf7i4cUgeJS9pQJG0qkCv29iGtwPhjAht1H2WpRE3qkVuQl8qOBr/cGjUzsy29i3rnWhIyyZkDdesvNtr7z0n7z706vTnrVd3FoQGPbi4hJKCFK+056l3w6yMqnt4dXuH/3G7f/h7Teev32jYPgHXnfFeSP7w7/08YMnF6507HJQaqytV2TLLcln3XSOiIOIgFncHO2j7WV6MVaW3RsBmDuZFqasDwXVW2U5kAjwtc9ZLsu6Gymi7ZJgq24mNisiyXa7/16EtrmpKuUqEMEGH5++6bp9f+8br8Kv/tavf/aBw9PlcfnU8YyUW01Oi55+zq5vc271Cy/Y9o6/+uJ9k2pUGjZQp0wmLMSLLlrx3v/D/3rHkNs5O5vXu9DNe4UNLEzftHi+dVHVdTK17RMeZvRBrmID9Ayd2QiVLgvATWOqKP7sAVZjfObR1ePrbmlkyZpcj+4+3t1xaP6i85kvfsuL9r/jE49n4lY56D0STebqLZ1hTsoFUNRd7MTJ4+Rimru4utb0vTsV1plsG9XLY/hiWd/D+zGr67C7egwYYKHNFSwGUFngdGJgWpbQLQEf+nT38fbUrVaGG1d6UUBKlHRio6O8YLREttC/HYku+0UH2zp85ZVX7/3Vv/mq83aMl0s79KoOnT+vuHzn/YfW5/Muz6ljDzxsXWZlyRE6hh5h90QJfcMy6Whi3GbkLXcc/Afv/OTP/LVX7JxsFGG/+WUXn7d9/Pd++RO33X+0KG0J+0XTxnQd5IZd5XlGQpEnqYeh7is7/wWxMQFCrkvUUeeheZ2jXutzGUepc9uvcExI5DZ1SQtcRYOFX0QHwL8E/fg14dX8EmdNtn1adHy6pVUX7Ri//VWX/MVXXAgd8wO/9un3f+7wznH1tBvU5GmitHQmXcCzNHkbRmxk1Y2X7Cjp9bM9DBhmvDlR8LZHZ30QuZRMPu3jnjZ5kN+Tx04Cpi0tL5VF3L4bqIQBKIjHvPNwo/Cq2VyC5whdWo7Izc94A7TpFTtGN15OnPneO4+3UpW5VrAyanXhP3zP8UHwXnzB8osu2nbP4ZkdYlbDpOGBWiQX1+GWyqGot/e4DOz5mBPoo8KcKhnDNtKlBYxan5H6bgJ8mNtOc3kevbxM/mADJZKJd0FHUbP1re+PTNszcTWjN1qTjR3n5ag71hz3XZi19NuE60OXSC+9+ZXJyLzm6r25h1QND6LaLCC84/HpLKZJVVU6DztgdRHsYerYLsDmM+19hwtyjhgb7qAU41L/t089dNfh6Tt/+LXXnLfRIPLSK3f95j/8xr/5K7e977ZHGOXPHLWcS5RJYsok4EdC0eTsCRzLWMY4UBeq/CBdjtPONWk/J5oonaMx4ZssPGmwrXH0QGU9RJJZIqgsNlC0cAnhj55zqJkN0ukCE5hvaLdXXrnrm67ZbbR8wQXLBy5YObkI7/rkIz/1gXsfO9HumBT6adY4D2BVhSeCz+dQ7sRH7zv5ln91c11Km9sTSrIq6vNWqp//CwcW7Aajw/JVr3UoDs6VVhlZZminTvswo+V6os3SqGDuhA+sSz7MIjmEIGw1tlplS1sw+gnNqhRJcuDDRHnNhdv3LpedD+/53KEuxlkLh4Igr3XxVz71yHcd2HvBCvt6vvMFu3/0d46bUanVJmcK4xpkb/YuLKA1fJxj0+eW0HJcqRKf1HBbld3ADhL4aNG6cVFL0RWAxKaA2Z/gLy0ndZELl4e606HkVOXEV7awer07/Vx0bqvJRSZ8XC0sKkB10zWsOQ6GhXkqWFrgtPnwfuvWR773Zz8qjBrK0JdrW5fmol1Lv/nDrwQsLXDBltsf+JgUDDk00rchzBsoBxpvSh1jj5Ah+lN4fqb+zOH5N//kB3/tB1/5mqs2GkR2jot3/vWX//1fL97xoXtHJdRB5KDmquBwg64DxljIVFg7Nto7SFwwcAQ3aI4iyy8hS7DWEi4cL7LH0rLXQ0wAwYHXmwXc6QZQnMFkGD1VFIKJjxjYG3LuUeWXvREEWQhDmrn427cf+ufvv/euw+uH13rskF1LVj4bAoP4HF88QFRdcpp2kbk/AEHmjb/5yPGf+/ADr75i52a30JfJm8wTNCSpxl2Qi6ZRfQ9QNQuhbTcSxLCgVpt1GL7VeQOw58I0wHewE0CZQo5HBbTlEMRfCI60Z1A9yNDFyaj4vhezi+qeY4vr90/0hRMrNubTwGYu4Bqtu0HwXn/Fjn2MAEVbcNBcQV5yyl7rPLtx6UzKsixtvVRhI0vd4ZEA9y560fWnoCakohG61mwtZYFjAczLsjNO6WFHfcwtvJnUORJn2cQeYgjjqbIUOmx83MrPWsDJvmObKRRNRZIFrDBLY2ImeE/itNNeAJvVRU1Nx1JeGBqI6J/cdeTnPvDA85mesExD55pKOF5YQMgJpM7gFrGIirYR+p3deVmqGZaUanclT07dG//5h37q+274gddfPpwIeOFn/+INh2fuvbc9tmdk8Kzx0PtWpeyAj1wMEOKoOO1cGrPEqAnznM5XuA0OzfOZvJYftnlgQ8EOc/YZmszWAiQh+sAC+d4ubGZ9kQAK9pynE3Qm3JCbVflkLyz17Q+d/Nyjqzm+RTiMu90xzgHiJJ+RcaI3/oTE/LMNr8iNkjF5xs6TMMHFRmpLM+Q8KR860ZQPniCnzfDRjQ51FgHQnwJMdH6x6FVQi7aBryC8J3Fr6JrFRj4XZnBxYgqzg40HPGMKs4LdVLLLmw5bJsHoomjhrGMDGT2M+oAcv+C88Utz7Pe6fZP//LYXP8m9XLZz/LJLtr3v9serZHA6UhX5bKOVKscjWxriZJkbdTr8qlED7U/OjG3ufrNt+6RL8C2J81QGqwpOF7Yii6OMyBHQoScm47ycfbScxbh8xpTvRw+dnB4+XhaZPoWUGZWww8iDnMxkT38un4nyVDqh0GpSFbA/TGhQcBgI2qv0xx85udqFgiNaGQRSIesQKYqeMRKTuyiYIoHh6nuoLV+UrIVL0eYyZ7irUJ0//Mu3PHh88eNvvf7UFf7En3vhpx5ebTuvWSWeu3hpuiSZadmtm+cNCdZfc8i5IMCWWMHk+7azUBkOGNzYPEtIp0yiC7UGdASorrXrOugq4IGenfmwm8YP3uk5N3l5wO2ZhRjwx0d2I0ssxBlMR8/oWtTgtMhNa5fLZeWzIw/KpiNuXm3urWE5+xkpdfbs3XV47d6jU5X5VnLzgsh85REWA573+qKFLeDo0Bg0jIk1HDhKCvNqPN5w7lmwq9VSacqyGFdcDbKGwz9SueqIVUhp2DH00GNOwIW0SOlbr93HrXyy+38/dN/qvN1uDPlY4fRHFi51gUPjfuxNz9+9VOBj33r1zt+++YFZ3xqgHMvsUzJAUlTnRMreN31jmZ0i6Q8eU0NUJuNmnBYu1vL2MeOHuVKYTM1Y54LuCXSAxs5jcw/5xgZSrsErzHzp/rxyY8VOTvvP3n0E+ioZyxRYrvHP3aI5EZtywxS5UTQHbmlz5sbBCuiS6syQ+1zVhbj9gROfu/+IaJ3Kg8iZpkypyEEEbH2PK4GJLC0suJsp2ZGWNnB+3jCAHIZa7Fiu8Gh+7oN3TWr9I2+6ZjjXJTuq775+z7/6/bvVSqmswQuy1JNlJbf/DqxjQOQQct/lEXvSUVsaOxkXA0eoEi1TfSHi6cMhtFbUVcjpB66v91gW6BGohyZF7b9WebzwFeySfA5EPs+PH34cF3ppZI7P3HOgKL5qc8KGDfdRsh2FdMiAf+Rmmc5mioqOW6Cno66rqnA9W7dM2+DfsxD7IE+BYbpawG6F3jYpOYgj9+cxZJGn3gc+LYqg3CwugCGKQexcrl552TaGVb5w+Fc/+VAt1UhuVJ8UDI0wRNy13WsvXP6+my5lQu+SnXu2Ly1cXJpUklfL6W9sDvUuZwzzpAEmA9iGkDI5GLe7taefVf5YpvLiv0zMw3EgHos+LRck8GE9FwwlFYdqum7era9OgWPPn2xguQeOze46PqtGNeOAJLl0YoP9OeZaAR6AXiUT5k6meOrUjhm5qHyADzzF5sZmxZZ1RBNM32XeMm+wl2l8vWIQaLRt2QMM56kMkbotlEB9eXpIrVXXR1IhaVmNKzvrfvFj924blz/0uo3rfMM1e//t+z7bT329NAkk4MzlNAyQsP8wpLw8fYSok5GdDwj4J2QhSrS/7NtmTYUe1yqWMZMdxjwUKRaWRrjvPUVU9yx5SV8LHw9/RqcJPOVzeWgh601fYlTISVkcn7qzDvCf8khLfartNZ15yZmqJENLiWV0i87J1rfzGRuxdCbTh7YNcYTt6mASfM1ULLUj1pqRbhdPkUToDGLaPrPK5ZYWLNCUnZ0bllZnzrqcYoaHYYImC9PrL9tx6Y4lfODTj69XSu8cGdgrLzJNHVvjOTq1ceGPvnhsELw9y+Ubrjvvv95xaOEj9DwsJ2ujsqoCDMJmquj9G11ZaeihQLoWfazOqLwbeNVzJS25+NgoowWMZuh66LzOagvBmLfzRZOcs43vol9t097l4sClGwnr2x46CbdxqQZEU0yR5ML8ge0vZbgAoAhBgVaCYSs24zpErPCm5l3MhTXUOrlNErub4RJVuFK5TFems3zQjALilqoUYsE6ljxXOefgxoWqxgW79yoNjTCdt/jGyqQ6vN783AfvufHSbTdczBDxjVfv3rd9fOToOmlBaZrorMOaMScBr0xy2lGvlK9GY5ZfYrW72DlqTK1wxNQ41g/gMqpClyU77PEpPpUuWrqO0auYKaahAhsWnZ7jak2OOZJi93JxRvbtS4OHZ4kKs4DtOX1kyXpXmdMmZ33kDJl2josvyXqrXEHvIidoiKbzresXi422JWPj0OhFVv2og8+1z5I+Nyc/CacVCcOhp5PbtbRBzVSXeu+ulUfZtEq3scihkWIzFwnb1GW6RzqNSg8sWtiAr83VKsdm3Z2Pr0+AfMiKFzlzKsQBbcmyXCnHtx1vHl9v92fKpm+9Zte7b3t4sUi21MYMbSAkWYG7oth7psZEU7lRDAfxycawvNlZq/I0N5jhIneGck4dLo3Zi7Jp2rg+E13TLvomRBNYVwIMEHXV9e2Lrtp38e6ljfjkbY9WOUdP14l0QYYizM7QHFyJcJxYhdwx56b2bpIdQYeEprX5e7D2FROAulUM8WNVfWZDUSlYchHxQExuYE2lLDNimbmA8+GwIY/wskp3BASiqktAvtU27CqLnaNqbeF+89aDg+BNKlttX1Ezn3ODZkywn4cxZAJ4lqQl9lIkFhg4QGKVC24EmQ3hRureM2JEckQ86hAL1nUL6TjOz2bcAtvMmphMbFX7c98ImwNu4omNa+q5O3g63QCenvrg6enZ3DOa/FKmdoN/jPVO8+ncuVAA62D70j9WjrSOqc6MJmzHxAOwxayqhnDncO8+lynkAR25H3JT/YzGBQsxA5GeYnYIOFN4JYpckpbJw1OZci1ZgoER+5eK73wRqVA++MVjjxxeZX8D805BGcW4pCXLp2RePp442f7+HUe+/yb2Lrzqsu1vvHLX+z97BMLdRFWVBmq7VNjkeSBOyBNzoKtCZvNXm40jGxGgDFhMCizwpd3rXVBrXdu0s6NrJqMvLy15w0oyBJHlIU9O/v7XXDwc4X2fPfjJ+45PalweP1ZIBlcACGZJ9xGXAWwWSXvZO9N5HU/nhlhNmpnCMh5IGug3T27NzCqBzCUwjgB72ub+NvayGzZtSM/qSQ9nW7JQkilHN1itnBJk8m1Uy9Vp0/Q1AGc0tz6yevfh6VV7mfw0eH4jK2IwLMCMPR+xKH2u5NSyH5Wy98Y5OOc+O6es6zb0loG9gSdN2wv688ZwaEQSTcvHbvOsPZL+1dA5Ic8KtLR46dwGV7hU8cx6yicWjD3LChP6PqeCKyn33HzlIw+1aa1LwNv6ydzLrOPPqGBpp12wcbVrg2+LQP4C6NHIRn8ADa8YYgCiMbHkGLTGUOsXDC/LmFniLJyApKoU8RD4PM+QaJW5dNre65HpstFjJSaPTwkwcLVYL0i7R1rlrnvRRTt3LTG1/e/++F5cVF3CYBmm3yH/Oboj+15x7yYT3C9+/IFB8Epr3nDdvvfesx4svA8jaPUyX7PHhUWxMQ0ENoc363Cd2N+nKpU5zA4bOLVNkxZd17mF8wUMfmJFCDvTuJrW0G0jjTnu6ODCv/yq3W/MEaDj0/ZnP3C3z9nwwNEksaQKZg8OZLSUnO4Bp5Q713MaV44Kn+LmoWlpU6xKnIBUmSyX5U2S3znVtRnVk0LAv7ZkU1J+3bet65LXtS4VJ9Q13r/yyv2vuXr3L9z8SKsyp3qe0Ar1VFcFa55Zs6oeX20PrjUQPBK/Ogg0VkAx9pUjrWEYmsJyobIwihWjGkBSBcexsJA71t+1LVN17JUnQbyjsha+ozksqoIDpzvmclgNqgpIMNYtU4p8TZJ46YxMW0jxuZL1M0OYdaGXocJS/GryD+fnOw7s24ZNENOXi7zKQzFkLqE6Rc2E9Z2enPXT1Zi8VbYqGMgyjMLhLszu3cvXP39vP5nMSqwwnkzldNmwfp0ktmwpSKoHrmM0QrPGD2DjjPBtG2SHzd+1AF65iAseghwFHrrK3kLmiwswMsea7tCJ5rtewu7SWx9afXCt375tace28bgsXIQVatfm3Qk4ZzB2nODGVPUDh6a3PLo6nOv1z9vz/ItW/MAFiZ3n2Wg0jAvReQeYwICiCNmdU6f4ZdicvjiyOn/08PpDh6bH12brM9+0PfBbUajM1c08SmCwJLDDTB7to12qf+J7bxhSDz/63i988P41ORm32gDTkq1EmEUwi07AQ7J9bzrO02IcQg1DQuTprUHz1XtepuhJhWJVUfpRncajYtfOyy/a8dJLd1Zj5qC6npOwlnaM1ZjOKXRD0zhPYiV1wY7x6689z+RKm8CUD67ajJIYMV2jGCaBcSt0xTZC8dnH1uZtmJAlFTjKkCPM5z5XxbLytncdHc4oSzOuzHJVAnIHlqdFOPMG94LPWLatjxhcl86WqaqoWqCzoLE02x9HbWuJ8LEPhvF75+yPyrqfYa9NeSiNrDJXnpTP+vgb5denCgL1Sq2HIuAv+aTInbXLtfmh114CNzfJwWEROZcJDwBrwZqermmaE/PZ4ZN+M4Nc5wpNeC/LMdawqBK2RWPbpbpcCPnqF5z/Q990FfWfTidVnHNmTiAgyq2zNncsLZIkD0ASKyZ3r2xWgToOi8udLx2jDuRKx6OBRXTB4E/HyM3RJh7psI0aN+8v3Df5hmvY5/qeOw73OTIR2p7ljdidPuDa6kwxAH9yYYtiqRbl6L987vhwrh0j+21X7eAOdkL1jEiQeiAHhN3GpDk2ZNsC2E+FDne/cfsFnLm+ma03HgtUUOsMA0ls7mDAkuYaSfKyt1Ed7sN4yfzHv/aSl13EuOv/8747f+u2x1YqtWwEWc8YjZAtDt4BXwcYukWI+ANDVrtU92Hk0hjYcnOfjAvNlgxOk9Sjqtq2famalONto/Gkbn167aU73npgr+UkL8YfZ2tN38blSTVeHhUsp87lQn0/EnH/SjFtXdsHXLM3pG6AV5BnDElSVs/bK/aMD1zIvOgf3n0UR2Y/UK5MYQgUqBCfMpnakwOBAECj732zAPSVdc1Cfsv6bS0bFwFu4e6uNYu1RjS9gA+xaP10Rvcb5ltrr20cJivgIF1vzrXFGwat7NssTp2UGj5wXMsMYc8iwpnyeDQo3VGxcZClSu1brpsu1UUy+nRokx1VIa3N3ZvZkWmPkVwgh7NZvxpDx+oS17IYvR8mTIW4Y7IRXFmp7XJl5iyuK5zFttYlCzTozgBavuKibQCEulnsUPDCOQEb2m5yqqUoqSnnM4kq4kftOa4jrYxPr8O+kf20Z/YXypT0+olFvaEPTEEI2Qrm1uo8AsQI/x0Hzq9y/PZT9x2VTUPoFj0bW0uAqCITOigiV2UnMM00af4zj6zOOzfm5ETxvS+54P13Hb/38IIslT5zsCoiqJz7J3kBMB/s5nS6aBduHC/cCBSXdueOlfax+QTahzCb0IoQWkkXydQMpxJri0tuvbh63+Rff8+LXpFZmX/id7/wrz9wV8lku43DTOaUpwXlYkw6XznXR5sD00RCFRbNQR3u276xPrtX6tFIN8GOto+rcc2USR9H2vTQQuuL6867CgJ5YtoB1i+PbDOTs+m81kv1MoxeWDSckxmsXXd+/0r9mst3vPvWR/W+FVMb6dld7ll7KacnFvBHv+fA+TDFJ+funX/8oOv6QRs67+BjFqOlUBYad85aXVEET8VT6GnTzpMZVXpMjl61SHk4pRC2YMiKfIoDvSB0E6FBUTHNF6G1AU4DC1Zl4PyHc+njDdyPhhtos/2M4V3odCB4Njg/0yFBZ0oeYHpdmJE1mxbPvOm6vX9459FjU2KToQYiZh8TSufaC1b+9usuf3StaXwmVIS8TBvfzkLrCEqw2CZXzoTeK8aaN4o/9q286eWX/MbHHl6Fs8dcFTGLYc2QvOl5+77nZRf+h5sfmjq/fUSO1DxxKuOl/Bi6zGNq8sBUPI6eLozYvWRPwWTgJDzfGdDo+qKqOUsVwgoZgC+xXMKnUC5TfcOkLVvzveRfEw8emz52Yj0nmUQqChLxGcZ+BEXC5zQHLCy7ByESdx5cv+WR2WuvICHN7rF520su+Afv/WLbw8lnMt3moad2sYD/1jcw9q3r48IHW5Tbz2Cwf8uB/R/5wqETizApZGK5CWkLOslhKwB5i95h2V940c6bLtvxl2667JJdo975H//du97x0ftI9WIkyzGthAMQesgV+Q7YNtp0dpgCkttwHSUhzeaLlbqCxRrO+7z9k5dffwGQKrbz0dZxAMPCpXX6et/4vH3ffO2eX/zE451ztSmAVO2oYCYNBoqTIU0F7A7Qa3Sfk1g/9u3XHZ+7T91z1JbNqCShaBdD4wPU69tuuvQ7biCA/7Hf+cIDDx/fNakhKZTMIMptk7pklITJuErAx1ddnsXJvaOheFq49iVnbtFnLVl0wWwR0xiklZY015niOhBYxVx/LdkXS9x7bhthU+5fWnThwMUrQyHFkKG64YJtf3LPMTj9zIKe1Wyp4cjzLlx//vLFO04T/b/+6l3/9vte8IEvHltriM7nLuCJQOz3TOw3X7Pnwh3Vhz55fL7eYOlS15cBaxUrzTQ2Z0RxfKFYi/KlV+25Mse4htdPfs+BF1+4/fOrePhpTFmCndHn7Vp664svsFo9tsZkUpN05fEk7DxPC9CM77FTbYW0JvAO5Txo7JuV7aOr9p0+8isu3fHrH75ndeqYy6tG2NC98ctVVbPWULRAkBz0CMFr/+Lrn3/gYuK3hhE208LlgU9pyT7ASi3nBh+GTEU5WCIZ+0nwkD5874lB8PD67hv23npw7T9+5kjfuqJp4LHMm061HR1JbR1LH3Xv0wsvXHneecunLvIHv+EKOM8f+MLhh08ujszdOvBitlxLxl6xa3LheZMbL935Ldeeh7XFh+8+NP0n7/3C79/6OKwBs8weANBpnyxAaWLUQQ8Qt4DttNAeHUtuZJlvpDTFtReuXLh9IwmBO/j//vJLfueOIw8enc8aR7KTGCqlrts/+XMv3L9cF8fWeshtwW4lGCHZLtVhDgxuk6KMUxf5OAD7i3cv/cLbXv5LH7nnQ3cefWStA5qotXnZZdve9upLvuUaRon/3Yfv+/VPP757z8oYC1vqtajNdGoLvcgjYkejomR9uBWlajqg1hhYykbn29lK5pDAoiyXBdsZ+lhkmhNJ2mDLCBpdWMeeTgevp/ccABYyC+CL/tkHz5HgwdW/dNf4zdfvfd3Vu6/ac3poSev8H911/Ois/9A9R295cFWbZ8xwwiPvHr/p2r3f8LydV++ZnAE/n+JIb//3N/+nj9y3PDYch8baWXID+1zvA3Rw4/PP+8br9v2Za/ZcsWfp6VzGsXn/9l+55ZZ7juiCtVOBeVt6niV7nwHoMpt+ZDHxvj2T7zmw/zXP333ggm2nvg4P7fe+eOTRI/M7jy5ueWy6CrTLUJhuY1wSHhjnm6/bf+W+pav2TF555e5T9/h7Xzz6qUfnH7n3+MG1JnvsUXAaJCduD2mbAUNE1qCH/+ObrvwrL9t/Zhvkh+8/+cX7j/3WJx6645E1b0hGl3t7WFwFUPDdL7nwDdfuvXpD8L50PQHfYOI8ExGisoIUAQOo9v6TD66+65MP/d6nDz867/fUjCFBIUjSugRFb1ZADl2eT6ljbpOBR6mT53g2WRv9kqv3vO7K3TddvHLFoPJSevK6v0OrzQ/88m2fP7Ygj3vJoWzO9wFuGfxbpjVd3/mT8/787fUv/fWbXnDBaT1ysnW4UwCKUSYMv/Po/F/+0X3vu/1hFq8CB/UNROxk67vVGfxSuW05ZZCocolDx0irhz4rS83kaucnIwUJWp31ZLWpLPTfFJuJxaMCUsfadE7hIwLaUWn4t/OFKzmMGtboHPt4SsljC//zH31gdeHCZhHIUgm/2WwfF7ki6qzrTNJq4//dRx9aXWT+8ZyzUewhkLsmJZbVscsrwEemSHSA1mJt0f3BLQ8u5RACS+YMCwc7ppFJ77JqE0DR4fX2n/3+3fTVycTMenMs+t5xUdO/0YuNtDIjzVDTXzw4v+2h48tWQ583vV4iU4BYp2oXS5INAY2jd0dqIecfm7bv+MA9MMWLnhPDC1tsK+XKuNy9zHCPb5vUuaZN0aalkj449CPcz4ePd3ceaX719kNNYBIdXt7uScnEA9P07GlLwJ2G5HrqzImcmV1qe2k/cN/xm+89ujaDjLNGrLBib2V3bxt3DBHpYcSEzMTLmV9ZHJl2P/n79wBKsMKEU4/ltkm1a2RXRsWulXpXbQtoKCYDuAiPn2wfODq/++j67Q+fBBhlb59MS1bntlHBik6jnJdFVQy6ADvSMtMNp0fpUVkVDP9yfnjD4u/Hjqz/zP1HD64DeDoV47YdyyGIifQrsC5wnixgbpjOW1WUk9J+4vOP3PrAsR2TERA5sBzcdMaOixoyh6VxWOSmN1Lcf3D2uh/7g1c9f8+Nl2y/ct/K9mVb5pht04dbHzzxR3ce/fhjM6zjLu1N14liDB206DKVvYIDIJYBhjTnvM6iMgyxMWJMtmkyV+Sh1FHZPGiW7Di9g0szygncFv4Ia134BDkWV8T1hS+Y5rUDv9kCXzh3Fo+cDp5NKE8IPp7aHEQchn7n2UDNM468IQxk5kl5ZvzJacOZIHCUY277hEJmXgxeia3hEWaGScG6XkACdn9SDrVeJ+O+0x0ZbBY59mBxhczrkEyDlShKNpks3JCKkpOoisJWZbGSqcjXPXVbz/xdnOC8IWDrt4wZBMjJtI1rfa+MWSazlgA4tJlMZerIpFPZBN+m0tiBHC/OziCKnl5nTIIbhXqXPn/IjZ+MjFTW5nkGLIXXmSL/VLsxLyHFbt5P23b95MzPHeBxyyYjybGtMDtSYNNXZijY2iAVp/eFJYVChx7hcQNvX4YFfRqy+LAGNXAqIyQYeguIkQ2jVi0VssxzSLhmbLqzda4sMSKW8MIBGUvTzuFZFlXJKm01qknL7snAnGtQo2/dWtf2zIyFpnHMvLA6RI5374i+I3tsUZp6HBfT+XorRlhy3ZycjYxYHldm+4TdN5HdH8Za1buhXd1z9FG7gOJtI5wEWJucrmADhmSUkpAdLlxRGM7T0qkA3q5t4Igv5hh1s8A+WVmyeNIdrqRUkKgu+CnwbgecD4OpZusLOSprKY6enEN5Y6NVpS1LS7JPl1oLS44z0cjDPxRMiHJSLF3lGNeaYa7mOatZKQs2sz1Je4E82yMD5sD3yEW2eU903vV9hK7uHDziCbZiwdC+y1UVgGLQNcwRM3VAHwVPYMR0Ht1+SIjLfQa11mXBFZkQpVMbizy3VykTmHGIXW6LySFHYdQQ6+K015B5BkjjmBmFW+LLPLhN8bmaIu2s1XbJCCUOCbfeK10oVhWx50Wz3oVjbDWD+9gQgaM5VTJmlJhP5sgOqXMGRsuB2on9pDkFD8jM/BTHouYUHQync4sW2pckNgwTqtEEHlW1kqmYc3lazFGtfF+sZsQ+k2wA4KwABTMFNTQWvo0MfyxLvyQ01HZJZjvZevI6s2yrIlbBFu1yJQlntIZUke6FK0xRZXZO2nFtdkxE10MZlUsju20srYGHybpM3ohiRSsuutAjO5pwkpCIzGTEftGunWx3TWw5nkDG8rVFVmfhIQc3snq8vcbywhwr+FKknDLJaI4v4ABJcp4VMIZ1OcKWGEO7+d7R98ViN62LthqXtEUApSZwhJip9MRqYJx1oBGRSg7/Yl2A0XT+YRNDF21J2rc+bTSuLXIjgmFVOyANWTdhxS1MWYe3E/ZC6gycQXoxjoxqlg6f6KVYF/wk9ss5Z5J+zlP0KhPCS2OAIqE4WzzXOYwfU0OsqtN6lDdln1TJ1JZy1o6tnjEkKcaRpFu9ZpxNbkxT0RxuFmLNgg8Gu8ksRSOXhv5ytjbTS071QIOlUh5JqOvEqY7ADw2p/4k8TGLJosoRc2xqZ812zRIIlXvOSKbuw9yLNpHLFUiEo3IIUqBvSzJPAYTzpG2epEGSWTlQmue2AtZQqaGRKk9ay5EUkpBAj7Q4bMtulLZrIhEdP8o0BOGOz2F6yhj7xsVAMGE4YlkNTWaQQq8yAZlMjC7IkBPZmlVwPjnOClEumrwkjjUXzMFz2oyDmZHQOAV22AoLWQxUyiL0ms1Foloel+OS40fxSW1Z3nGskyvLhk4OVsxD/cdRriFLfGqK14QT+2a1g5ERtW57b5dVUZe5BhIKEQazWsw6P+uWYTiKQo7qXNiz0Yo7TIyk4XV50ExB/l6j+yox0F/RkadCbBvSJdajescyTLXuYQM55z3Julg2kllyTrsUJnccwmptZ05enCCQhIAF7I2+cX2mHiiSZyTTGhIE5Rl9bDeFAWUdN2PpsOPYjaGynda6pyfSxqGKUPz3ITs6y0Y5FukmKD1oy3mL9W/FvHOUt1zRqGSXi5EUJ3eyQ2MBXYb9wvRlqvLMl0IQaBnSwg1EruQHaTM2YEUrO9A0NxObCjL1FJ6ZNFOJLzJbPJC/aZG2G5alwIJoMYwJZggfu6XSqixNWeGxQ7Q9e5Fl77tMXJkPPhFpWWdB0AaWjZxUMpdoUSSSdoHyRk2Zm6gzJKdIMw6kOf8wy5zOYJLHb103bxdNF1zo2SINk8X9aTaEU+cubcau2HVE+hZG/RJxNznYVe6XcVpMpZ6oULPsOOnA6VbWM6OF+6vg2bCihTzSKg2DO+hdRly1NQwFt/PxqJrsnmCjL9amSy4CNqxMajGqOZo8RDuuxlXRLtrV4+ulS3su3LkuTs0MIQNCUag57xu3F2Go2bBv89zwQMSOVeLSUTQ6QUYzz178emTo6hLx9PDmW1dtH6tcMiIzWuFqsbwLWlCbGq4aB9eltmFGvmZPA/TUQpSjJUKg2OcidLaJWl2GBeSQNPDUoAuiNmM5WCx0GV0nq4pc8sZGEoLzLJGZiHoJUNPj3dAQGKXsk8tYwhJgYXufJ9QzrZbSavBf14InN4oq8nQyoZoGiywW0J3Rwz82yRdZVXMOi2I9LBkVFVVnyDQ43GyJ3kjjRUmpG7p8GN3u88955k7cKBnPE+mZaoIosYyYPhtrHEQY+420R8c2nRz2gIgzwxM4U0ZZtrFWFnJUZLjESKPm9oWPE0y2KES3ho54lYdgZMo9NnrlOCTVdu5EgBGwkMUeu40xDI4GyaFIYClO1gNApbvWzGAUO7feAsKxpZytD6yfIK59QiErYWuemJHnJdBQxyF3ylUwnBAwML2pMfk1Yx+HCZBMkbOumBiKJMtDqTRbSQENIjeZGJUCm7NzaqnatXtbORmPrOyaUC6N9bztUyqX6gBgndUDzx0ibIJ3oeN0+WCU6Uh/EG1Pq72APYKnSjGVui7tbMH2H/bvsfgW38dtlKTh0I12mRtQkjZj6D6GilR61rclvMyiCEPJmx2INxiKJHsG6y7JSCHLuq7ZAoJbauaMgh6fd6aiYONB11RI9B/g8asIaVapcwCvJsef5oETScpMreVjnq0uZQuHUUQ+daVHkgwUka3pgKDwLbkAAOG5lwH4g5SKcN4b+OdGVmFx7jvQz9aLy53qar7oSxfWFm0R4CWztIMNbCIVJPTWtRCrJIdiBzcc2Vku8CUQZK2wzNWq5Pq1bCnPc1BITwAblBs4M4IjOM1t5CQKZ8jBYLeUeUSaYgUXbQvrCQnp4ECHPOaDVM6xqCcV+VE0rpKDS9miiSfRAtDjCTFjnLUGkR2AjfbG5BFpuRoxh5gVWxBSHvkLcETa4TLTILjo4eZDqeTRpMRRrNiE39Y4QBtc/dzT82NfDL0ZNmCyslDqOIQrBhbNbC8TG9gyjQS2E9VKYtsrbDsL29jElFU9Ba1jYd/AR5ZFK9Nw4kadTMMsQ931JRSNUnCK8P5YyNFStX3/TjEeEefj3FgEO+6bvlufubRriYxjchpZlsnBC57cf6yZgrtVSqBS3HiDrelIqJKj0DBIfR44x3oveGih52GhrrAi5FzIDjODr1EZYjU2KwgPi2gqa+bTlj2fmqxKOgBAUqewxZhKjSXgqthodDJ0kIUpbD/XzbwDfBjbou85aQvwdSHVgvnt3CicO5VS1lvw+DpcWRdYXA3Lh0djLUz+Dls49qMR9uMyoc+m3laOsy8j6zTouHAOL2vXdeEBxWGuTc3BlF+XUkdNNmtWHel35tCUwJa59TtXOEGBmJS7DwfTlGmZUyYzSSbbKVonpbxJLfZ9DJM82SaPiWOJNqHSoOxzCxlnbinrjFjWcY0TYMSKD6R/ZNCT6t/IgdOfRynhm405w1TSyAT2Y3MMgToO/z1GFjz1utXsTa6poS17sQz2jc6zT3RGp3EoWKMXnodz9jBNkV6DY4il8LCsJVvI+o58YBGuYdumvu9i5lTHvVtaQp1jUylXymzkzTLfjst9D0UudWYPzSBN2OWKI7YMs26szGCx/0CRltnSc0qBMYWYOHojU4Vl/ttMRJGLFV2vWeGYymLf/m1Lo5JoLkr42LWViyg6IYGincv197gfD6mLWBX44qR80sS0nZKLvq8rkrYx0iNSp+DNETzP8dALfMiRosjIcaFOOmehLUPmW8FqBA5pqDlbkwNA2D+VH5Zv2wL2du4WJ+etMqWK49J4loz4ls1DBm59z5rkqENyeVRYOWwGq5aWS/IR5SeYB4Ll1iSWdzE4vMTyTrWeGDsG4MSZmpDjdBD0DCKAIR01M1l1AjP2Yu5gKMnUFHOtJBBNXbD+iFNEQ5pj/+hQKu3IqCS/7vAl9nd7oplBieW+RskW7Dx6lLE9OYRl+0z7BdBZcMBTXERVuxzl4OLiXoEcIsmgUrRhaG+j3zdMAMkGgNYCTxjPDvawx2pi90byeekkmxxBYSDCYx86zibNYyq2FXQBgXNwRRV7vSEJhJEex4pM3RBBGrZOs1qUdCEMJA610Hm6aG7mJm5ll2aGfvAFHZ0byCRJy+iBTNf6etb3HMPTW8f8Z5O7OU0ePB0zu6M6Y5LDYOX+f+rObEmS4zrTvsSamVW9ARxpTG+h15zHmufQpTRGkeiuJTM2X3S+36MA8lqmsSbNZAYB3VWZEe5n/ReoauwmxO7DbZwpaw2sNCbA3XkSoNju2073UaXHUVtarB9uakVOFETvCHC0/Qr9aGJDb9X0l6df/vTp0/McyBHOTtJlwOXcsp6T4rJVf9M4vENbgi/VT2G+3O7bPljL+LpYhf94eQyXy9gjt2zfzZou2e6x37M88NtyrLne7JtOY7B0xLaSBtqN/HS7ALvdwKPeNnvJfWh/18LFZbpahmRsacmO0hvDIDyT074XhDUzGGcZ9xBwiqANveZtlsGQ5I2FzeghsFd0D82Z/YCz6wzRgRx37eOA2mZvrQVKzPsmVV7L6HXd6txZjVKHlK1pHAcc2LcjP48MvtcmJm+hnPGRFUnlrgr2p+vr8laOuxXDZbLiz0G46sTyPsCYMotjaeKhnyZ0ONQY1yJjLxLC6E9qOCwUTlOWJKYIWfYKNbWQ+RNUBotz0nxkRmmX7LlTb1azNEDYlvpusEJo8X7XNKaTd4VVhmugA4EeI6MdUOoegvbQ17GNNduJ9VKfpN6xMk80TpdmQfWE82aXcDhrvdERWdctPZaO5s0aDQ7K3qEDNGgDJUIZfyuemINWBDr/oV+jX4WOXdvqddhmuB49CCBl7Y8VMgjnsvzOlqw5SZPwFHfxsonOIEzpSzEmtyBR5l+/TvPkLtZm+vt9U8qyPi3zhO3t9Hx5ewtX3JOttWFTMt56Fi0rsPIU6QWeu/C+Uk+OlkH2lB9HnSjT7dd1vk5zPy8RI5EcXh9bXlKYUW0u+95PUy8gmX12SycdU0g4xah6xa4JAXRI5SL1rO749A91UiW01GTJEdCwk2AOkHRWNckj0andUdjtyVijq0cxyPDdQ7u3M1d68YOtyOrnjjd6JMsBr3FY9vL10FuIDBlAzqpv3khxwx7dPZcLAtOgdy5oGYb3nDdVtT9hqVktmz1il9mK2cHphwH7l42QxyBkkzqDxbcJ3qJm++AoIHsMqrhAL7L1tpPTzAFdbIUTdGbubSdpMCu5hKpzzDQTkb5YI2Q9dUcmtBu4yfZ0RHLIqhR3Ec3n0BTkWWqqVTaJOxLPnOM31a/NR51tUtCOSyScJraJSYjOSBIxyqLuvmGzcaz7KmRJ37S/mXeUndmGbtbvxihqTjQnafHSN71tQpVkR/oPFl0W7LhIO9E1SZfT9ag2LYfiFKf0YxMXGREiEew4YZ3UH63eu1d2/fbgn379Ej49eT7oarfZ8svlyjjDWi+7B5A3LuAU98M9/fr0eHu8vD4+/++vR+EjWcFxHejOvkf/Zokxxm/MKMKbHcre6vjwSG7Vu1m1aQRTbP3A+0qIfB6TKP83ayWC1HLxgsxojMXY7L2ctffAStoep02rs/6Z0IOAsmiH9sWT3BqkjKQ+1bf9g8VeXKinUDatJ0f03tinrJpDjiIx23ma9RoRdFAYIydsySrq2aKDTDXsDn+J8kFyeeQA19cD1u4YmtO7b5boVlqvmmr+ZDnPYsUUn789//gzLyJkS0X1r8FfvDZpxY2s4Eh3HaVTTW2AVxvyXSgGnTnp+XRRwX9Bxod/NSCsoEUAOmz2DDW1o9FD+2nO7H76yb9pEG814L2SWrca1uw/BbQxZ3C+nRBBESk+Oz0sGpDrqedESNoN2tVQztVTPPpEctH6V58RaX9sx9u2jyfEmf98IFneWRiwiG6RZfUQ3ko9TQxpTlEsaaEk/J2xs6pB2R9QSzW6fZWkUvjDV/nEQDIJ1T+0Fq5lBtqWNmCy81fs2wHkhTPty+3Xz+46WQkXhEqxCuq+bHEa5MmhtbZVdwvkdwuEseun221L9/uyz6iSuF5O9g92zxC3sR8JnulmctYslej7nHtrfewhb7tWAVShgx3ky1TaGjiE3Ws5Z79AtIC+62ctylnDODhZg/pUy+6bRQq9dPQEUeRE8MZKWS+F2pgaGU+9fqtImB3X1T4Mky6ikb27TZ8ZcRigc/jd0Q+osl+zvYIyscRyebC+zlNWMJ1NnXXn0tFAdA29AaLkA+l78Cu9NFlRhLfcPA/dz3fvLCylp1tXH7eXHy9cjpyREpMBcRJ381L9u5QZ7anP7IJzG8m0EqwZ6doRXmUoahHSXlUFI+9eIipUUbZbkVhohYm7WsMR/UTVh4bsW8VJV1jFfLH61gWWFniX9kqVbuNnMlWcCusce6lLQL4gaD9NmqbVImlo1hi0DK+ghsCOWt+BYYDf9yj9YSzW2qnRTtaaKQzrwMcU/UtpArUhmP3AGIT0EoFdd2kCVsY4s7Two+egcWjr//j3f3v3NDIR6oVT0R0dP38C5GXfgifYob+XRs5n3qP/+vlp+HZjTdN3yztAhXkc7pgWZQZAKb2+7h63wByG4TbU9+UYpu7XX6+SJAnvW+nGjtFxTvtxbOJ9y4I1r51/smy5puvzNMfw/34sGUVKhxkXyMwSweDWieyNgsmQ0o8VNh14t4Hq0W7OXRNFKyE3Im62iNbUI5kxHsnemNSdNR8KdgSanYgX9K11uQUBQVeb5AQZrusfiF/WS+H57005p5K6LaSBkqtAPS2jWcrjrDYluMEq0m5jFgD2e5eliX3va1b1w+CZuB8ZLLORwKzyJ5xqUq+V9PSn54Ic6ms8jqcY3vv+RyF8PrdqDeFiRJ12rlBnpTrBLR+7qn92OZGe0E57AOyPOtherCGx04BoStcznqnACRBtGS0PufLYAYVZL2ehekffOjzDLrbuBStTyHoJh7zpQ6Kg0/O1Z9viH68R5xi3W95g+UBHTvBLLAAO++ny0rDrapc/sajH60iWiK1Jq+1/HItCrmorODmUVzFUpP+B1qWGRLpFG7bf/LfTx1U/BqSjMDdFNTaZtlCNsZyjM+xphLq4sEGoV1f6Un94a2/4EI8YJpZjbmbJ6NLtYqV90i4FXFqyB2W9nTaZ9sWOei/lnwa/stdEOHZ7e3RHn4dBw2IrMiEglMxq/vvrHnO+XoY69E/F6kxVi/uR3t0y2Z9HOslK2ZFM0i95m46jB1nKSqYo4S9oOXfPML2Cqht+bLAmI3sgg/dthiKHtJe9CdQD7LZLQ9q6SOrMyNevQfxI2MBNm5MXJFcX+vTSW+Vs/7cP4lIPzQlCpXqQSgCIVs+NHhoMQ5VMR3SMawd94Xi3CiAtQIJh6k/oPLhwlMW7F+DX7spSJf+0C3R6pevzbX17t/xz7GW0lpqCO0wB7W7PRo9NCxZwPryH7lKtCvfn6AFZKMb6I/zyovDMJtWqo9fYJ7yuLVfUG3Wse/jQI2hVpVGarda/dvbM5IzA6z54wVrJC/7wB5sCvqn1EQzgxa/xTR6nSxF5orpvZS0/7GAduHvrequQcpZJQD9k5tbIqxwfuYhEFKOC4ge75xT2PH+xHbf2h9tB1FBbW0gl1d/nnH+Q9Cno0BXnNId+oDiM1hPlyFzBUUBYCcCU4qo4giOclvWrHVKLCfsxWyWchmL1IQ11GEfQGEnwKCsShw6Lr8Q4HiPJDY5ruVycpci3nU3mkxX129bDoamX0T+O4fLr5zn6d7aKPtvPtuojxZuvkw8/4DbaXc9PQEXi+v64HAe2JVNnT+/Y9u4os8+3+eI6AuVYmz9FJCrcD7vI4/MErVnO6pna20lWnWdloRq/Ie0qmV2pTiKegeRpCvmw4q24mV34Dnm8nygB2AxbbB2lC1Wyvx91cO7JKrCDstIN/tgZPOCxa6/ewuvbY3D1caQ97NKhO4oEATiX07hPF/s19sR/0otHmAYYTj+S6fUpFBEt0DFth95e9ozyEELGT4fFa0tx/TFwK8FMCvdkCdD6vC121sTbc7Fm/qlkK7v3ICcQsmO8RXuF8ieAzkPlgOw6RO70kPzq7M5kdGhyYrc0aeVlv/oN1SksCA8qKPb7x325231ejxGbOaRsgy5OZi4KTfYhtFSvbpsVEPqZrB6jvNfQcpSWa8ri2Zw8eo6OhY9JfILcxo+Yvrv9dAGib/O/axNSWwlw2Fnzw93YewaMjJ08SGaJNbmB8Up9SH3Qrt+ufQvSLHI/jnY8rTQY7J6GFflKO+BuEsHhvhTx0eFVX4Z+23bWjsE9duYo6Nhgu2PJzC+Sh5gHFnz2dbbOjZdB0cQj9p6Ol2X/X1+ulxAe9mI7u7dY7T09DX8FP2n3I+8+b+/L8HRlZ27F2zyG27yRffBIy1bY2Rs+VpxFbnOZx3iw5d8DSpe0KdYx2s9F0gNZMdyFREuB2RQ0dWOHVBbrTZndltF+Y94dKCbqWw3y7GKzaSKYerlw2uuzaOoZnAB1AgJx3IsXHKrul7FKzOCzF6jQwn30Kxe9WuC7DnUt6T25/0F2wn9/jc6elxpazDFGVQxaku5A82fJKcmWTbmqlgf8OvABHFOmDIRCawjsKBT9qFUF+w4UGArjo7cW0VsjB1JIJsubPVKNXu6aJlroWh1L8ChUurVVyGdoG06zh64e1+m+VpQ3rX/bdvnwyLYKNLDkY08Fe656G9lzqYV8tB/ykHXcHJpvnVYEUn61hFt2S5VMQDa682rdXdIaIPoTGyasW0vA57/xp9cshaflJWiILiwyr0E2vHTNmtdOjxYCNaKDxg/8WHW4HxgGMMrrrKwc5uuXJ4LJlq3w7rFVILtJv9BaUf+o7ootZUF2QfMeez7DNNhxT29LyGG1krWvVhYc5fjtfe1GScImujwrut6PvLy+l1u/fPv8aklgPerbA0ury1T3tP/1h/3gaRrvEUchiyT2gG/PV98Nwr9Q6cmaCAd1GjKM5yjFvSaTWTo2KHzbR0ImRgKlbchr95FgV86AylYpN2mupYJ2YFAAxkmQfIYu4lJ1iC9SKNT4xiBdMMUAsXUkpMFTwQ6o73b0NuPcEZw0ghYiBLwEggxIwXb+Z8Zq+ttltp7duhi2b1btIBaj+6GZpF25XQ66sBLs65VjToBoi8ShCmNiKQHLCLeJZFr3uwQ75e7KQJ7U59jMeSGBUUPeg8AfbLQJ+AV5DEwUj+JXuhUn7iPvZQGI4OqGpauogehY0XJI6NZez6FleV/b68VUZOtO9mCnnFYDQBAlUaGp9XbExPNrPpq8nNUnR6diyCuTOGhyx9/oZcCoiM1BL7P0E9GTzxjxbQP0dGpKxalitiyVC2nhaA6D4ji7TIAznYbpgKtqntGM6fuDMUPp+rErDbxaZMc1j0Pp4m+5zgw/jheUdUgS1hRYjBjncTuOZckjy9feYtDh4l+Wek/+69eJcwn0NlgOsuogLMf7PfW/EGX/8+UxDeM//8un6dLfHv29+vWxTl8/W1hcnJWaMEssDB5A2/n+dwuuisBuinz4+14/Fa/NG3ZZTGzp8htDRhgj5opiG7Ya4dRRhZ9SysPFz6e7KVqFLI+b/CWBlFp1BdmHrOea6xPnDV6s1ctjpqQ6ChuCsoHgtzO05HKD+hmKglVoBhQHkldWJ894J/if9d4Blaju66cf//nn+ViH8cmO9iNaVZn7brRa0R7+Ay+lcrXgdByvKe3Wy2XkZuwRv9cyMMMCUbL144T/or2lftYoZerre6Ips9v81FHKbjF3yVn6mjyx2/6qHOUs9tsDtYxh1UucQt3tV6XcH/m31fp59FWpT7SD8vGEZp74GyEyQai1tUdg22tFKZmUNl9+HbXtw3XPeftlS/B3d9dmmRRk7I3ka4lYh0h0f2fRruyHvOU4HqEjmXOqS0c20yCEgYrb2V3x7XTVJR1thZ9yHehehzQyYrjalc5aem5EaLev2zAODyAeMBVT8gCmYl0t5FlS6Tn995fH2FmW6vfHUWf7itbeYr4H5hudQ6Y+HQxUaxH7C0VwPgaUgLblsFJ1/OWJVeTdqsz85V+epuc5benzZXw8XdaXdfl1t4rk9eX+fTmegAcUJPY0t2y+0pu192jl9nXZtUtRmYjBEDCuXdLDXgbaue34QJOpjqfetPIPCQoczINGNQVd2l0oBN9e4knVtphV2uvdk7DnSMh4+SjtMYdPPZnwHgfULjJ6SBaNrbIfQDoh1vkAxxHGCRzUGsvPm/Gat9fT83B/v92X1+5hReFMmBGcDzhkrVeX9lxWbNfsbvgj+mGMdRyHVL4ppr1ui/3hTwNeNjfUwlljcghKfwP4F9jOQIYB4wJLXcV/D0GGErHITOGhnsdyy/f3Y4GHxIZ6UtU6Sd04sccL45G+OPdntUxXx67CMiCUWSkYe9d0ifYPZ7JzJ364oy9sVCsWIna9c+/iRXwJO1r25994EvJiqFYYx6OLrEOg5zUfgfEBdDMkAgX4bLvh1p2sFMR74+ZnzWrQl5AZkGNoaacTk4Ae/C6Y8gzVkE4SnaUQ8mX+MnbXkZHTsafnwb0d4djrJUgYtkrshWTY7Uqhtwn9luzjaEXmahGJBfeE1lvR1Kofc7a+yE0DsvOigpBA1/3bn758/nx7f19hpno/TiRtNAM7//Tt9uPf/iOt+3iZyv1hrcT8y6eMSYK7UBvmETNNq3EAc1vi3y0CphwtBthD9LT6gUUouoBFQFa7S1nS0Gxm7BCAAS/13Oq45bD7FxFwz8DDyWByK8LQzwcAfFvqccRl4zdo8q6pWvdSot2xP8Xhvh/H484g3KqeypboSTDfIIZ0SHmprmdHauHs+PkW6H+/05ui/+d/evqPf8cm5Log8AD8skNVjQRBDWnl4JQv3S9Tb+eoLod1C2mMFsnSnvqS1cVp9+w7tYz1vYBzGayI6yn5Vm8HnfzzOIrqMjsgAwB2LMJzWvKS9m1Lw8EAxSquKYTFLkDwM4Sr/oBLW3+JTaHBf1KyWj1Zq0f3zZd6gkbaKDDK7QF2HLEbTC3eHdSnYcplZvUY8rlfYCiHm5cQz+hYggFgIrqGDkl2eIM4Kie6Eox77A9Y0wihprqpZgHnnX3HSy1izBPtra/DyhxTJLYoljN3crXcfDIcTj9jkQm60mLMkayCpcKHzoD6ww97HB0EOZYNSWho516Wvbwiz7kM4/Jux58Z6T2zxrBy1VpfF/uv3652BO/3Y6ho/+GTer3Ml/H+8r5v6TLE/PW6HOX+usXUlEi7/O3zavd8Pa5XZNX6GbvVet/BwCbEl3YhMBmLWOFjUQQrCqfdv3z3hFVQYwe0WgFWLTcwZQd90/rnY+8Zp4UlgW+zhzDarx6Jw0dOPXhdsDt8sOJ/wWGCZJqFbrcaqkhrQ9sZGugBvpL9e5RF7EbvDB9AFHOkfDygGNKSLpb9/vX//N+fm//K/PfHy/H6l++yTMQNCIW4IiEGNfTDOBcUi0AkJEzIrMqE03hYsw6UDjyFjFqq3VgmHId1w2x4dmEcPHpvEZnuUi4o0tixjukENtjh2q1pnHaYYIVFMhBi3NKcZG6+XI7e8oJdfAGRxGzVFJqDKh4ryE8xfD7mIFpUSn6WzsOSBkxe9lFHkHZ80Y7g7AatwfO90KMgHkbHRhJOkBVxkkVZ9rQt62iPxsIKqFGudZJrIL+xR9mE3pAZO5Mo4AbebrillPb74bOhSSPWlF0PrGNzEUOfLR++XBkUTrIYA7IjW4MFurI0J9hkpVVCvhJvkGPZ+9vMaAd8QQT0kEpvjZ/944BInmO3wuRJcDsMgLqE1kqJ2jFnSO9kQrvq8usq+OhW7qEAYkpX/ti2Ziaf214FVkPM4jVmaEVMb7uDP7FR1vOm2MypiuEqsjPKTDm1eQe7Z+EFwgt/GAMt2mJ24Qlglx+jfU62ePhgElKcAPqSH9YIWhiyKuKoiO8WL1geMZf+/npMo0cdByyFCCXtN7JF9z/zvVOmqP75Nm7LlN7vA2+eIM0Yrw/A8RBj3qy4wvfGUo1FHgijHhsM74cecKyDrCK/qT1dtH8u4oN3VjZyHQeLeRdNK0cr3Zg417+sIPSfrUa5zlr6WiNktROdweOe4vIOJyaVIbuxx8MJqChuNDCYkNcQ0ROdiELzYFd9C8jd7O5EkHEm6cwtryb00aC0qQ9nk5vIgamscgcLlpkpptzWg9WuWtp262ox+2CzzMS77MXiLLfdx100haDmI4h+kGjW1ClaFLGsmB04D/un2NCkDccZhR/bA6xzrh1XODHNK7JaiXYZOelp4O9Kk1Tl8Ca3CXu2KHkeaYT8UbVckaNrqJIf0qJcMNTACg4wQMQxIutJdZaiNgCYoe0S9Vn57GlBbw/grd1Xgd7UQvPreFb2vgQkyOI3WTM7FMvePi0H0fE6erHvq2A8vsEJoGk55avmAEoxjL5Sx0an2CNB9wM5DjjRumybP/c1+v12qGJtO/WmidDmMUGzWsZyxGepsNSmDSGwQmyWEAKveMye/T+G9INdgXy5jd/XdZNNNk7h82At+duabxrN5XOeEex1rJWQefN1i/FODc+LkfNxaLBYSyuPGqwzvMn/bRq7G7IRuatWQIZN4nk7aLLOmuxvLG/D5sK1unvG5fd2db9tvNEZ2zQEBg7fsJqZIWSltRqY7/GMLa8UgoLlWKBP2Di5k1GgXZx16kRzgSrtjTnVQkg58utxIAVKH0X+jYqbdlIA9fYMP8NxAAu4jNl6hqEbJLDH+iOpQ4UxY6dcyyYCA6T82vWbpUVqSt5+hf3gyUK9BnbSYOGbeNH3BVDogVtoDg+K2tKPskvbgurhUthKsyUOgN0ErYrqBCUaqBTc9LXRLz1V4VgPEawA5zEFCf2gpMVASCYqTJSyWOGRLAscxdpbNBcVLwidIryBeSOk6FsOcJH2YP1BmSSi1lWx4ZyWogWYpGAtCGHRHHTat+emASDUWG6A667h8tqyQdu8Runr88c8NAtvVDGyVvCThaLo6khQNOwFi1qmnJQPtSGKZCpjH6DzP/21U9Xlr123ivM5hNFNo0WVtB23nBd976FqfSkc3s16nqOuwc4Le5SMgUHqUzj8gXcr2xoF9y6+R0EZcv1Lrg9m8H5wZaIop3C1s/m+s1x7Gri0b7vVdUfYaulC19sfdEcsO+4FGAP3zY+MKTa1plUvO+5pAbM0aMx2E0bX/A1lraeuI8sLvDTbHgzAJWMBuAL0mYjSkF1UT7mTSQQ/HM4q2cQK7MqOkhiN+lOR7ovVhpOoUCrUBTImdCm+YxXcSeHFAsQnCmzq5jKAjwaF2Oj4GroIaIz4LJRc8AhWRAkI2cf35K1wGKdGMkSspAktWMDo597a2okjfdImLI7sQelWxL/BeiaH4u00ezQaHTOiUSmIG+q6gfAgGgeyHUKxc7NDz5y2bkPUhRC1QEr27f9rjVxnR9tqVCthLOnMczkR5AUNm1JHpGndGprcNuVAh4ing5SqBSkEYhn40Q8zPxLLQSiiE68Ejom51iBmNUiGnv1qU/SqZ4EWhEQjweLd1Qkw1ZDrja+ljv2nHq78Dn3im6ONYZHacQZyqOnoV83DOzfhpVQvRBTAFkfnJ1JG3LXNO+yeFGcV4KI6JWuGbi9m1vpryWlJcFDnDmrAKNdsvDzyYDnw8NYMxFdEAuNzTN+u02938tbch3WjIIRB08g+dFKlaRbxHrruEkJj9JTuVDjs2sVSi9MkjAixkoAWJxYcAAwje2cddGkpUrDETadOCjdwYizORRPz1NMQps0aJGY8zOosUgS7FZvMMRqHlYoLJTo+XxRI2hLJHKh7hTlV42G/k7vVbOEog6VMzahygTwBoP/gyGnuFMIjs9YX5YNDRnSo9ZH9jNAnFnwzztMSLINrjLoWI9NqH2yyTqkvZbFPaAez7zHxaNhtJkS6VvDBvN0TQWnTSY/SHR6VbULTXzshMKHJtmq2pTTN9wMKJ+kY/Anx1ygSVGezKqcp37j1sATZc3z8BMtEKt+Z1UL585oqffCq+Az2V7jkuND4hmt3pwVIj6GXHU+vJ940G7tTvLSVraovWRu52jn/j1BsatK9oVCHZ6/fd4uJaNfxHf1vyFrUJ6GNoXXFeMk8lBeONS/1TQ+mi63V0Qq+IYY9WogNEpnZLzPL+g3eZx48Nc7kNAJhEZe+A/Zz3QwNvB7bBNTodLtl+pdLM4Ct5/Dk3LVZWrMn37pKrqjaIQVrBUhNW+VXrWTC9dN4Hio4EEz+tiTFzkETxAV1V5EGyaICMOJEvTsy4GWGuaoszEexpLwE1waY81YzNbMgjE7GRfZHYtTMIABGQeTMy2tcSFcrAb00OLnJrNW7A5vrPVo4oy/iezI1sjrQCkG3ddLP0notJwaJP/IJbYMIYj82qi+z57kc9mkpkfmNOEx0udEQUXlLcvGLEIWBKGXpxbA7oRzg5XopnUp+L5QzGrEoPzWjlJ/qSUJE6plqGbBf48PJla3lJVBFrhGuvP7jqaVmpYF996J9Ti0tsgCfbZbt0uygUvHlQzejmdXwaQ9RXviAlPpRhYsbkRFHoFe+tR0yAMp+/xjyfi2qlC4OAKTrw1tGi3etgyPrGpbm7/Y9Q540ObDXN3sQHnYzw4d0fEUgjgg/ReJ3u2xg6KWLy5Y8H78Al613a/YQcfaWFj6F8lLqnunwrcMcRUP+3k0W8gYtUlEnlUxIC3udP6cnTdLP6UB4sUupnXpdOMnPNmVo1GV0OeUTft7YImqT186RH5UglLX4SjSPJ15Mx9puzmGJ3gJxo392wqZxyO0b9LpLwb31BF2lX/UrVeZHqotEFvOPQapjOschIZFil29M1vxFLRvcpm2h+8CFnk72lSePLzFQgnpxrDRbC7SWP+qVBAMgw8fr+LGbFfIIlimRlmq14VX09xcm+LVRdIT3gu9o3fSlQOPQsAZltwYYdF7QSYUw3whQeuCECqswsqhhTGPsN+N8Jg06qVNgqCTJGr4N1C3NqyQv1zUUUWW3A+wHux/xFTspVP0OI/4Dj94yWSOj7TkjECJOFt8YrHmdXBuHqSwqoAi8JEr+MS4eLZJ3c+c3q2as6oPXZKWjH1Flq5sQQIPOup3iS6LI3mL90moGHX/WVi6vykancpbeH9sIuOgsWu11/FbOphJUUyp38ZcftEEViaPQ5NLDdQj3N/8WKVlBplvzNJxwI1QEBINufIKWAPXreJe5ddptVtsqJvqJrqEupaQKMk1sIOFa2FdZvxTFWW2G6Odr93SwKFweFJBMR2nlyKYcmSDV+kkBh1EqQ/n9wB2vnEApF3Azq+UCSAcQ7KGnocxpjRAcYgsU5W981Hr1nUW5fJBa9qZz2bcPb+dsr/1FxbA7pRTbMlYlXNci0VjzmMSAP2qP2QvDjDetebparGm3q74xHnYTCntZleyHQTM7mBMalBKQPklhN30c0c4VyeyqabDRM35Mai5oBBiTblsimkFItso7CP4gUWt1obmNQUmNcLpqK13tyaQaGwG5tc3nnJM3IsU6wi8ST03roBEj6afdfJS0Sf/Pn58blK7SY1f++07k/1/+p2gVt1xm1CU5BBZoH4L5zMXfo3sQ7BHqgiPn48ZWuV7APYV7KCtXqLtVa9vqLNvA700Dwrlb8VaIvUb21N+tu4cJwWx7lxoYiGf7MyEscqiYVMCn+54oe2OyEB3QzjxnB5Lja9MbS81RJn1VKppF4tZID9RzTWIVVuhwara/sSluhtYNilnAwEzSe20SmDSxtGpM0xZNWdjQcjkFkJLFCn6Rll6aLQFVpX2AXahxxhVRmzJ3KrgsHn3miXKRnGG5DRY49R6xoKLwc6qutvqOZ37knWnqGVMGbcBK0yirgl+pE1MTSXF4Zn7piKqx9KJvoLcNzcfe19GaVeniRAQ09Wiy/ZIViEIYceeBFOLPMVETiWHFILRJS3REn5M0p+pQpLGKEB8CIExQRQ3jr9B4sczD+zNQ6PqmRYOWBOUmxTh4bMxfa5PW4k1J6THGD/BY/T35iVckUK6KUynEVI1QIwyWewiXLvZdkDUEoJWP5W75LwEGAC4IoJRHruNbAAAAAElFTkSuQmCC;" vertex="1" parent="1">
            <mxGeometry x="304.78" y="600" width="162.64" height="50" as="geometry" />
          </mxCell>
        </UserObject>
        <mxCell id="Dko0VYpapwrdr9Fq0hTY-10" value="Pinakes (Diktyon)" style="shape=image;imageAspect=0;aspect=fixed;verticalLabelPosition=bottom;verticalAlign=top;image=data:image/png,iVBORw0KGgoAAAANSUhEUgAAADIAAAAyCAYAAAAeP4ixAAAACXBIWXMAAA7BAAAOwQG4kWvtAAAAGXRFWHRTb2Z0d2FyZQB3d3cuaW5rc2NhcGUub3Jnm+48GgAABR5JREFUaIHtmm1MU1cYx/9PW2gLpa8gglAQCmJ9G6CCZjLn3KZuzeKSbU5mzIzZ+5zZ6wddxhYTt32RzSUz82WZ20xwzuGyWeYEFZyIpb5BQbHUxlZpgUKB1JYCPfvghjOGCtcmdKS/T829597z/92Tc/qc3EslAMMEQAAAa/a/xWQpqvHOwokeuwvfP/sFCQBAnpoA5dSE8c7ECSIeAIA3zjlCRkQk3IiIhBsTRkTA9cJuawe+LNxMoQyz4fQWpkjn9jfAWUSRnoCNxq3skv4cqrYeIr+nHwDwwKqFmPX0vKDVwuWKC3Rmz3EAgCRRhic+e56p52kQo4rjGoe7CADIpihRsP4RdFna8W8wZXoCyyjSBr2u0+xkAAgAch6fg5xlufcTA0CI5khsfBznei1aIgpFhIkz2SMi4UZEJNyIiIQbEZFwIyISbkREwo2QiHi7bw5vsPqcPffcbHm7PcO/+xzuUETgvh8Z8g/ixgUrHCY7zpfVDh83/lADkVRMUxflsLTCbPAEt55VYDCA6+cs6LzigOHb48OyjeUGSBKkpFkyg6UtyAY/mlskziIeVx/0m8oIABTp8XecMx8zwXzMRGt/focJ427tNwa8/uH20mQFpMmK4fbW2hZYa1to1XevMWmSAlzgLCJNUuClI5tGvaESxonG1H6sRCZ7uBERCTciIiww9gWIDQXgsjjR3mzn2u2IBF1+6/eegPuai6TJCuZze6DKTIRWNxcgYFveB1S8bwNL1KaMujMWYDBXNqJ2x1HaaNwa0qU46IjkFy9C/d5qqAsyUfjyo6gu1VP1tt9BRHhuzyssITt5bJ1F8TFz5fz7CjwSQUeE+DzwBXwAQHSsEGmFWXA22clpsrHeNjdUGh98PV44TNeQPDsddmMrGAO0unwQEQa8flw5ehG+Xi9yluciRim54/7Nh8+CDQWgnp8FSaIMNoMZrlYn0hdOg1wdjyH/IJp+M4IxBnmKCuqCrBGzjnqOeN0eXD15CbOfKWAieSwqPtxPblsnRDIxarbpqab0MMVNlqNuZxWZyg0AgIOv7iaRLAbyFBV+eX3PXcWko8FOvl4vxMpY1O2qREdLG7S6uShbt4P6HG4c+fgAKadOQupcDUyH6oMWo6MSObfvFNV9U0lPla5lOctyIZuihDRJDgAQSWMgV8cja+lMljpPA82SGazT7AQAFL29gqXkZ8LX50VHS9sd92wsNyBtgYblFS8CP0qAmlI98aMFMFc1IEocDeupyxjw+lG3s4p8vR489K4u6JwaVa2Vu3ohmzxDPZqmILr94OxGCxoOGkiry2PEu33c7+mHpbqZBrx+ZBRpGRsKwOv2IGmWGlFiIVZ+tY7FKCWY9tgcdurrP1H24g7KXjoLKz5dPaLMPUeEMQ6LC2M06BuAfvN+evh9HZNMkuG/ItGxQjz5+QvMbXPh7I81ID4PKXkZ6LK2Q5EWD7E8Bq7WNpzcXkGL39Phjb8+YTaDJWiX/MVAScH6JRArYu86WberEs6m69Tf66XJM1Mh/OcVgN1oweWKCzTg6SdpkgyN5fXk6eyjSdnJuHjgNPW2dSOjaDq6LE6ynGgmHp/gam0nvpCPG+etcDTYSK5WIX9NEf746CeKS5Qir/hB1JTq6VrtFXI22SlneS5MvxrJ0WCDs9mOzMVaJE6/e6n3um/izO4qohKAvVm7hf1fv3zoutqB7Qs2U6RECTcmjIgAANy2DjAWGO8snOixuwAAVDJBPjz7G/Y70lfTl3AHAAAAAElFTkSuQmCC;" vertex="1" parent="1">
          <mxGeometry x="844.78" y="600" width="50" height="50" as="geometry" />
        </mxCell>
        <mxCell id="Dko0VYpapwrdr9Fq0hTY-14" value="&lt;font color=&quot;#b3b3b3&quot; style=&quot;font-size: 50px;&quot;&gt;Works&lt;/font&gt;" style="text;html=1;align=center;verticalAlign=middle;resizable=0;points=[];autosize=1;strokeColor=none;fillColor=none;" vertex="1" parent="1">
          <mxGeometry x="774.78" y="250" width="170" height="70" as="geometry" />
        </mxCell>
        <mxCell id="Dko0VYpapwrdr9Fq0hTY-16" value="&lt;font color=&quot;#b3b3b3&quot; style=&quot;font-size: 51px;&quot;&gt;Manuscripts&lt;/font&gt;" style="text;html=1;align=center;verticalAlign=middle;resizable=0;points=[];autosize=1;strokeColor=none;fillColor=none;" vertex="1" parent="1">
          <mxGeometry x="794.78" y="500" width="300" height="70" as="geometry" />
        </mxCell>
        <mxCell id="Dko0VYpapwrdr9Fq0hTY-18" value="&lt;font color=&quot;#b3b3b3&quot; style=&quot;font-size: 50px;&quot;&gt;Places&lt;/font&gt;" style="text;html=1;align=center;verticalAlign=middle;resizable=0;points=[];autosize=1;strokeColor=none;fillColor=none;" vertex="1" parent="1">
          <mxGeometry x="324.78" y="490" width="170" height="70" as="geometry" />
        </mxCell>
        <mxCell id="Dko0VYpapwrdr9Fq0hTY-19" style="rounded=0;orthogonalLoop=1;jettySize=auto;html=1;exitX=0.5;exitY=0;exitDx=0;exitDy=0;entryX=0.988;entryY=0.4;entryDx=0;entryDy=0;entryPerimeter=0;strokeWidth=2;" edge="1" parent="1" source="Dko0VYpapwrdr9Fq0hTY-1" target="Dko0VYpapwrdr9Fq0hTY-5">
          <mxGeometry relative="1" as="geometry" />
        </mxCell>
        <mxCell id="Dko0VYpapwrdr9Fq0hTY-21" value="&lt;font color=&quot;#b3b3b3&quot; style=&quot;font-size: 50px;&quot;&gt;People&lt;/font&gt;" style="text;html=1;align=center;verticalAlign=middle;resizable=0;points=[];autosize=1;strokeColor=none;fillColor=none;" vertex="1" parent="1">
          <mxGeometry x="314.78" y="280" width="180" height="70" as="geometry" />
        </mxCell>
      </root>
    </mxGraphModel>
  </diagram>
</mxfile>
